<svg width="105" height="89" viewBox="0 0 105 89" fill="none" xmlns="http://www.w3.org/2000/svg">
<path d="M104.272 85.1503C104.272 86.6284 82.1117 88.2286 55.5611 88.2286C29.0106 88.2286 7.35297 86.8987 7.35297 85.4206C7.35297 83.9425 104.268 83.6765 104.268 85.1546L104.272 85.1503Z" fill="#D1D9EE"/>
<path d="M83.8373 32.5087C83.8373 32.5087 81.7957 33.3415 78.9845 35.199C78.5085 35.5129 77.9347 39.8426 77.9347 39.8426C77.9347 39.8426 77.4721 36.0666 77.2008 36.2759C75.3904 37.6669 73.3621 39.4982 71.4228 41.7437C71.2048 41.9966 73.5979 44.9224 73.3844 45.184C73.1442 45.4761 70.2974 43.1042 70.0661 43.4094C67.1971 47.1374 59.6977 57.3797 58.6123 62.9957L66.2541 66.0828C75.3193 66.968 78.2728 63.9463 79.3981 61.6833C79.5983 61.2821 71.7742 60.24 71.7742 60.24C71.7742 60.24 80.3678 59.6994 80.5458 59.32C81.8846 56.4989 83.268 53.3159 84.2288 50.473C84.3711 50.0457 75.3193 50.4163 75.4438 50.0108C75.4972 49.832 84.7403 48.8641 84.7892 48.6897C85.1718 47.3467 85.4208 46.1302 85.4787 45.1273C85.4965 44.7829 78.4018 45.2232 78.4018 45.2232C78.4018 45.2232 85.4208 43.6753 85.5231 42.751C85.8701 39.677 84.9805 36.2324 83.8373 32.5087Z" fill="#83C3E1"/>
<path d="M71.5029 58.1733L78.175 44.2901C78.1527 44.1288 78.1349 43.9631 78.1172 43.7974C78.0504 43.2306 77.9882 42.6681 77.9259 42.1013C77.7657 40.7104 77.6723 39.3063 77.4944 37.9154C77.2809 36.2498 77.2053 36.2716 77.2053 36.2716C77.4188 36.1713 77.5789 37.3268 77.659 37.7454C77.7836 38.3994 77.8503 38.9793 77.9526 39.6377C78.1616 40.9458 78.3618 42.2539 78.5175 43.5707L83.8374 32.5C83.8374 32.5 81.1285 39.0142 78.6287 44.6956C78.6465 44.6913 78.6643 44.6826 78.6821 44.6782C78.8778 44.6084 83.4148 44.4166 85.5232 42.6856L85.4654 42.8992C83.3881 44.9137 78.5797 45.1883 78.4018 45.2145C77.5567 47.1287 77.2676 47.7217 76.4091 49.553C76.5114 49.5704 76.6493 49.5355 76.7471 49.5225C76.9384 49.5007 77.1252 49.4789 77.3165 49.4527C77.9837 49.3742 78.6554 49.2914 79.3226 49.2129C80.8705 49.0298 82.4273 48.899 83.9797 48.7376C84.3445 48.6984 84.5935 48.6984 84.5935 48.6984C84.5935 48.6984 83.059 49.021 82.0492 49.1911C80.528 49.4483 79.0023 49.6838 77.4722 49.9149C77.2587 49.9454 77.0452 49.9803 76.8317 50.0108C76.6048 50.0457 76.3824 50.0893 76.1911 50.0021C74.1139 54.4147 72.2324 57.977 71.4984 58.1645L71.5029 58.1733Z" fill="#AFE0F0"/>
<path d="M80.5458 59.32L70.8846 59.8738L70.7823 60.3709C70.7823 60.3709 78.3307 59.7692 80.5458 59.3244V59.32Z" fill="#4E9CC3"/>
<path d="M71.4273 41.7437L76.5781 48.0705L75.991 49.2696C75.991 49.2696 71.3294 42.437 71.4273 41.7437Z" fill="#AFE0F0"/>
<path d="M16.8674 24.9828C16.8674 24.9828 19.4028 26.2909 22.7967 29.003C23.3705 29.4608 22.4186 39.1145 22.4186 39.1145C22.4186 39.1145 24.6337 30.2937 24.9629 30.5945C27.2047 32.6613 29.6867 35.3559 31.9819 38.6131C32.1332 38.8267 30.2116 41.6783 30.3584 41.8963C33.9969 47.242 39.1478 51.3887 39.9262 59.3723C39.9262 59.3723 40.4599 64.2558 39.9128 63.9375C39.3657 63.6192 25.7101 74.3673 25.7101 74.3673C25.7101 74.3673 23.8864 71.4808 21.7113 67.7354C21.4222 67.2383 26.9689 64.7442 26.6709 64.221C26.4619 63.8547 20.408 65.4593 20.199 65.0843C18.0061 61.1688 15.7954 56.8783 14.9236 54.0746C14.8124 53.7214 20.6927 53.7389 20.5904 53.3682C20.4659 52.9235 14.2475 51.6154 14.2475 51.6154C13.5135 48.5545 13.0598 44.9878 13.2111 40.9807C13.2289 40.5403 21.1242 42.1362 21.1242 42.1362C21.1242 42.1362 13.3712 38.5084 13.4379 37.9285C13.8827 33.965 14.9325 29.6265 16.8629 24.9785L16.8674 24.9828Z" fill="#F5AA61"/>
<path d="M16.8672 24.9828C16.8672 24.9828 19.4026 26.2909 22.7965 29.003C23.3703 29.4608 22.4184 39.1145 22.4184 39.1145C22.4184 39.1145 24.6335 30.2937 24.9627 30.5945C27.2045 32.6613 29.6865 35.3559 31.9817 38.6131C32.1374 38.8311 30.9498 40.6755 31.101 40.8979C34.7306 46.2392 39.152 51.3974 39.9304 59.3723C39.9304 59.3723 40.4642 64.2558 39.9171 63.9375C39.37 63.6192 27.7739 56.1937 27.7739 56.1937L16.8672 24.9785V24.9828Z" fill="#FCC58D"/>
<path d="M16.867 24.9829C16.867 24.9829 24.998 50.46 25.8787 52.9104C26.0967 53.5165 14.6251 51.7331 14.2515 51.6198C14.2737 51.6547 25.732 55.2868 26.0967 53.5209C28.2362 59.4291 28.7211 59.0497 29.6507 59.3767L16.867 24.9872V24.9829Z" fill="#FDE0CE"/>
<path d="M16.1022 39.6552C16.1956 39.6552 22.6765 42.7248 22.6765 42.7248L22.9878 43.4181L16.1022 39.6595V39.6552Z" fill="#FDE0CE"/>
<path d="M23.7885 33.9606L22.1249 40.1915L22.2049 40.9109L23.7885 33.9606Z" fill="#FDE0CE"/>
<path d="M39.1077 82.8219C37.3195 84.4875 31.3369 83.6329 26.8176 81.8888C25.7634 81.4833 24.4468 80.9034 22.9923 80.1055C23.9353 80.0532 29.8735 79.3904 28.4367 70.7352C28.3745 70.3515 23.5972 75.2481 22.8811 80.0444C20.9328 78.9718 18.9446 77.6986 15.9421 74.908C15.2482 74.2627 12.9664 71.6989 11.6497 69.6408C12.5349 69.2179 16.5426 67.0377 18.7844 61.2516C18.9223 60.8897 11.9255 63.1004 11.494 69.3879C10.3153 67.5043 9.2789 65.3677 8.46046 62.9521L8.49159 62.9434C8.4649 62.878 8.44267 62.8083 8.42487 62.7385C8.41153 62.6992 8.40263 62.6557 8.39373 62.6164C8.39373 62.6513 8.38484 62.6818 8.38484 62.7167C7.89111 61.2168 7.48633 59.6122 7.18386 57.8942C7.57529 57.4887 8.89192 55.6269 7.62422 49.7405C7.5486 49.3786 5.56031 52.4744 6.81467 57.1137C7.11269 59.0497 7.5397 60.8505 8.07347 62.5205C2.4778 58.2387 0.000228882 62.5772 0.000228882 62.5772C3.15391 63.8111 7.61533 62.926 8.11351 62.6382C8.9453 65.2064 10.0262 67.465 11.2583 69.4533C11.2627 69.4533 11.6809 70.1117 11.7565 70.2251C13.0909 72.2352 14.581 73.9488 16.1111 75.4007V75.4182H16.1289C16.1868 75.4749 16.2446 75.5272 16.3069 75.5839C9.62585 74.1406 5.46246 76.796 5.46246 76.796C10.4443 79.9354 15.742 76.7045 16.6138 75.8673C18.2862 77.389 19.9943 78.6012 21.5956 79.5692C21.9159 79.7 22.2094 79.8831 22.4852 80.0967C24.1132 81.0124 25.59 81.6664 26.7465 82.1156C30.0781 83.4062 33.1384 83.96 35.4469 83.96C37.2751 83.96 38.6362 83.6111 39.29 83.0007L39.1255 82.8307L39.1077 82.8219Z" fill="#9D97CA"/>
<path d="M22.4675 80.0837C17.7081 78.091 12.9442 80.995 12.9442 80.995C17.6102 83.646 21.3822 81.2827 22.4586 80.2363C22.6632 80.0619 22.4764 80.0968 22.4675 80.0837Z" fill="#6B69AF"/>
<path d="M14.5679 55.4481C14.7014 55.0993 9.10571 56.9785 8.38068 62.7123C8.41181 62.7254 8.4296 62.8736 8.45629 62.9478C9.42597 62.5205 12.504 60.7763 14.5679 55.4437V55.4481Z" fill="#6B69AF"/>
<path d="M11.5475 69.9111C6.01852 65.3765 2.28659 69.244 2.28659 69.244C5.4892 70.7963 10.52 70.539 11.7432 70.2207C11.7432 70.2207 11.5564 69.9417 11.5519 69.9155L11.5475 69.9111Z" fill="#6B69AF"/>
<path d="M21.6668 66.0392C21.6045 65.6686 17.3388 70.7265 16.3825 75.3571C16.4181 75.3571 16.4715 75.3964 16.5293 75.4487C18.2373 75.1914 22.9389 73.6959 21.6668 66.0436V66.0392Z" fill="#6B69AF"/>
<path d="M66.1786 68.9301C67.6376 70.2687 72.4771 69.5449 76.1245 68.1016C76.9741 67.7659 78.0372 67.2906 79.2115 66.6366C78.4464 66.6017 73.6381 66.0959 74.7501 59.0802C74.799 58.7663 78.6955 62.7036 79.3049 66.5842C80.8751 65.7035 82.4764 64.6614 84.8917 62.3853C85.4477 61.8621 87.2803 59.7691 88.3345 58.0948C87.6139 57.7591 84.3579 56.0149 82.5075 51.3451C82.3919 51.0529 88.0721 52.8014 88.459 57.8898C89.402 56.355 90.2294 54.624 90.8743 52.6619L90.8521 52.6531C90.8743 52.5965 90.8921 52.5441 90.9055 52.4875C90.9144 52.4569 90.9233 52.4221 90.9277 52.3872C90.9277 52.4133 90.9322 52.4395 90.9366 52.47C91.328 51.2535 91.6483 49.9498 91.8796 48.5589C91.5638 48.2318 90.4829 46.7319 91.4748 41.9574C91.5371 41.6653 93.1606 44.1593 92.1732 47.9223C91.9463 49.492 91.6083 50.9527 91.1901 52.3087C95.696 48.8118 97.7288 52.3087 97.7288 52.3087C95.1845 53.3246 91.5638 52.6357 91.159 52.4046C90.5007 54.4888 89.6378 56.3245 88.6548 57.9378C88.6503 57.9378 88.3167 58.4741 88.2589 58.5657C87.1913 60.2008 85.9948 61.5961 84.7627 62.7821V62.7952C84.7627 62.7952 84.7627 62.7952 84.7493 62.7952C84.7004 62.8388 84.6559 62.8867 84.607 62.9303C90.007 61.7269 93.3964 63.8504 93.3964 63.8504C89.3798 66.4186 85.074 63.8373 84.3624 63.1614C83.0146 64.3997 81.6401 65.3939 80.3547 66.1875C80.0967 66.2921 79.8565 66.4447 79.6385 66.6191C78.3263 67.3691 77.1342 67.9098 76.2002 68.276C73.5091 69.3399 71.0359 69.8065 69.1677 69.8196C67.6865 69.8283 66.5834 69.5536 66.0497 69.0652L66.1831 68.9257L66.1786 68.9301Z" fill="#F5AA61"/>
<path d="M79.7453 66.6802C79.8699 66.6148 80.0033 66.545 80.1501 66.545C80.248 66.545 80.2658 66.4273 80.2124 66.3793C80.2791 66.3357 80.3458 66.2877 80.4081 66.2398C80.417 66.2311 80.4259 66.2223 80.4303 66.2136C85.3455 65.5116 87.356 67.3037 87.356 67.3037C83.5929 69.4751 80.5238 67.5871 79.6475 66.7456C79.6831 66.7238 79.7142 66.7063 79.7498 66.6845L79.7453 66.6802Z" fill="#FCCCA3"/>
<path d="M85.8795 46.6273C85.7683 46.3482 90.3142 47.8351 90.9325 52.4744C90.9102 52.4831 90.8924 52.6052 90.8702 52.6663C90.0829 52.3261 87.5831 50.9309 85.875 46.6273H85.8795Z" fill="#FCCCA3"/>
<path d="M88.4146 58.3172C92.8671 54.6153 95.9096 57.7241 95.9096 57.7241C93.3297 58.9973 89.2508 58.8186 88.2589 58.57C88.2589 58.57 88.4101 58.3433 88.4101 58.3215L88.4146 58.3172Z" fill="#FCCCA3"/>
<path d="M80.1988 55.2388C80.2478 54.9379 83.7306 59.0104 84.5357 62.7516C84.509 62.7516 84.4645 62.7864 84.4201 62.8257C83.0367 62.6251 79.2203 61.4435 80.2033 55.2388H80.1988Z" fill="#FCCCA3"/>
<path d="M98.8453 63.9419H68.2248C67.0211 63.9419 66.0453 64.8985 66.0453 66.0785V83.1926C66.0453 84.3725 67.0211 85.3291 68.2248 85.3291H98.8453C100.049 85.3291 101.025 84.3725 101.025 83.1926V66.0785C101.025 64.8985 100.049 63.9419 98.8453 63.9419Z" fill="#6C6AAF"/>
<path d="M95.4734 64.0335H64.8529C63.6492 64.0335 62.6734 64.99 62.6734 66.17V83.2841C62.6734 84.4641 63.6492 85.4206 64.8529 85.4206H95.4734C96.6772 85.4206 97.653 84.4641 97.653 83.2841V66.17C97.653 64.99 96.6772 64.0335 95.4734 64.0335Z" fill="#9D97CA"/>
<path d="M81.9026 70.1422H76.5205C73.0821 70.1422 70.2842 67.3996 70.2842 64.0291C70.2842 60.6586 73.0821 57.916 76.5205 57.916H81.9026C85.341 57.916 88.1388 60.6586 88.1388 64.0291C88.1388 67.3996 85.341 70.1422 81.9026 70.1422ZM76.5205 60.5235C74.5455 60.5235 72.9397 62.0975 72.9397 64.0291C72.9397 65.9607 74.5455 67.5391 76.5205 67.5391H81.9026C83.8776 67.5391 85.4833 65.9651 85.4833 64.0291C85.4833 62.0931 83.8776 60.5235 81.9026 60.5235H76.5205Z" fill="#9D97CA"/>
<path d="M62.6734 68.2935C62.6734 65.891 64.6617 63.9419 67.1125 63.9419H94.9085C97.3594 63.9419 97.8042 65.6686 97.653 68.2935H62.6734Z" fill="#BEBADD"/>
<path d="M84.9763 74.69H81.2666V71.6291C81.2666 71.0317 80.7729 70.5477 80.1635 70.5477C79.5541 70.5477 79.0604 71.0317 79.0604 71.6291V74.69H75.3507C74.7413 74.69 74.2476 75.174 74.2476 75.7713C74.2476 76.3687 74.7413 76.8527 75.3507 76.8527H79.0604V81.0691C79.0604 81.6664 79.5541 82.1504 80.1635 82.1504C80.7729 82.1504 81.2666 81.6664 81.2666 81.0691V76.8527H84.9763C85.5857 76.8527 86.0794 76.3687 86.0794 75.7713C86.0794 75.174 85.5857 74.69 84.9763 74.69Z" fill="white"/>
<path d="M64.653 0.674305H30.8832C27.5693 0.674305 24.8828 3.30777 24.8828 6.55631V79.4994C24.8828 82.7479 27.5693 85.3814 30.8832 85.3814H64.653C67.9669 85.3814 70.6534 82.7479 70.6534 79.4994V6.55631C70.6534 3.30777 67.9669 0.674305 64.653 0.674305Z" fill="#3F6B68"/>
<path d="M57.2154 5.06946H38.5958C37.4882 5.06946 36.5942 4.18868 36.5942 3.10733V1.81671H59.2171V3.10733C59.2171 4.19304 58.3185 5.06946 57.2154 5.06946Z" fill="#2F5350"/>
<path d="M95.4693 15.0545C94.8376 9.02423 83.7264 7.35424 73.0821 8.59256C62.4379 9.83087 62.0242 12.1942 62.3 19.3145C62.389 21.6516 63.0473 23.5047 64.1059 24.9654C63.4521 27.1542 60.8277 27.6034 61.1924 27.9478C63.0695 29.7137 66.3744 28.0917 67.1707 27.6601C72.3082 30.6163 80.4481 30.1847 86.324 29.3736C94.1304 28.2923 96.1632 21.669 95.4693 15.0589V15.0545Z" fill="#6C6DB2"/>
<path d="M74.2117 18.8828C74.2117 19.4933 73.7046 19.9903 73.0818 19.9903C72.4591 19.9903 71.952 19.4933 71.952 18.8828C71.952 18.2724 72.4591 17.7753 73.0818 17.7753C73.7046 17.7753 74.2117 18.2724 74.2117 18.8828Z" fill="white"/>
<path d="M79.7895 18.8828C79.7895 19.4933 79.2824 19.9903 78.6597 19.9903C78.0369 19.9903 77.5299 19.4933 77.5299 18.8828C77.5299 18.2724 78.0369 17.7753 78.6597 17.7753C79.2824 17.7753 79.7895 18.2724 79.7895 18.8828Z" fill="white"/>
<path d="M85.1587 18.8828C85.1587 19.4933 84.6516 19.9903 84.0289 19.9903C83.4061 19.9903 82.8991 19.4933 82.8991 18.8828C82.8991 18.2724 83.4061 17.7753 84.0289 17.7753C84.6516 17.7753 85.1587 18.2724 85.1587 18.8828Z" fill="white"/>
<path d="M44.1916 35.3821C44.3073 35.2077 48.6308 37.3355 53.4881 34.5493C58.3454 31.7675 55.5075 61.0642 55.5075 61.0642L55.1116 76.2728L54.5601 83.6155H42.4569L39.9748 60.5017C39.9748 60.5017 42.5058 38.0026 44.1916 35.3778V35.3821Z" fill="#64C5BB"/>
<path d="M66.0539 39.7031C64.0745 38.0375 54.9737 34.6539 54.9737 34.6539L53.4881 37.257C53.4881 37.257 53.9685 69.5318 53.7194 76.1768V83.6155H64.8218L64.8796 66.811C68.0911 66.0131 70.5598 64.6832 71.9164 63.2268C73.4555 61.5743 73.8291 60.6412 73.8291 58.4436C73.8291 56.246 68.0288 41.3688 66.0494 39.6988L66.0539 39.7031Z" fill="white"/>
<path d="M43.1911 63.7762C43.2934 63.6105 43.3512 63.519 43.3512 63.519V34.9417C43.3512 34.9417 34.2505 38.3253 32.2711 39.9909C30.2917 41.6565 24.5448 57.0658 24.487 59.2633C24.269 67.9795 32.0042 78.9761 32.0042 78.9761C32.0042 78.9761 32.2666 78.8671 32.7248 78.5488C32.5735 80.5807 32.3156 83.6155 32.3156 83.6155H44.3832C44.3832 83.6155 44.4232 74.5854 44.3832 74.1711C44.3609 73.927 43.7115 68.3022 43.1866 63.7762H43.1911Z" fill="white"/>
<path d="M62.553 55.9975L60.5202 57.1791C60.4757 57.2053 60.4179 57.2053 60.369 57.1791L58.2206 55.9931C58.1716 55.967 58.1449 55.919 58.1449 55.8623V51.4454C58.1449 51.3625 58.2117 51.2971 58.2962 51.2971H62.4774C62.5619 51.2971 62.6286 51.3625 62.6286 51.4454V55.8623C62.6286 55.9147 62.6019 55.9626 62.553 55.9888V55.9975Z" fill="#D5E0EC"/>
<path d="M62.553 55.9975L60.5202 57.1791C60.4757 57.2053 60.4179 57.2053 60.369 57.1791L58.2206 55.9931C58.1716 55.967 58.1449 55.919 58.1449 55.8623V52.3392C58.1449 52.2564 58.2117 52.191 58.2962 52.191H62.4774C62.5619 52.191 62.6286 52.2564 62.6286 52.3392V55.8667C62.6286 55.919 62.6019 55.967 62.553 55.9931V55.9975Z" fill="#BBDAF3"/>
<g opacity="0.5">
<path d="M53.7193 76.4646V32.1686C53.7193 32.1686 54.1018 32.8575 55.4985 34.2441C57.2466 35.9838 58.7456 38.6043 58.7456 38.6043L55.5875 38.007L59.6886 42.0533L56.6016 59.8345L54.4176 60.1528L55.801 64.4564L53.7193 76.4646Z" fill="#8DA5D5"/>
</g>
<g opacity="0.5">
<path d="M41.9634 34.2223C40.2153 35.962 38.7163 38.5826 38.7163 38.5826L41.8744 37.9852L37.7733 42.0315L44.392 75.5664L43.747 32.1468C43.747 32.1468 43.3645 32.8357 41.9678 34.2223H41.9634Z" fill="#8DA5D5"/>
</g>
<path d="M53.7195 74.6115L53.0345 31.8285C53.0345 31.8285 53.7462 32.125 55.1429 33.5159C56.891 35.2557 58.0608 38.2642 58.0608 38.2642L54.9027 37.6669L59.0038 41.7132L56.0636 60.0089L54.5557 60.349L55.6589 62.5205L53.715 74.6115H53.7195Z" fill="white"/>
<path d="M44.3873 74.1712V31.8241C44.3873 31.8241 43.6756 32.1206 42.2789 33.5116C40.5308 35.2513 39.3609 38.2599 39.3609 38.2599L42.5191 37.6625L38.418 41.7089L44.3917 74.1712H44.3873Z" fill="white"/>
<path d="M49.2984 77.6288C46.5451 77.6288 44.4367 77.2233 44.4055 77.2146V76.9661C44.4545 76.9748 49.2495 77.9035 53.7198 76.953V77.2015C52.2074 77.5242 50.6862 77.6245 49.2984 77.6245V77.6288Z" fill="#38A493"/>
<path d="M48.6886 39.302C46.2022 39.302 44.414 38.4517 44.3874 38.4343V38.1334C44.4318 38.1552 48.8354 40.2046 53.1323 37.9459V38.2381C51.571 39.0622 50.0587 39.2976 48.6886 39.2976V39.302Z" fill="#38A493"/>
<path opacity="0.5" d="M28.499 59.2808C28.499 59.2808 31.7861 59.8999 33.4942 61.5743C33.4942 61.5743 29.2374 59.4857 28.499 59.2808Z" fill="#8DA5D5"/>
<path d="M37.2083 73.6348L37.8977 74.4545C37.8977 74.4545 36.5099 77.7814 34.9709 79.5343L33.721 77.8337C33.721 77.8337 35.6426 76.3992 37.2038 73.6348H37.2083Z" fill="#FCCBA9"/>
<path opacity="0.5" d="M32.3866 59.2808C32.4666 59.4116 33.5698 60.4406 33.939 61.4435L32.2042 59.5119L32.3866 59.2808Z" fill="#8DA5D5"/>
<path opacity="0.5" d="M35.8829 48.0967C35.874 47.9441 34.8732 60.9115 34.4462 62.6077L37.7689 72.5753C37.7689 72.5753 36.0119 76.4646 32.7292 78.5532C32.7292 78.5532 34.8332 78.2436 38.1425 73.7613C38.1425 73.7613 36.4878 78.4006 34.1482 80.3584C34.1482 80.3584 37.8267 78.2218 38.9076 71.725L35.4381 62.6077C35.4381 62.6077 36.043 50.9832 35.8829 48.0967Z" fill="#8DA5D5"/>
<path opacity="0.5" d="M64.8799 66.811L63.2786 67.2645L63.5232 68.6685L64.8799 68.1583V66.811Z" fill="#8DA5D5"/>
<path opacity="0.5" d="M64.4971 57.0788L63.2783 47.3118L63.6564 57.3884C59.5731 58.9058 55.1784 60.724 55.1784 60.724C55.1784 60.724 57.5136 60.1354 60.3827 59.3854C63.2517 58.6355 68.5849 55.701 68.5849 55.701C67.4996 56.015 66.045 56.5164 64.4971 57.0832V57.0788Z" fill="#8DA5D5"/>
<path opacity="0.1" d="M70.1372 47.556C70.1372 47.556 72.7082 54.3362 72.7349 58.7401C72.7438 60.3752 71.7919 61.7312 71.1069 62.2196C64.417 66.9854 56.1659 67.1554 56.1659 67.1554C56.1659 67.1554 56.0991 68.2455 55.939 68.4548C55.939 68.4548 70.542 67.5086 73.3354 61.3083C73.3354 61.3083 73.9715 60.3185 73.8247 58.7663C73.5534 55.8405 71.8942 51.7331 70.1372 47.556Z" fill="#8DA5D5"/>
<path opacity="0.1" d="M29.4687 45.0663C29.571 44.8047 25.3053 55.4524 25.3454 59.2808C25.4254 67.3255 31.4837 77.4675 32.7336 78.5532L32.013 78.9805C32.013 78.9805 23.9709 67.2688 24.4958 59.2677C24.5981 57.6849 24.7982 56.9873 29.4732 45.0663H29.4687Z" fill="#8DA5D5"/>
<path d="M55.979 68.3894C56.4505 63.6759 55.0672 60.7676 55.2318 60.6979C56.793 60.0089 60.6762 58.5134 63.7987 57.323L63.9322 50.3771L47.9636 49.7449L47.5989 72.8674L63.5096 72.2308L63.6075 67.186C59.6754 68.0842 55.979 68.3894 55.979 68.3894Z" fill="#AE376D"/>
<path d="M58.5635 50.1634L58.5724 49.8844L54.24 49.6402L54.2355 49.9934L58.5635 50.1634Z" fill="#A0B4BE"/>
<path d="M54.7912 50.46C54.7912 50.5079 54.7512 50.5472 54.7023 50.5472C54.6533 50.5472 54.6133 50.5079 54.6133 50.46C54.6133 50.412 54.6533 50.3727 54.7023 50.3727C54.7512 50.3727 54.7912 50.412 54.7912 50.46Z" fill="#A0B4BE"/>
<path d="M58.2264 50.6038C58.2264 50.6344 58.1995 50.6562 58.1725 50.6562C58.1456 50.6562 58.1186 50.63 58.1186 50.6038C58.1186 50.5777 58.1456 50.5515 58.1725 50.5515C58.1995 50.5515 58.2264 50.5777 58.2264 50.6038Z" fill="#A0B4BE"/>
<path d="M55.6947 26.2517C55.241 27.8606 54.4359 29.0902 54.0889 28.9943C54.0889 28.9943 54.3336 27.9696 54.6627 26.3345C55.0408 24.4334 55.0986 23.0948 55.8904 23.1689C56.2507 23.2038 56.1528 24.6427 55.6991 26.2517H55.6947Z" fill="#EFB990"/>
<g opacity="0.6">
<path d="M55.0853 25.5889C54.6716 27.2066 54.4359 29.0946 54.0889 28.9986C54.0889 28.9986 54.4359 27.538 54.765 25.9029C55.1431 24.0018 55.1075 23.3477 55.8993 23.4175C55.8993 23.4175 55.5924 23.6224 55.0897 25.5889H55.0853Z" fill="#D68B63"/>
</g>
<path d="M41.7856 26.2517C42.2393 27.8606 42.9955 29.0989 43.3424 29.0074C43.3424 29.0074 42.9732 27.6818 42.7508 26.2866C42.4484 24.3724 42.3861 23.0992 41.5899 23.1689C41.2296 23.2038 41.3274 24.6427 41.7811 26.2517H41.7856Z" fill="#EFB990"/>
<g opacity="0.6">
<path d="M42.15 25.4145C42.5637 27.0321 42.9951 29.1033 43.3421 29.0117C43.3421 29.0117 42.9729 27.3461 42.6437 25.711C42.2657 23.8099 42.3235 23.3608 41.5317 23.4349C41.5317 23.4349 41.6429 23.4524 42.1456 25.4188L42.15 25.4145Z" fill="#D68B63"/>
</g>
<path d="M53.0923 35.5957C53.0923 35.5957 52.4918 37.148 48.7065 37.148C44.9212 37.148 44.383 35.6873 44.383 35.6873V30.9738H53.03L53.0923 35.5957Z" fill="#EFB990"/>
<g opacity="0.6">
<path d="M53.0389 32.1686C52.2605 33.7688 49.2046 35.0246 48.7109 35.0246C48.2171 35.0246 45.6239 34.0609 44.3874 32.1947V29.7355H53.0344V32.1686H53.0389Z" fill="#D68B63"/>
</g>
<path d="M54.0843 28.9986C52.6432 33.6423 48.7066 33.7208 48.7066 33.7208C48.7066 33.7208 44.5521 33.7121 43.3067 28.8896C42.4882 25.711 40.5177 20.8406 42.8796 17.2303C44.2185 15.1896 53.9464 14.3699 55.0896 17.2303C56.2372 20.0906 54.925 26.2778 54.0799 29.003L54.0843 28.9986Z" fill="#FCCBA9"/>
<path d="M50.8241 28.8243C50.9842 28.9551 50.4904 30.6338 48.7112 30.6512C47.1989 30.6687 46.4427 29.1469 46.5806 28.9202C46.7496 28.6411 47.3501 28.8286 48.6489 28.8286C49.9478 28.8286 50.6506 28.6848 50.8196 28.8286L50.8241 28.8243Z" fill="white"/>
<path d="M48.6933 30.7384C47.728 30.7384 47.0208 30.1193 46.6783 29.5394C46.5404 29.3083 46.4248 29.0117 46.5093 28.8722C46.6472 28.6411 46.9719 28.6629 47.559 28.6978C47.8526 28.7152 48.2129 28.737 48.6577 28.737C49.187 28.737 49.614 28.7109 49.9565 28.6935C50.4903 28.6629 50.7616 28.6498 50.8906 28.7545C51.0107 28.8548 50.9173 29.16 50.8728 29.2864C50.7839 29.5263 50.2723 30.721 48.7244 30.7384H48.7022H48.6933ZM47.0564 28.8504C46.8429 28.8504 46.7094 28.8766 46.6605 28.9594C46.6427 28.9987 46.6783 29.2254 46.8874 29.5394C47.0475 29.7792 47.6391 30.564 48.6933 30.564H48.7155C49.743 30.5553 50.2768 29.9667 50.5036 29.6178C50.7305 29.269 50.7883 28.9551 50.7661 28.8853C50.6816 28.8286 50.3613 28.8461 49.9654 28.8722C49.6229 28.8897 49.1959 28.9158 48.6577 28.9158C48.2084 28.9158 47.8437 28.894 47.5501 28.8766C47.3589 28.8635 47.1943 28.8548 47.0653 28.8548L47.0564 28.8504Z" fill="#D1956D"/>
<path d="M48.7156 27.4072C48.5065 27.2589 48.1818 26.9319 48.3731 26.3868C48.5332 25.9159 48.5554 25.0134 48.5554 25.0046H48.7334C48.7334 25.0482 48.7111 25.9464 48.5376 26.4392C48.3953 26.8577 48.6088 27.1194 48.8179 27.2633L48.7156 27.4028V27.4072Z" fill="#D68B63"/>
<path d="M55.5433 62.0103L53.9109 62.2545C51.8292 62.4333 51.0597 60.8592 49.2182 61.0903C47.3811 61.3214 47.5991 62.0408 47.5991 62.0408C46.3803 62.0714 46.7006 63.7283 46.7006 63.7283C46.1223 64.5698 46.7228 65.5378 46.7228 65.5378C46.3047 66.1177 46.8607 66.9985 46.8607 66.9985C47.0164 67.9577 48.204 68.7469 49.4762 68.8777C49.5206 68.8821 49.5607 68.8865 49.6052 68.8865C49.6496 68.8865 49.6941 68.8908 49.7431 68.8952C49.792 68.8952 49.8409 68.8952 49.8898 68.8952C49.9566 68.8952 50.0233 68.8952 50.09 68.8865H50.1122C50.1701 68.8777 50.2279 68.8777 50.2857 68.869C51.8248 68.6641 56.0638 66.981 56.0638 66.981C56.1305 63.737 55.5389 62.0059 55.5389 62.0059L55.5433 62.0103Z" fill="#FCCBA9"/>
<path d="M47.6034 62.0365C47.6034 62.0365 48.6576 62.2414 49.2314 62.2763C49.8008 62.3155 51.1307 62.5292 51.4421 62.6033C51.4421 62.6033 49.7252 62.4638 49.2225 62.4333C48.84 62.4115 47.4477 62.0496 47.6079 62.0365H47.6034Z" fill="#D68B63"/>
<path d="M47.9326 64.1817C47.9326 64.1817 47.1587 63.8721 46.9318 63.5669C46.705 63.2661 46.6961 62.9216 46.6916 62.9434C46.6249 63.2355 46.7094 63.7239 46.7094 63.7239L47.9371 64.1817H47.9326Z" fill="#D68B63"/>
<path d="M47.9639 65.9869C47.9639 65.9869 47.2255 65.6642 46.9275 65.4331C46.5894 65.1715 46.4693 64.766 46.4738 64.7878C46.5138 65.1846 46.7362 65.529 46.7362 65.529L47.9639 65.9869Z" fill="#D68B63"/>
<path d="M48.1015 67.452C48.1015 67.452 47.3631 67.1293 47.0651 66.8982C46.727 66.6366 46.5758 66.1831 46.5802 66.2049C46.6203 66.6017 46.8738 66.9941 46.8738 66.9941L48.1015 67.452Z" fill="#D68B63"/>
<path d="M47.7546 61.6135C47.7546 61.6135 47.5678 62.0365 47.9059 62.0932L47.9592 62.1673L47.6034 62.0365C47.6034 62.0365 47.5723 61.7967 47.7546 61.6135Z" fill="#D68B63"/>
<g opacity="0.1">
<path d="M41.9191 42.3934L41.9947 37.7628L41.5988 37.8369L41.5232 42.4196C39.3837 42.7771 38.9567 46.5052 38.8811 51.2535V51.5195C38.8766 52.4875 39.4015 52.7316 40.0732 52.8319C40.3178 52.8712 40.5758 52.8843 40.8115 52.8886C40.8738 53.0281 41.0161 53.1241 41.1807 53.1241C41.4031 53.1241 41.5855 52.9453 41.5855 52.7273V52.4046C41.5855 52.1866 41.4031 52.0078 41.1807 52.0078C40.9761 52.0078 40.816 52.1561 40.7893 52.3479C40.2555 52.3218 39.5928 52.2084 39.3793 51.8203C39.1702 51.441 39.2903 50.6343 39.3081 50.0937C39.4504 45.9383 39.9086 42.7815 41.8746 42.7815C43.8407 42.7815 44.757 45.9296 44.8993 50.0762C44.9171 50.5951 45.0105 51.3582 44.8103 51.7462C44.6324 52.0994 44.1476 52.252 43.6672 52.3174C43.6138 52.1299 43.4314 52.0035 43.2313 52.0296C43.0089 52.0558 42.8532 52.252 42.8799 52.47L42.9199 52.7927C42.9466 53.0107 43.1468 53.1633 43.3692 53.1372C43.5382 53.1154 43.6672 52.9976 43.7117 52.845C44.4812 52.7403 45.353 52.4046 45.3263 51.4148V51.0268C45.3263 51.0268 45.3263 51.0137 45.3263 51.0093C45.2285 46.152 44.2632 42.4283 41.9191 42.3803V42.3934Z" fill="#1F3566"/>
<path d="M61.0812 46.1389C60.6809 36.9649 56.3396 34.8807 56.1527 34.7935C56.1527 34.7935 56.4063 34.9897 57.4916 36.4678C58.6259 38.007 60.3873 40.7801 60.623 46.1476C59.6845 46.2784 58.9639 47.0633 58.9639 48.0182C58.9639 49.0603 59.8268 49.9062 60.8899 49.9062C61.953 49.9062 62.8159 49.0603 62.8159 48.0182C62.8159 47.0371 62.0509 46.2304 61.0723 46.1389H61.0812Z" fill="#1F3566"/>
<path d="M63.5899 67.1816L63.5098 72.2657L49.0847 72.8064L49.0625 74.5941L64.4973 73.9531V66.9636L63.5899 67.1816Z" fill="#1F3566"/>
</g>
<path d="M44.7793 50.5428C44.6814 45.6549 43.9341 41.9443 41.5544 41.9443C39.1747 41.9443 38.4096 45.777 38.334 50.7782V51.0442C38.3296 52.0122 38.8545 52.2564 39.5261 52.3567C39.7708 52.3959 40.0287 52.409 40.2645 52.4133C40.3268 52.5529 40.4691 52.6488 40.6337 52.6488C40.8561 52.6488 41.0385 52.47 41.0385 52.252V51.9294C41.0385 51.7113 40.8561 51.5326 40.6337 51.5326C40.4291 51.5326 40.2689 51.6808 40.2423 51.8727C39.7085 51.8465 39.0457 51.7331 38.8322 51.3451C38.6232 50.9657 38.7433 50.1591 38.761 49.6184C38.9034 45.4631 39.5928 42.3411 41.5589 42.3411C43.5249 42.3411 44.2099 45.4543 44.3567 49.601C44.3745 50.1198 44.4679 50.8829 44.2678 51.271C44.0898 51.6241 43.605 51.7767 43.1246 51.8421C43.0712 51.6547 42.8889 51.5282 42.6887 51.5544C42.4663 51.5805 42.3106 51.7768 42.3373 51.9948L42.3773 52.3174C42.404 52.5354 42.6042 52.688 42.8266 52.6619C42.9956 52.6401 43.1246 52.5224 43.1691 52.3698C43.9386 52.2651 44.8104 51.9293 44.7837 50.9396V50.5515C44.7837 50.5515 44.7837 50.5384 44.7837 50.5341L44.7793 50.5428Z" fill="#393F48"/>
<path d="M41.5987 42.1493H41.2028V37.9154L41.5987 37.8413V42.1493Z" fill="#393F48"/>
<path d="M59.6316 45.0663C59.4269 39.5723 57.6388 36.7556 56.4912 35.199C55.4014 33.7208 55.1523 33.5246 55.1523 33.5246C55.3392 33.6118 59.7428 35.7178 60.0897 45.0488L59.636 45.0663H59.6316Z" fill="#393F48"/>
<path d="M59.8844 45.1665C59.5775 39.4502 58.1852 36.9474 57.0376 35.3908C55.9479 33.9127 55.1383 33.5115 55.1383 33.5115C55.3251 33.5987 59.7332 35.8792 60.0801 45.2145L59.88 45.1665H59.8844Z" fill="#192026"/>
<path d="M61.8199 46.745C61.8199 47.7871 60.957 48.633 59.8939 48.633C58.8308 48.633 57.9679 47.7871 57.9679 46.745C57.9679 45.7029 58.8308 44.857 59.8939 44.857C60.957 44.857 61.8199 45.7029 61.8199 46.745Z" fill="#BBBBBB"/>
<path d="M59.8888 48.6897C58.7946 48.6897 57.905 47.8176 57.905 46.745C57.905 45.6723 58.7946 44.8003 59.8888 44.8003C60.9831 44.8003 61.8727 45.6723 61.8727 46.745C61.8727 47.8176 60.9831 48.6897 59.8888 48.6897ZM59.8888 44.9093C58.8569 44.9093 58.0162 45.7334 58.0162 46.745C58.0162 47.7566 58.8569 48.5807 59.8888 48.5807C60.9208 48.5807 61.7615 47.7566 61.7615 46.745C61.7615 45.7334 60.9208 44.9093 59.8888 44.9093Z" fill="#444445"/>
<g opacity="0.3">
<path d="M60.8458 48.4542L60.3609 47.4513L60.7034 46.527L61.7665 46.0822C61.7665 46.0822 62.3892 47.4208 60.8458 48.4586V48.4542Z" fill="white"/>
</g>
<path d="M60.7562 46.8845C60.7562 47.3772 60.3692 47.7784 59.8888 47.7784C59.4084 47.7784 59.0214 47.3772 59.0214 46.8845C59.0214 46.3918 59.4084 45.9907 59.8888 45.9907C60.3692 45.9907 60.7562 46.3918 60.7562 46.8845Z" fill="#645C53"/>
<g opacity="0.4">
<path d="M59.5869 44.7916L59.6936 45.9383L59.0442 46.6883L57.8877 46.745C57.8877 46.745 57.772 45.2407 59.5869 44.7872V44.7916Z" fill="white"/>
</g>
<path d="M60.6582 46.745C60.6582 47.1636 60.3113 47.4993 59.8887 47.4993C59.4661 47.4993 59.1192 47.1592 59.1192 46.745C59.1192 46.3307 59.4661 45.9907 59.8887 45.9907C60.3113 45.9907 60.6582 46.3307 60.6582 46.745Z" fill="#D2D2D2"/>
<path d="M59.8889 47.556C59.4352 47.556 59.0615 47.1941 59.0615 46.745C59.0615 46.2959 59.4307 45.934 59.8889 45.934C60.347 45.934 60.7162 46.2959 60.7162 46.745C60.7162 47.1941 60.347 47.556 59.8889 47.556ZM59.8889 46.0474C59.493 46.0474 59.1727 46.3613 59.1727 46.7494C59.1727 47.1374 59.493 47.4514 59.8889 47.4514C60.2848 47.4514 60.605 47.1374 60.605 46.7494C60.605 46.3613 60.2848 46.0474 59.8889 46.0474Z" fill="#A6A49E"/>
<path d="M60.1915 46.8366C60.1915 47.0022 60.058 47.133 59.889 47.133C59.72 47.133 59.5865 47.0022 59.5865 46.8366C59.5865 46.6709 59.72 46.5401 59.889 46.5401C60.058 46.5401 60.1915 46.6709 60.1915 46.8366Z" fill="#B9B9BA"/>
<path d="M59.889 47.0415C60.0561 47.0415 60.1915 46.9087 60.1915 46.745C60.1915 46.5812 60.0561 46.4485 59.889 46.4485C59.722 46.4485 59.5865 46.5812 59.5865 46.745C59.5865 46.9087 59.722 47.0415 59.889 47.0415Z" fill="white"/>
<path d="M40.682 51.707H40.4107C40.3935 51.707 40.3796 51.7206 40.3796 51.7375V52.4395C40.3796 52.4564 40.3935 52.47 40.4107 52.47H40.682C40.6992 52.47 40.7132 52.4564 40.7132 52.4395V51.7375C40.7132 51.7206 40.6992 51.707 40.682 51.707Z" fill="#AAA9A2"/>
<path d="M42.8967 51.6849L42.6265 51.71C42.6094 51.7116 42.5968 51.7265 42.5985 51.7432L42.666 52.4421C42.6676 52.4589 42.6828 52.4712 42.6999 52.4696L42.9701 52.4445C42.9872 52.443 42.9997 52.4281 42.9981 52.4113L42.9306 51.7124C42.929 51.6956 42.9138 51.6833 42.8967 51.6849Z" fill="#AAA9A2"/>
<g opacity="0.4">
<path d="M59.6935 46.0997C59.2487 46.2436 59.2175 46.6447 59.2175 46.6447L59.649 46.6752L59.7646 46.5619L59.6935 46.0953V46.0997Z" fill="white"/>
</g>
<g opacity="0.4">
<path d="M60.3028 47.2987C60.672 47.011 60.5563 46.6229 60.5563 46.6229L60.1382 46.7406L60.0715 46.8845L60.3028 47.2987Z" fill="white"/>
</g>
<path d="M42.4391 25.772C42.4391 25.772 41.6073 22.5411 41.4605 20.9103C41.3138 19.2796 41.1358 17.0864 43.0129 16.3408C44.89 15.5952 44.3118 17.8712 44.3118 17.8712C44.3118 17.8712 42.8305 18.8479 42.5325 21.2984C42.3724 22.6283 42.4436 25.772 42.4436 25.772H42.4391Z" fill="#2A455D"/>
<path d="M54.9072 25.7241C54.9072 25.7241 55.8324 22.5411 55.9791 20.9103C56.1259 19.2796 56.3038 17.0864 54.4268 16.3408C52.5497 15.5952 53.1279 17.8712 53.1279 17.8712C53.1279 17.8712 54.6091 18.8479 54.9072 21.2984C55.0673 22.6283 54.9072 25.7241 54.9072 25.7241Z" fill="#2A455D"/>
<path d="M53.3728 18.6561C53.3728 18.6561 51.0865 19.0136 49.5563 18.3073C49.1071 18.1023 46.932 19.0093 45.9312 18.8262C44.0185 18.4773 43.1778 16.9469 43.1378 16.7899C43.0266 16.3321 42.5684 15.6737 43.9518 14.6577C45.8644 13.2494 48.2264 13.5938 48.6222 13.1796C49.0181 12.7697 49.414 12.5168 50.1791 12.5909C52.2296 12.7915 52.3319 13.9731 53.484 14.1476C54.9874 14.3787 55.4901 14.9717 55.5879 16.2056C55.7747 18.5558 53.3639 18.6517 53.3639 18.6517L53.3728 18.6561Z" fill="#2A455D"/>
<path d="M49.0222 12.8656C49.0222 12.8656 48.3817 13.3191 46.7626 15.1591C45.1479 16.9992 44.3072 16.8858 44.1249 16.9207C44.1249 16.9207 45.5171 17.1561 46.9939 15.2551C48.4662 13.354 49.0222 12.8656 49.0222 12.8656Z" fill="#1D384C"/>
<path d="M51.5578 18.595C51.5578 18.595 54.2533 18.909 55.4276 17.5267C55.4276 17.5267 55.1785 18.97 51.6201 18.6168L51.5578 18.5907V18.595Z" fill="#1D384C"/>
<path d="M47.1275 18.6343C43.9516 19.0703 43.0397 16.5021 43.0575 16.5501C43.5557 18.1067 44.8234 18.7084 45.7442 18.9439C46.0244 19.018 46.3002 19.066 46.5715 19.0834C46.7227 19.0965 46.8117 19.0965 46.8117 19.0965H46.8162C49.8542 19.1227 52.3095 15.9745 52.3095 15.9745C50.2501 17.7143 48.4219 18.3901 47.1231 18.643L47.1275 18.6343Z" fill="#1D384C"/>
<path d="M46.7986 25.8113L47.8484 24.7823V25.8113H46.7986Z" fill="white"/>
<path d="M45.4508 25.8113L44.8992 25.2706V23.9495L45.949 22.9204H47.2967L47.8483 23.4611V24.7823L46.7986 25.8113H45.4508Z" fill="white"/>
<path d="M45.949 22.9204L44.8992 23.9495V22.9204H45.949Z" fill="white"/>
<path d="M51.5892 25.9029L52.639 24.8738V25.9029H51.5892Z" fill="white"/>
<path d="M50.2366 25.9029L49.6895 25.3622V24.041L50.7393 23.012H52.087L52.6386 23.5527V24.8739L51.5889 25.9029H50.2366Z" fill="white"/>
<path d="M50.7393 23.012L49.6895 24.041V23.012H50.7393Z" fill="white"/>
<path d="M52.5452 22.528C52.1583 22.2664 51.7179 22.1487 51.242 22.2184C51.0418 22.2489 50.8772 22.0658 50.9217 21.8696C50.9439 21.7737 51.0151 21.6909 51.113 21.6647C51.7668 21.4641 52.4251 21.5731 52.9278 22.0833C52.9945 22.153 53.0167 22.249 52.9945 22.3405V22.358C52.9456 22.5498 52.7143 22.6414 52.5452 22.528Z" fill="#2A455D"/>
<path d="M51.1666 24.8651C51.3533 24.8651 51.5046 24.6758 51.5046 24.4422C51.5046 24.2086 51.3533 24.0192 51.1666 24.0192C50.9799 24.0192 50.8285 24.2086 50.8285 24.4422C50.8285 24.6758 50.9799 24.8651 51.1666 24.8651Z" fill="#230E0A"/>
<path d="M46.3757 23.9843C46.1888 23.9843 46.0376 24.1762 46.0376 24.4073C46.0376 24.6384 46.1888 24.8302 46.3757 24.8302C46.5625 24.8302 46.7137 24.6384 46.7137 24.4073C46.7137 24.1762 46.5625 23.9843 46.3757 23.9843Z" fill="#230E0A"/>
<path d="M52.5231 24.0105C52.3363 23.448 51.8025 23.0338 51.162 23.0338C50.4459 23.0338 49.8543 23.5527 49.7475 24.2241C49.4984 23.9494 49.1381 23.7663 48.7289 23.7663C48.3597 23.7663 48.0261 23.9145 47.7815 24.1456C47.6569 23.4916 47.0742 22.9945 46.3714 22.9945C45.7353 22.9945 45.1971 23.4044 45.0103 23.9712C42.6261 23.1428 42.039 23.0338 41.8789 23.0643C41.8299 23.073 41.7899 23.1428 41.7855 23.182L41.91 23.23L41.9322 23.1995C42.1413 23.1777 43.6225 23.6486 44.9658 24.1151C44.9436 24.2067 44.9347 24.307 44.9347 24.4029C44.9347 25.179 45.5797 25.8113 46.3714 25.8113C46.9007 25.8113 47.3633 25.5235 47.6124 25.1005C47.6525 25.0962 47.6969 25.0788 47.7325 25.0613C47.7726 25.0395 47.8126 25.0133 47.8437 24.9785C47.906 24.9131 47.9416 24.8259 47.9549 24.7387C47.9861 24.5206 47.9327 24.3593 47.8704 24.2677C48.0884 24.0497 48.3908 23.9102 48.7289 23.9102C49.0981 23.9102 49.4228 24.0759 49.6452 24.3288C49.5918 24.4247 49.5518 24.5729 49.5785 24.7735C49.5918 24.8607 49.6274 24.9436 49.6897 25.0134C49.7208 25.0482 49.7608 25.0744 49.8009 25.0962C49.8365 25.1136 49.8809 25.1311 49.921 25.1354C50.1701 25.5584 50.6282 25.8462 51.162 25.8462C51.9537 25.8462 52.5987 25.2139 52.5987 24.4378C52.5987 24.3375 52.5854 24.2416 52.5676 24.15C53.9331 23.6747 55.4143 23.1951 55.5789 23.2344C55.5745 23.2344 55.7302 23.1733 55.7302 23.1733C55.6812 23.073 55.6189 22.9335 52.5186 24.0105H52.5231ZM46.3714 25.6674C45.6642 25.6674 45.0859 25.1049 45.0859 24.4073C45.0859 23.7096 45.6597 23.1471 46.3714 23.1471C47.0831 23.1471 47.6569 23.714 47.6569 24.4073C47.6569 25.1006 47.0831 25.6674 46.3714 25.6674ZM47.8037 24.8171C47.7904 24.8477 47.7681 24.8782 47.7414 24.9C47.7325 24.9087 47.7192 24.9131 47.7058 24.9218C47.7637 24.7735 47.7992 24.6166 47.8037 24.4509C47.817 24.477 47.8304 24.5032 47.8348 24.5337C47.8482 24.6253 47.8348 24.7299 47.8037 24.8171ZM49.792 24.9349C49.7653 24.9131 49.7475 24.8825 49.7297 24.852C49.6941 24.7648 49.6852 24.6602 49.6986 24.5686C49.6986 24.5381 49.7164 24.5119 49.7297 24.4858C49.7342 24.6514 49.7697 24.8084 49.8276 24.9567C49.8142 24.9479 49.8009 24.9436 49.792 24.9349ZM51.162 25.7023C50.4547 25.7023 49.8765 25.1398 49.8765 24.4422C49.8765 23.7445 50.4503 23.182 51.162 23.182C51.8737 23.182 52.4475 23.7445 52.4475 24.4422C52.4475 25.1398 51.8737 25.7023 51.162 25.7023Z" fill="#30241F"/>
<path d="M44.9922 22.4931C45.3792 22.2315 45.8195 22.1138 46.2955 22.1835C46.4956 22.2141 46.6602 22.0309 46.6157 21.8347C46.5935 21.7388 46.5223 21.656 46.4245 21.6298C45.7706 21.4292 45.1123 21.5382 44.6097 22.0484C44.5429 22.1181 44.5207 22.2141 44.5429 22.3056V22.3231C44.5919 22.5149 44.8232 22.6065 44.9922 22.4931Z" fill="#2A455D"/>
<path d="M38.7119 50.7259C38.7119 50.7259 38.3383 43.2655 40.9093 42.2932C41.4964 42.0708 42.048 42.206 42.4483 42.4152C43.8094 43.1172 44.1475 45.6724 44.2542 46.8322C44.3877 48.3365 44.5967 50.521 44.3254 51.1314C44.3254 51.1314 44.4233 47.6607 43.8272 45.1274C43.2356 42.594 42.1147 42.3193 41.403 42.3542C40.6869 42.3934 39.8551 43.1783 39.3925 44.7131C38.9299 46.2479 38.7119 50.7216 38.7119 50.7216V50.7259Z" fill="#192026"/>
<path d="M38.3428 51.2753C38.3428 51.2492 38.5207 51.9337 39.2057 52.0907C39.8907 52.2433 40.2465 51.8858 40.2465 51.8858C40.2465 51.8858 40.1976 52.3131 40.2732 52.4221C40.2732 52.4221 38.4051 52.6183 38.3472 51.2797L38.3428 51.2753Z" fill="#192026"/>
<path d="M44.7789 50.7652C44.7789 50.7652 44.8056 51.0704 44.6722 51.3364C44.432 51.8029 44.2185 51.8291 43.9649 51.9599C43.3467 52.2825 43.1287 51.8509 43.1287 51.8509C43.1287 51.8509 43.2132 52.2564 43.1687 52.3785C43.1687 52.3785 44.9213 52.3218 44.7834 50.7652H44.7789Z" fill="#192026"/>
<path d="M41.2028 37.9154L41.5987 37.8413L41.5764 38.0375L41.2028 38.1073V37.9154Z" fill="#192026"/>
</svg>
