<svg width="163" height="91" viewBox="0 0 163 91" fill="none" xmlns="http://www.w3.org/2000/svg">
<path opacity="0.5" d="M162.466 29.7655C161.972 31.6685 161.17 33.5469 160.123 35.3716C158.591 38.0523 156.534 40.6058 154.173 42.9197C150.624 46.3929 145.266 49.9639 145.952 54.6258C146.5 58.3387 150.936 61.1026 153.238 64.4633C156.182 68.7583 155.296 74.2078 151.123 77.955C150.94 78.1164 150.758 78.2778 150.562 78.4295C149.279 79.4665 147.747 80.3617 146.696 81.5211C144.198 84.2703 145.186 88.311 148.843 90.3215L64.0474 89.4508L9.17109 88.8882C12.7161 88.6485 15.9494 86.8434 17.0805 84.466C18.5279 81.4233 16.8534 79.5301 14.257 77.955C13.5712 77.5392 12.823 77.1429 12.0525 76.7565C10.5383 75.9982 8.93505 75.2645 7.54555 74.4426C7.32733 74.3106 7.11356 74.1785 6.90424 74.0464C5.97345 73.4398 5.17182 72.7598 4.48152 72.0212C3.80013 71.2923 3.22563 70.5145 2.7402 69.7025C2.35719 69.0714 2.02763 68.4208 1.73815 67.7653C1.58673 67.4277 1.44867 67.0853 1.31952 66.7429C-0.288203 62.4674 -0.55096 57.8838 1.226 53.6426C1.47985 53.0409 1.76933 52.4539 2.08998 51.8815C4.65966 47.3077 9.3804 43.4774 14.3951 40.0775C20.0332 36.257 25.8807 32.6517 27.3726 26.943C28.4682 22.7604 26.7625 18.2453 29.0605 14.3074C31.844 9.54272 39.7356 7.19464 47.0572 6.99897C54.3788 6.8033 61.5668 8.25617 68.8528 8.78449C74.9051 9.22475 82.2935 9.08289 87.2948 6.36303C89.2188 5.31618 90.8799 4.0492 92.7103 2.92408C99.1858 -1.05787 106.726 -0.260505 114.537 1.16302C123.333 2.76754 132.387 4.37695 140.96 6.49511C147.729 8.16812 154.352 10.7363 158.462 14.8504C162.715 19.1111 163.793 24.6634 162.466 29.7753V29.7655Z" fill="#3F6B68"/>
<path opacity="0.7" d="M128.763 65.8192C131.177 69.7914 130.522 74.8104 127.231 78.3472C127.084 78.5086 126.843 78.6016 126.594 78.6016H12.4233C12.2362 78.6016 12.0536 78.5477 11.9111 78.4548C10.0674 77.2318 7.72928 76.1948 5.96123 74.8984C3.49843 73.0934 2.1312 70.5398 1.27612 67.9765C-0.0732968 63.9261 -0.295973 59.5821 1.19596 55.561C1.35628 55.1354 1.52997 54.7148 1.72593 54.2989C1.84172 54.0544 2.13565 53.8929 2.46521 53.8929H7.35073C7.78717 53.8929 8.139 53.6141 8.139 53.2717V49.6321C8.139 49.2897 8.49083 49.0109 8.92728 49.0109H15.4695C15.9059 49.0109 16.2578 49.2897 16.2578 49.6321V51.5889C16.2578 51.9313 16.6096 52.2101 17.0461 52.2101H20.0433C20.4797 52.2101 20.8315 51.9313 20.8315 51.5889V44.5104C20.8315 44.168 21.1834 43.8891 21.6198 43.8891H27.1199C27.5564 43.8891 27.9082 44.168 27.9082 44.5104V47.4357C27.9082 47.7781 28.26 48.057 28.6965 48.057H30.8119C31.2483 48.057 31.6002 48.3358 31.6002 48.6782V50.3561C31.6002 50.6986 31.952 50.9774 32.3884 50.9774H42.2129C42.6494 50.9774 43.0012 50.6986 43.0012 50.3561V47.7292C43.0012 47.3868 43.353 47.108 43.7895 47.108H48.9466C49.3831 47.108 49.7349 47.3868 49.7349 47.7292V48.3896C49.7349 48.732 50.0868 49.0109 50.5232 49.0109H75.1334C75.5698 49.0109 75.9216 48.732 75.9216 48.3896V45.386C75.9216 45.0436 76.2735 44.7648 76.7099 44.7648H97.7306C98.167 44.7648 98.5188 44.4859 98.5188 44.1435V40.822C98.5188 40.4795 98.8707 40.2007 99.3071 40.2007H105.337C105.774 40.2007 106.125 40.4795 106.125 40.822V42.2112C106.125 42.5537 106.477 42.8325 106.914 42.8325H108.931C109.368 42.8325 109.719 43.1113 109.719 43.4538V45.1317C109.719 45.4741 110.071 45.7529 110.508 45.7529H111.055C111.492 45.7529 111.844 45.4741 111.844 45.1317V37.9211C111.844 37.5787 112.196 37.2998 112.632 37.2998H116.15C116.587 37.2998 116.939 37.5787 116.939 37.9211V40.2496C116.939 40.592 117.29 40.8709 117.727 40.8709H120.047C120.484 40.8709 120.835 41.1497 120.835 41.4921V43.082C120.835 43.4244 121.187 43.7032 121.624 43.7032H125.685C126.122 43.7032 126.474 43.4244 126.474 43.082V38.8701C126.474 38.5277 126.825 38.2488 127.262 38.2488H133.341C133.911 38.2488 134.29 38.7087 134.062 39.1196C132.838 41.3454 131.283 43.4635 129.529 45.4007C126.549 48.6929 122.051 52.0781 122.63 56.4954C123.089 60.0126 126.812 62.6346 128.745 65.8192H128.763Z" fill="url(#paint0_linear_1_12)"/>
<path d="M135.999 51.8411C136.814 53.1228 138.075 53.9348 139.513 54.2087C140.096 53.0005 139.869 51.5182 138.849 50.1779C137.825 48.8375 136.32 47.9521 134.948 47.7026C134.908 49.0625 135.184 50.5594 135.999 51.846V51.8411Z" fill="#225924"/>
<path d="M132.921 58.1416C133.362 59.3156 134.497 60.0983 135.976 60.3771C136.978 59.2912 137.312 57.9655 136.764 56.7572C136.212 55.5489 134.947 54.732 133.509 54.4629C132.787 55.6321 132.48 56.9626 132.925 58.1416H132.921Z" fill="#225924"/>
<path d="M128.183 63.979C128.517 65.1237 129.644 65.9015 131.127 66.1852C132.204 65.1188 132.739 63.8518 132.391 62.7023C132.048 61.5527 130.908 60.7749 129.43 60.4911C128.374 61.5625 127.844 62.8343 128.183 63.979Z" fill="#225924"/>
<path d="M123.596 69.8564C124.09 71.05 125.324 71.8522 126.776 72.1262C127.582 70.9815 127.956 69.6705 127.551 68.5013C127.145 67.3371 126.023 66.5593 124.54 66.2755C123.498 67.3517 123.101 68.6579 123.596 69.8515V69.8564Z" fill="#225924"/>
<path d="M120.973 76.2831C121.895 77.5941 123.351 78.4649 124.731 78.7192C124.914 77.3984 124.772 75.9407 124.041 74.6786C123.311 73.4214 122.082 72.6142 120.634 72.3403C119.953 73.5192 120.051 74.9672 120.973 76.2782V76.2831Z" fill="#225924"/>
<path d="M142.663 57.1695C141.14 57.7859 139.452 57.7663 138.143 57.2527C138.691 56.0346 139.701 54.9046 141.064 54.2393C142.427 53.574 143.919 53.5447 145.286 54.0681C145.157 55.4036 144.186 56.5483 142.663 57.1646V57.1695Z" fill="#225924"/>
<path d="M144.189 49.5683C142.889 50.0966 141.45 50.077 140.328 49.6416C140.796 48.6046 141.66 47.636 142.822 47.0685C143.984 46.5011 145.258 46.4766 146.425 46.9218C146.314 48.0616 145.485 49.0399 144.189 49.5683Z" fill="#225924"/>
<path d="M138.568 63.1833C136.8 63.7311 135.045 63.692 133.753 63.1833C134.555 62.0386 135.953 61.0162 137.659 60.4487C139.365 59.8813 141.048 59.9057 142.358 60.4145C141.712 61.6032 140.331 62.6305 138.563 63.1784L138.568 63.1833Z" fill="#225924"/>
<path d="M133.675 68.975C131.929 69.5278 130.219 69.5034 128.914 68.9946C129.627 67.8255 131.052 66.808 132.833 66.265C134.619 65.722 136.374 65.7611 137.665 66.265C136.85 67.4048 135.416 68.4174 133.671 68.975H133.675Z" fill="#225924"/>
<path d="M129.803 75.0481C128.342 75.6841 126.797 75.7036 125.443 75.1802C125.715 73.8839 126.81 72.7783 128.405 72.1766C130.003 71.5798 131.714 71.6092 133.018 72.1179C132.386 73.3115 131.259 74.4073 129.799 75.0481H129.803Z" fill="#225924"/>
<path d="M125.683 84.0335C125.554 83.9993 125.407 83.8525 125.354 83.7106C119.863 68.546 143.181 61.5604 139.667 46.9583C139.636 46.8214 139.707 46.7382 139.837 46.7773C139.966 46.8116 140.099 46.9534 140.131 47.0904C143.644 61.6925 120.326 68.6781 125.817 83.8427C125.866 83.9846 125.808 84.0726 125.679 84.0335H125.683Z" fill="#D5782A"/>
<path d="M140.091 44.5344C140.678 45.7035 140.656 46.995 140.171 48.0027C139.017 47.582 137.939 46.8042 137.312 45.7622C136.679 44.7154 136.652 43.5707 137.151 42.519C138.416 42.6168 139.503 43.3652 140.091 44.5295V44.5344Z" fill="#225924"/>
<path d="M134.4 76.2308C131.652 74.954 126.659 80.4133 128.485 77.2189C130.311 74.0245 136.542 71.8917 134.662 68.9566C132.783 66.0215 129.425 71.1628 128.12 68.4283C126.815 65.6889 132.52 61.9466 133.228 58.2582C133.932 54.5697 128.138 60.6894 128.708 56.6781C129.078 54.0708 127.755 52.1483 126.784 51.1259C126.267 50.5829 125.359 50.5095 124.744 50.9596C123.586 51.8107 121.899 53.4886 121.747 56.1155C121.511 60.1562 117.026 53.2 116.986 56.9423C116.946 60.6845 121.818 65.2877 119.988 67.7679C118.158 70.2529 115.877 64.6518 113.446 67.2396C111.014 69.8225 116.719 72.9239 117.881 76.3579C119.044 79.792 115.214 73.6185 112.257 74.4306C109.3 75.2426 114.043 87.9516 122.001 88.5973C129.959 89.243 137.152 77.4977 134.404 76.2259L134.4 76.2308Z" fill="#6D9C7F"/>
<path d="M125.371 55.2063C125.326 58.0093 125.17 60.8026 124.974 63.5909L124.903 64.6378L124.818 65.6846L124.649 67.7734L124.262 71.951C124.11 73.3403 123.972 74.7345 123.812 76.1238L123.563 78.2077L123.438 79.2496L123.3 80.2916C122.939 83.0702 122.538 85.8389 122.026 88.6077H121.959L123.598 71.9021L125.304 55.2063H125.371Z" fill="#593422"/>
<path d="M123.196 76.3959C122.523 75.9948 121.918 75.5399 121.339 75.0605C120.755 74.586 120.208 74.0821 119.678 73.5636C119.152 73.045 118.644 72.5069 118.168 71.9444C117.691 71.3818 117.237 70.7997 116.854 70.1637L116.894 70.1295L117.696 70.9024L118.493 71.6802L120.083 73.2309L121.659 74.7963L122.448 75.579L123.232 76.3666L123.191 76.4008L123.196 76.3959Z" fill="#593422"/>
<path d="M124.437 64.0155C123.898 63.6975 123.431 63.3257 122.99 62.9344C122.545 62.5479 122.135 62.1321 121.747 61.7016C121.36 61.2711 120.995 60.826 120.665 60.3515C120.331 59.8819 120.024 59.3927 119.788 58.8546L119.832 58.8252L120.425 59.4612L121.008 60.102L122.179 61.3837L123.333 62.68L123.912 63.3257L124.482 63.9763L124.437 64.0057V64.0155Z" fill="#593422"/>
<path d="M122.291 85.4366C121.618 85.0501 121.013 84.6099 120.434 84.1451C119.85 83.6853 119.298 83.1961 118.768 82.6923C118.238 82.1835 117.73 81.6601 117.254 81.1073C116.773 80.5594 116.319 79.9871 115.931 79.3609L115.971 79.3267L116.777 80.08L117.574 80.8383L119.169 82.3498L120.75 83.8761L121.543 84.6392L122.326 85.4072L122.286 85.4415L122.291 85.4366Z" fill="#593422"/>
<path d="M123.422 76.3796C123.925 75.8121 124.486 75.3131 125.07 74.8386C125.649 74.3592 126.254 73.9141 126.878 73.4885C127.501 73.0629 128.143 72.6569 128.811 72.2851C129.474 71.9084 130.16 71.5562 130.904 71.2676L130.94 71.3067L130.013 71.9574L129.082 72.5982L127.221 73.8847L125.346 75.1566L124.406 75.7926L123.462 76.4236L123.426 76.3845L123.422 76.3796Z" fill="#6D9C7F"/>
<path d="M124.664 63.9961C125.003 63.502 125.404 63.0715 125.822 62.6655C126.241 62.2546 126.686 61.873 127.154 61.511C127.621 61.1539 128.107 60.8115 128.623 60.4984C129.136 60.1853 129.67 59.8918 130.262 59.6668L130.298 59.7059L129.608 60.2538L128.913 60.7968L127.519 61.8828L126.112 62.959L125.408 63.4971L124.7 64.0303L124.664 63.9912V63.9961Z" fill="#593422"/>
<path d="M122.52 85.4164C123.023 84.8636 123.584 84.3745 124.167 83.9097C124.746 83.445 125.348 83.0096 125.971 82.5938C126.595 82.1829 127.231 81.7916 127.899 81.4296C128.563 81.0676 129.244 80.7252 129.984 80.4561L130.015 80.4952L129.089 81.1263L128.158 81.7475L126.296 82.995L124.426 84.2277L123.49 84.8441L122.551 85.4556L122.52 85.4164Z" fill="#6D9C7F"/>
<path d="M52.325 70.0839V88.4087C52.325 88.9077 51.942 89.3284 51.4076 89.4898L7.49583 88.9566C10.3327 88.7316 12.9202 87.0145 13.8243 84.7692C14.9822 81.8879 13.6417 80.0926 11.5664 78.6006C11.0186 78.2043 10.4218 77.8326 9.80276 77.4657C8.5914 76.7466 7.30878 76.0519 6.1954 75.2692C6.02172 75.147 5.84803 75.0198 5.68325 74.8926C4.93951 74.3202 4.2982 73.6696 3.74596 72.9701C3.20263 72.2803 2.74392 71.5417 2.35201 70.7737C2.04472 70.172 1.78196 69.5605 1.55038 68.9343H10.2169C10.9829 68.9343 11.6064 68.4207 11.6064 67.7847V62.12C11.6064 61.4841 12.2299 60.9704 12.9959 60.9704H23.9249C24.6909 60.9704 25.3144 61.4841 25.3144 62.12V63.8028C25.3144 64.4387 25.9379 64.9524 26.7039 64.9524H29.6655C30.4315 64.9524 31.055 65.466 31.055 66.102V67.7847C31.055 68.4207 31.6785 68.9343 32.4445 68.9343H50.94C51.706 68.9343 52.3295 69.448 52.3295 70.0839H52.325Z" fill="#649BCE"/>
<path d="M19.2522 55.9324V56.9352C19.2522 57.0624 19.1275 57.17 18.9717 57.17H17.4797C17.3239 57.17 17.1992 57.0673 17.1992 56.9352V55.9324C17.1992 55.8052 17.0745 55.6976 16.9186 55.6976H15.6137C15.4578 55.6976 15.3331 55.8003 15.3331 55.9324V59.9535C15.3331 60.0807 15.4578 60.1883 15.6137 60.1883H16.9186C17.0745 60.1883 17.1992 60.0856 17.1992 59.9535V58.9507C17.1992 58.8235 17.3239 58.7159 17.4797 58.7159H18.9717C19.1275 58.7159 19.2522 58.8186 19.2522 58.9507V59.9535C19.2522 60.0807 19.3769 60.1883 19.5328 60.1883H20.8377C20.9936 60.1883 21.1183 60.0856 21.1183 59.9535V55.9324C21.1183 55.8052 20.9936 55.6976 20.8377 55.6976H19.5328C19.3769 55.6976 19.2522 55.8003 19.2522 55.9324Z" fill="#649BCE"/>
<path d="M16.5386 58.5847H15.8884V61.7937H16.5386V58.5847Z" fill="#649BCE"/>
<path d="M20.5664 58.5847H19.9162V61.7937H20.5664V58.5847Z" fill="#649BCE"/>
<path d="M50.0636 70.7802H32.5434C32.4376 70.7802 32.3519 70.8744 32.3519 70.9906V72.7663C32.3519 72.8825 32.4376 72.9766 32.5434 72.9766H50.0636C50.1693 72.9766 50.2551 72.8825 50.2551 72.7663V70.9906C50.2551 70.8744 50.1693 70.7802 50.0636 70.7802Z" fill="#3C7AB4"/>
<path d="M50.0637 75.2716H32.5436C32.4378 75.2716 32.3521 75.3657 32.3521 75.4819V77.2576C32.3521 77.3738 32.4378 77.468 32.5436 77.468H50.0637C50.1695 77.468 50.2552 77.3738 50.2552 77.2576V75.4819C50.2552 75.3657 50.1695 75.2716 50.0637 75.2716Z" fill="#3C7AB4"/>
<path d="M50.0637 79.7686H32.5436C32.4378 79.7686 32.3521 79.8628 32.3521 79.9789V81.7547C32.3521 81.8708 32.4378 81.965 32.5436 81.965H50.0637C50.1695 81.965 50.2552 81.8708 50.2552 81.7547V79.9789C50.2552 79.8628 50.1695 79.7686 50.0637 79.7686Z" fill="#3C7AB4"/>
<path d="M50.0637 84.2554H32.5436C32.4378 84.2554 32.3521 84.3496 32.3521 84.4658V86.2415C32.3521 86.3577 32.4378 86.4519 32.5436 86.4519H50.0637C50.1695 86.4519 50.2552 86.3577 50.2552 86.2415V84.4658C50.2552 84.3496 50.1695 84.2554 50.0637 84.2554Z" fill="#3C7AB4"/>
<path d="M11.9149 71.3936V72.3622C11.9149 72.6997 11.5853 72.9737 11.1756 72.9737H3.7471C3.20377 72.2839 2.74506 71.5453 2.35315 70.7772H11.1756C11.5853 70.7772 11.9149 71.0512 11.9149 71.3887V71.3936Z" fill="#3C7AB4"/>
<path d="M11.9156 75.8864V76.855C11.9156 77.1925 11.586 77.4664 11.1763 77.4664H9.80459C8.59323 76.7473 7.31061 76.0527 6.19723 75.27H11.1763C11.586 75.27 11.9156 75.544 11.9156 75.8815V75.8864Z" fill="#3C7AB4"/>
<path d="M16.4546 81.9544H27.7086C28.3277 81.9544 28.8309 82.5071 28.8309 83.1871V88.4752H15.3323V83.1871C15.3323 82.5071 15.8355 81.9544 16.4546 81.9544Z" fill="#3C7AB4"/>
<path d="M15.5451 76.8892H17.6561C17.7719 76.8892 17.8654 76.992 17.8654 77.1192V80.157H15.3314V77.1192C15.3314 76.992 15.4249 76.8892 15.5407 76.8892H15.5451Z" fill="#3C7AB4"/>
<path d="M19.197 76.8892H21.3079C21.4237 76.8892 21.5172 76.992 21.5172 77.1192V80.157H18.9832V77.1192C18.9832 76.992 19.0767 76.8892 19.1925 76.8892H19.197Z" fill="#3C7AB4"/>
<path d="M22.8538 76.8892H24.9647C25.0805 76.8892 25.174 76.992 25.174 77.1192V80.157H22.64V77.1192C22.64 76.992 22.7335 76.8892 22.8493 76.8892H22.8538Z" fill="#3C7AB4"/>
<path d="M26.5081 76.8892H28.619C28.7348 76.8892 28.8284 76.992 28.8284 77.1192V80.157H26.2943V77.1192C26.2943 76.992 26.3878 76.8892 26.5036 76.8892H26.5081Z" fill="#3C7AB4"/>
<path d="M15.5466 71.8005H17.6576C17.7734 71.8005 17.8669 71.9032 17.8669 72.0304V75.0683H15.3329V72.0304C15.3329 71.9032 15.4264 71.8005 15.5422 71.8005H15.5466Z" fill="#3C7AB4"/>
<path d="M19.1985 71.8005H21.3094C21.4252 71.8005 21.5188 71.9032 21.5188 72.0304V75.0683H18.9847V72.0304C18.9847 71.9032 19.0782 71.8005 19.194 71.8005H19.1985Z" fill="#3C7AB4"/>
<path d="M22.8546 71.8005H24.9656C25.0814 71.8005 25.1749 71.9032 25.1749 72.0304V75.0683H22.6409V72.0304C22.6409 71.9032 22.7344 71.8005 22.8502 71.8005H22.8546Z" fill="#3C7AB4"/>
<path d="M26.5096 71.8005H28.6206C28.7363 71.8005 28.8299 71.9032 28.8299 72.0304V75.0683H26.2958V72.0304C26.2958 71.9032 26.3893 71.8005 26.5051 71.8005H26.5096Z" fill="#3C7AB4"/>
<path d="M15.5446 66.7057H17.6556C17.7714 66.7057 17.8649 66.8084 17.8649 66.9356V69.9734H15.3308V66.9356C15.3308 66.8084 15.4244 66.7057 15.5402 66.7057H15.5446Z" fill="#3C7AB4"/>
<path d="M19.1964 66.7057H21.3074C21.4232 66.7057 21.5167 66.8084 21.5167 66.9356V69.9734H18.9827V66.9356C18.9827 66.8084 19.0762 66.7057 19.192 66.7057H19.1964Z" fill="#3C7AB4"/>
<path d="M22.8532 66.7057H24.9642C25.08 66.7057 25.1735 66.8084 25.1735 66.9356V69.9734H22.6395V66.9356C22.6395 66.8084 22.733 66.7057 22.8488 66.7057H22.8532Z" fill="#3C7AB4"/>
<path d="M26.5076 66.7057H28.6185C28.7343 66.7057 28.8278 66.8084 28.8278 66.9356V69.9734H26.2938V66.9356C26.2938 66.8084 26.3873 66.7057 26.5031 66.7057H26.5076Z" fill="#3C7AB4"/>
<path d="M14.2761 62.2697H16.3871C16.5029 62.2697 16.5964 62.3724 16.5964 62.4996V65.5374H14.0623V62.4996C14.0623 62.3724 14.1559 62.2697 14.2716 62.2697H14.2761Z" fill="#3C7AB4"/>
<path d="M17.9324 62.2699H20.0434C20.1592 62.2699 20.2527 62.3726 20.2527 62.4998V65.5376H17.7186V62.4998C17.7186 62.3726 17.8121 62.2699 17.9279 62.2699H17.9324Z" fill="#3C7AB4"/>
<path d="M21.5879 62.2699H23.6989C23.8147 62.2699 23.9082 62.3726 23.9082 62.4998V65.5376H21.3742V62.4998C21.3742 62.3726 21.4677 62.2699 21.5835 62.2699H21.5879Z" fill="#3C7AB4"/>
<path d="M124.463 72.1953C119.831 77.4247 118.366 84.0091 119.827 90.07C126.725 89.9869 133.526 87.2279 138.157 81.9985C142.789 76.7692 144.254 70.1848 142.793 64.1238C135.895 64.2069 129.094 66.9659 124.463 72.1953Z" fill="#6C8E8C"/>
<path d="M139.64 67.6112C138.385 69.4114 137.031 71.1431 135.641 72.8503L135.12 73.4912L134.59 74.1222L133.53 75.3892C132.813 76.2257 132.087 77.0573 131.361 77.8889C130.622 78.7107 129.887 79.5326 129.139 80.3495L128.008 81.5627C127.816 81.7632 127.634 81.9687 127.438 82.1693L126.859 82.7661C125.322 84.3657 123.75 85.9409 122.08 87.4475L122.022 87.4035L130.773 77.4633L139.583 67.5672L139.64 67.6112Z" fill="#875739"/>
<path d="M128.449 80.1752C128.137 79.6812 127.932 79.1724 127.754 78.6588C127.585 78.1451 127.456 77.6217 127.362 77.0983C127.269 76.5748 127.211 76.0416 127.197 75.5035C127.188 74.9654 127.202 74.4224 127.326 73.8697L127.389 73.8599L127.545 74.6475L127.692 75.435L127.981 77.0102L128.253 78.5903L128.386 79.3779L128.511 80.1703L128.449 80.1801V80.1752Z" fill="#875739"/>
<path d="M134.956 72.8145C134.689 72.4183 134.528 72.0123 134.403 71.6013C134.279 71.1904 134.199 70.7795 134.154 70.3637C134.11 69.9479 134.101 69.5272 134.132 69.1065C134.167 68.6809 134.234 68.2553 134.408 67.82H134.47L134.555 68.4363L134.631 69.0625L134.778 70.3099L134.907 71.5573L134.969 72.1835L135.023 72.8096H134.96L134.956 72.8145Z" fill="#875739"/>
<path d="M123.696 85.5379C123.376 85.0536 123.166 84.5546 122.984 84.0508C122.805 83.5469 122.672 83.0333 122.569 82.5147C122.471 81.9962 122.405 81.4728 122.382 80.9444C122.365 80.4112 122.373 79.878 122.494 79.3252L122.556 79.3155L122.721 80.0884L122.877 80.8662L123.188 82.4169L123.478 83.9725L123.625 84.7503L123.759 85.5281L123.696 85.5379Z" fill="#875739"/>
<path d="M128.609 80.234C129.184 79.9992 129.767 79.8623 130.351 79.7497C130.934 79.6421 131.522 79.5736 132.114 79.5394C132.706 79.5052 133.299 79.5003 133.891 79.5345C134.488 79.5736 135.085 79.6372 135.69 79.7987V79.8525L134.809 79.921L133.922 79.9797L132.15 80.0971L130.377 80.1949L129.491 80.2438L128.605 80.283V80.2291L128.609 80.234Z" fill="#875739"/>
<path d="M135.114 72.8764C135.546 72.6269 135.996 72.4704 136.445 72.3432C136.895 72.2209 137.354 72.1328 137.817 72.0839C138.28 72.0301 138.744 72.0105 139.216 72.0252C139.688 72.0448 140.164 72.0937 140.654 72.2356L140.663 72.2894L139.973 72.3823L139.282 72.4655L137.902 72.6367L136.517 72.7883L135.822 72.8617L135.127 72.9302L135.118 72.8764H135.114Z" fill="#875739"/>
<path d="M123.857 85.6002C124.427 85.3703 125.006 85.2431 125.585 85.1403C126.164 85.0425 126.748 84.9789 127.331 84.9544C127.915 84.9251 128.502 84.93 129.09 84.974C129.678 85.0229 130.266 85.0914 130.863 85.2626V85.3164L129.99 85.3703L129.113 85.4192L127.362 85.5121L125.612 85.5855L124.735 85.6246L123.857 85.654V85.6002Z" fill="#875739"/>
<path d="M89.6461 42.9225C89.6461 42.9225 86.9651 56.6245 89.6461 62.9888C92.3271 69.3531 91.1736 86.2494 91.1736 86.2494H93.534C93.534 86.2494 99.2924 69.3775 96.2017 63.0915C95.547 61.7609 95.2664 60.2983 95.5559 58.8601C96.3086 55.1374 101.924 48.1225 100.856 42.9225H89.6461Z" fill="#5FA6C5"/>
<path d="M67.6242 16.5026C67.6242 16.5026 60.8771 30.5862 51.881 37.9582L54.4417 39.3279C54.4417 39.3279 66.11 33.3256 69.8019 23.2778" fill="#D5782A"/>
<path d="M92.4966 42.9225C92.4966 42.9225 94.3315 56.6245 97.0125 62.9888C99.6935 69.3531 102.343 86.2494 102.343 86.2494H104.704C104.704 86.2494 106.659 69.3775 103.568 63.0915C102.913 61.7609 102.633 60.2983 102.922 58.8601C103.675 55.1374 104.775 48.1225 103.706 42.9225H92.4966Z" fill="#7AC6E7"/>
<path d="M74.9898 39.7243C74.9898 39.7243 75.0522 41.3581 69.1023 60.6907C68.6346 62.212 68.5856 63.8214 68.9865 65.3624L74.393 86.2505H71.1776L63.2147 66.2722C63.1479 66.101 63.09 65.9347 63.041 65.7586C62.3819 63.3616 62.2973 45.208 65.722 39.7243" fill="#724933"/>
<path d="M49.3055 88.4814C49.2743 88.4814 49.2431 88.4814 49.212 88.4814C48.6018 88.4325 48.152 87.9286 48.201 87.3563C48.2322 87.0089 51.2739 52.453 51.9464 46.759C52.08 45.6241 52.2136 44.6995 52.3205 43.9413C52.4675 42.9238 52.6055 41.9601 52.5476 41.6372C52.414 41.5834 52.129 41.5198 51.6926 41.4415C51.4031 41.3877 51.2695 41.4513 51.1715 41.5296C50.6415 41.9307 50.4233 43.1977 50.4055 43.7113C50.3877 44.2886 49.8444 44.7093 49.2654 44.724C48.6553 44.7044 48.1743 44.225 48.1921 43.6478C48.201 43.3836 48.3213 41.0111 49.7865 39.9006C50.4322 39.4114 51.2428 39.2402 52.1068 39.3919C55.1307 39.9349 54.9526 41.1921 54.5117 44.2299C54.4048 44.9734 54.2756 45.8784 54.142 46.9938C53.4695 52.6634 50.4322 87.185 50.4011 87.5324C50.3521 88.0754 49.8711 88.4912 49.301 88.4912L49.3055 88.4814Z" fill="#593422"/>
<path d="M94.051 12.492C94.051 12.492 84.4359 18.2546 72.6207 17.5698L74.1571 21.0576C74.1571 21.0576 86.057 21.7523 92.4923 17.966" fill="#7AC6E7"/>
<path d="M80.382 26.3734C80.186 27.4496 79.9634 28.5502 79.7362 29.6509C78.9569 33.4714 78.1819 37.2626 78.7208 39.7232H65.7121C65.7121 39.7232 63.1513 32.6104 64.8837 28.2371C66.6117 23.8638 67.9967 21.5158 67.0303 19.559C66.0639 17.6023 69.1546 13.1654 73.4879 13.229C73.4879 13.229 78.1686 13.6839 80.382 18.1893C81.286 20.0287 80.9788 23.0616 80.382 26.3734Z" fill="#E88A3F"/>
<path d="M78.7281 39.7243C78.7281 39.7243 83.5423 41.3581 77.5924 60.6907C77.1248 62.212 77.0758 63.8214 77.4766 65.3624L82.8832 86.2505H79.6678L71.7049 66.2722C71.638 66.101 71.5802 65.9347 71.5312 65.7586C70.872 63.3616 66.0355 45.208 69.4603 39.7243" fill="#875739"/>
<path d="M71.1705 86.2469C71.1705 86.2469 68.5696 86.7947 67.5319 88.1302C67.3716 88.3357 67.5319 88.6292 67.8036 88.6292H74.8402C75.0629 88.6292 75.2187 88.4188 75.143 88.2232L74.3904 86.2518H71.1749L71.1705 86.2469Z" fill="#3B2218"/>
<path d="M79.6695 86.2469C79.6695 86.2469 77.0686 86.7947 76.0309 88.1302C75.8706 88.3357 76.0309 88.6292 76.3026 88.6292H83.3392C83.5619 88.6292 83.7177 88.4188 83.642 88.2232L82.8894 86.2518H79.6739L79.6695 86.2469Z" fill="#593422"/>
<path d="M102.343 86.2466C102.343 86.2466 98.8871 86.7945 97.845 88.13C97.6846 88.3354 97.845 88.6289 98.1166 88.6289H105.153C105.376 88.6289 105.532 88.4186 105.456 88.2229L104.703 86.2515H102.347L102.343 86.2466Z" fill="#E9E9EB"/>
<path d="M91.1789 86.2469C91.1789 86.2469 87.723 86.7947 86.6809 88.1302C86.5205 88.3357 86.6809 88.6292 86.9525 88.6292H93.9891C94.2118 88.6292 94.3677 88.4188 94.2919 88.2232L93.5393 86.2518H91.1834L91.1789 86.2469Z" fill="#CDDBDB"/>
<path d="M65.718 39.7243L64.9031 41.4266L77.6891 41.4707L77.1681 39.7243H65.718Z" fill="#593422"/>
<path d="M51.8812 37.9609C51.8812 37.9609 48.6302 40.5927 50.612 41.7227C52.5938 42.8527 53.3064 40.4508 54.0724 40.8519C54.4331 41.0427 54.0011 42.0553 54.7894 42.0651C55.5732 42.07 54.9987 40.4166 54.442 39.3306C53.8898 38.2446 51.8812 37.9609 51.8812 37.9609Z" fill="#FFE7C7"/>
<path opacity="0.1" d="M80.383 26.3752C80.1871 27.4514 79.9644 28.5521 79.7373 29.6527L79.3498 29.594L79.0381 22.2954L80.383 26.3801V26.3752Z" fill="black"/>
<path opacity="0.1" d="M78.3289 46.2068C78.3289 46.2068 74.2896 41.5155 72.624 34.3049C71.1632 27.9896 71.5863 23.5331 71.9916 21.366C72.1563 20.4953 72.958 19.8643 73.8932 19.8643H76.4006L78.3289 46.2068Z" fill="black"/>
<path d="M73.67 16.7857C73.67 16.7857 77.6515 15.4405 78.7916 19.2463C79.9361 23.0571 78.3596 40.9073 81.5528 45.8187L78.3284 46.2052C78.3284 46.2052 68.3792 23.1989 73.67 16.7857Z" fill="#E88A3F"/>
<path d="M81.5578 45.8168C81.5578 45.8168 83.3481 50.694 81.0457 51.5892C79.5805 52.1566 80.0659 48.9818 79.5404 48.8498C79.0149 48.7177 79.5226 49.7596 79.1262 49.7352C78.0663 49.6716 78.3379 46.2033 78.3379 46.2033L81.5623 45.8168H81.5578Z" fill="#FFE7C7"/>
<path d="M105.105 49.3714H87.5764C87.5764 49.3714 87.8703 46.7249 88.3068 42.9142C88.3602 42.4348 88.4181 41.9309 88.476 41.4173C88.7833 38.7463 89.1396 35.6547 89.5003 32.5533C89.674 31.0808 89.8477 29.6084 90.0214 28.1751C90.7206 22.3489 91.3708 17.232 91.6603 15.8232C92.4218 12.0809 95.7085 12.0565 95.7085 12.0565L99.0487 11.9684C107.916 9.72797 105.11 49.3714 105.11 49.3714H105.105Z" fill="#93D0EB"/>
<path d="M93.4905 49.3733C93.299 47.8862 93.2055 46.3991 93.1208 44.9071C93.0852 44.1635 93.063 43.415 93.0362 42.6715C93.0229 42.2997 93.0229 41.923 93.0184 41.5513L93.0051 40.431V39.3108L93.0229 38.1906L93.0852 35.9501C93.0897 35.7642 93.0941 35.5783 93.103 35.3924L93.1342 34.8348L93.1966 33.7146L93.2589 32.5943L93.3391 31.479L93.4371 30.3636C93.4682 29.9919 93.4994 29.6201 93.5395 29.2483L93.6553 28.133C93.6954 27.7612 93.731 27.3894 93.7755 27.0176C93.7978 26.8317 93.8156 26.6459 93.8423 26.46L93.918 25.9023L94.0739 24.7919C94.1273 24.4201 94.1763 24.0532 94.2298 23.6814L94.2743 23.4026L94.3233 23.1237L94.4213 22.571L94.6128 21.4654C94.6751 21.0985 94.7419 20.7267 94.8132 20.3599C94.8844 19.993 94.9691 19.6261 95.0448 19.2592L95.2808 18.1634L95.5302 17.0677C95.6193 16.7057 95.7128 16.3388 95.8108 15.9768L96.1047 14.8908L96.4165 13.8097L96.4966 13.8244L96.0824 16.0208C96.0156 16.3877 95.9444 16.7546 95.8776 17.1215L95.6994 18.2221C95.5836 18.9559 95.4589 19.6946 95.3476 20.4283L95.0492 22.6394L94.9735 23.1922L94.9379 23.4711L94.9067 23.7499L94.782 24.8603L94.6573 25.9708L94.595 26.5236C94.5727 26.7094 94.5593 26.8953 94.5415 27.0812L94.3322 29.3021C94.2921 29.6739 94.2699 30.0457 94.2387 30.4126L94.1541 31.523C93.918 34.4875 93.7443 37.4617 93.6464 40.4359L93.584 42.6666C93.5751 43.4102 93.5573 44.1537 93.5484 44.8973C93.535 46.3844 93.535 47.8715 93.5707 49.3586H93.4905V49.3733Z" fill="#7AC6E7"/>
<path d="M94.2467 19.8396C94.2467 19.8396 97.8897 14.4097 100.798 15.4907C103.706 16.5669 102.539 22.2757 97.0124 24.7999C91.4811 27.3241 79.0424 33.2383 79.0424 33.2383L78.4323 30.1907L94.2512 19.8396H94.2467Z" fill="#93D0EB"/>
<path d="M79.0418 33.2408C79.0418 33.2408 76.1693 36.2836 74.9936 34.5029C73.8178 32.7174 76.196 32.1744 76.2985 31.3379C76.4009 30.5014 75.2341 30.6775 75.5636 30.1541C75.8932 29.6307 78.4362 30.1981 78.4362 30.1981L79.0463 33.2457L79.0418 33.2408Z" fill="#FFE7C7"/>
<path d="M95.7082 12.0578V11.4953C95.7082 11.4953 91.4372 10.8006 91.6688 7.27362C91.9004 3.7515 95.2183 3.30634 97.2045 3.7515C101.493 4.7103 99.026 6.71595 99.0483 11.9698C99.0528 13.2661 95.7082 15.5359 95.7082 12.0578Z" fill="#FFE7C7"/>
<path d="M69.3163 8.26742C67.9579 6.65311 65.2324 6.79987 64.1992 8.61963C63.3797 10.0676 63.5133 12.0537 64.0834 13.2277C65.0988 15.3165 68.0515 13.2277 68.0515 13.2277L70.6345 15.4878C72.2734 16.9211 73.4937 13.2277 73.4937 13.2277L69.3163 8.27231V8.26742Z" fill="#FFE7C7"/>
<path d="M70.3193 39.5445H67.3577C67.2569 39.5445 67.1752 39.6343 67.1752 39.7451V41.4474C67.1752 41.5582 67.2569 41.648 67.3577 41.648H70.3193C70.4202 41.648 70.5019 41.5582 70.5019 41.4474V39.7451C70.5019 39.6343 70.4202 39.5445 70.3193 39.5445Z" stroke="#AD8545" stroke-width="9.0363" stroke-miterlimit="10"/>
<path d="M70.4946 40.5952H68.8334" stroke="#AD8545" stroke-width="9.0363" stroke-linecap="round" stroke-linejoin="round"/>
<path d="M68.1988 9.86228C68.1988 9.86228 67.2992 9.17253 67.5441 8.33114C67.7846 7.48974 66.0344 7.93001 65.9408 7.2794C65.8518 6.62878 67.7846 6.36952 68.1988 7.01524C68.6129 7.66096 69.9579 8.12079 69.802 8.73227C69.6462 9.34375 69.085 10.0139 68.5551 9.85739H68.1988V9.86228Z" fill="#B6B6B6"/>
<path d="M68.4836 13.6119C68.4836 13.6119 69.8508 12.3987 69.8019 10.9067C69.8019 10.9067 70.7861 12.2569 69.5168 14.5169" fill="#F0CCA0"/>
<path d="M97.3393 7.92338L98.8401 6.92545V7.15536L96.6846 8.94088L97.0142 10.3399L98.8401 7.80108V8.07992C98.8401 8.07992 97.7446 10.247 96.462 11.0395" fill="#89CEC0"/>
<path d="M98.4863 7.61997C98.4863 7.61997 98.4684 7.6004 98.4595 7.59551C98.3437 7.5417 97.6579 7.19438 97.649 6.30896C97.6401 5.49692 96.4777 5.56051 96.0947 5.60454C96.0413 5.60943 96.0056 5.55562 96.0324 5.51159C96.0858 5.42843 96.1704 5.31103 96.2951 5.23276C96.3441 5.20341 96.3263 5.12514 96.2639 5.12025C95.7384 5.08111 94.6607 5.03219 93.9882 5.25233C93.9303 5.27189 93.8769 5.2083 93.9169 5.15938C94.0016 5.05665 94.1396 4.91968 94.3489 4.81206C94.4113 4.78271 94.3846 4.69466 94.3133 4.69955C93.5651 4.73868 92.14 4.73379 91.4898 4.18102C91.4497 4.14677 91.472 4.08318 91.5254 4.07829C91.806 4.05383 92.474 3.96088 93.0307 3.67716C93.0797 3.6527 93.0752 3.58421 93.0218 3.56464L92.6655 3.45213C92.6121 3.43746 92.6076 3.36408 92.6566 3.33962C93.0574 3.14884 94.3445 2.62052 95.9522 2.87979C95.9967 2.88468 96.0368 2.85044 96.0279 2.8113L96.0012 2.66944C95.9923 2.62541 96.0324 2.59117 96.0769 2.60095C96.5267 2.6939 98.4417 3.13906 98.985 4.05872C99.0118 4.10764 99.0875 4.10275 99.1053 4.04894L99.1276 3.99023C99.1454 3.93153 99.2344 3.93642 99.2523 3.99023C99.3013 4.16634 99.3591 4.42072 99.377 4.63596C99.377 4.65552 99.3903 4.67509 99.4081 4.68487C99.5195 4.74847 99.9337 4.99795 100.232 5.3306C100.272 5.37462 100.232 5.43822 100.17 5.42843L100.009 5.39908C99.9648 5.3893 99.9247 5.42354 99.9337 5.46757C100 5.91761 100.272 8.03578 99.4928 9.0386C99.466 9.07284 99.4081 9.07284 99.3859 9.0386L98.4952 7.61997H98.4863Z" fill="#3B2218"/>
<path d="M98.2243 7.86795C98.2243 7.86795 98.104 6.78197 98.634 6.5814C99.164 6.38084 99.7786 8.00982 99.0348 8.51857C98.2866 9.02732 98.2243 7.86795 98.2243 7.86795Z" fill="#FFE7C7"/>
<path opacity="0.1" d="M99.7287 22.6652C99.7287 22.6652 98.8514 26.5248 89.7261 30.6242C89.8998 29.1517 89.8909 29.2251 90.0646 27.7918C92.8391 26.6765 98.406 24.2892 99.7287 22.6652Z" fill="black"/>
<path d="M128.752 90.6498H24.9673C24.3305 90.6498 23.8183 90.1655 23.8183 89.5638C23.8183 88.967 24.3349 88.4779 24.9673 88.4779H128.752C129.389 88.4779 129.901 88.9622 129.901 89.5638C129.901 90.1606 129.385 90.6498 128.752 90.6498Z" fill="#593422"/>
<path d="M67.6542 10.9337C67.6542 10.9337 67.6943 10.0091 68.1619 9.46613L68.4825 9.60799C68.4825 9.60799 67.9882 10.0678 67.8769 10.9973" fill="#89CEC0"/>
<path d="M68.8206 12.8229C68.8206 12.8229 70.0142 10.964 69.0923 9.61389L68.972 9.78021C68.972 9.78021 69.649 11.0032 68.5579 12.8229" fill="#89CEC0"/>
<path d="M68.2371 10.0138C68.2371 10.0138 68.0011 9.13811 68.3618 8.96201C68.7226 8.7859 69.9606 9.46587 69.0031 10.4491" fill="#FFE7C7"/>
<path d="M66.4055 10.0621C66.2897 10.0621 66.2006 10.1551 66.2095 10.2627C66.2273 10.4828 66.2941 10.8155 66.5124 10.8253C66.7528 10.835 66.686 10.4339 66.6326 10.2089C66.6103 10.1208 66.5302 10.0621 66.4366 10.0621H66.401H66.4055Z" fill="#3B2218"/>
<path d="M64.01 11.066C64.0992 11.066 64.1706 10.9926 64.1617 10.9093C64.1483 10.7329 64.0948 10.4733 63.9253 10.4684C63.738 10.4586 63.787 10.777 63.8316 10.9534C63.8495 11.022 63.9119 11.066 63.9833 11.066H64.01Z" fill="#3B2218"/>
<path d="M65.0015 10.0806C64.8902 9.92406 64.6319 9.98766 64.6096 10.1735C64.5294 10.7997 64.4804 11.8417 65.0104 11.9395C65.6874 12.0667 65.7319 11.0883 65.0015 10.0806Z" fill="#E07180"/>
<path d="M67.3033 9.99431C67.3389 10.0286 67.4013 9.99431 67.3879 9.95028C67.3256 9.65188 67.094 8.9817 66.1988 8.85941C65.9004 8.82027 65.8604 9.2214 66.034 9.23608C66.4705 9.2801 67.0628 9.77418 67.2988 9.99431H67.3033Z" fill="#B6B6B6"/>
<path d="M63.4683 10.1399C63.4461 10.1693 63.4015 10.1546 63.4015 10.1204C63.4015 9.90513 63.4817 9.41595 64.0829 9.23006C64.2833 9.16646 64.3635 9.44041 64.2432 9.47465C63.9448 9.55292 63.6019 9.96873 63.4683 10.1448V10.1399Z" fill="#B6B6B6"/>
<path d="M63.7579 11.4075C64.2166 11.2559 65.3433 10.9868 67.6547 10.933C67.8017 10.933 67.9353 11.0064 67.9976 11.1336L68.8215 12.8164C68.8794 12.9338 68.8616 13.0659 68.7814 13.1686C68.4875 13.5404 67.6591 14.372 66.1449 14.3377C65.0004 14.3133 64.0162 13.5746 63.6866 12.5424C63.6064 12.2881 63.5396 12.0239 63.5129 11.7695C63.4951 11.6081 63.5975 11.4613 63.7579 11.4075Z" fill="#89CEC0"/>
<path d="M95.6748 6.61654C95.5323 6.5774 95.3853 6.66056 95.3541 6.79753C95.2873 7.08126 95.2383 7.51174 95.5056 7.59979C95.7995 7.69763 95.8797 7.1742 95.9019 6.8758C95.9108 6.76329 95.8351 6.66056 95.7193 6.62632L95.6792 6.61654H95.6748Z" fill="#3B2218"/>
<path d="M92.3097 7.00658C92.421 7.03593 92.5368 6.97234 92.5635 6.86472C92.617 6.64459 92.657 6.30216 92.4433 6.23367C92.2117 6.1554 92.1493 6.56632 92.1315 6.80112C92.1226 6.88918 92.185 6.97234 92.274 6.9968L92.3052 7.00658H92.3097Z" fill="#3B2218"/>
<path d="M93.931 6.14142C93.8553 5.91151 93.5124 5.89194 93.4055 6.11696C93.0581 6.86541 92.5816 8.13729 93.1962 8.45037C93.9844 8.8515 94.4298 7.653 93.9265 6.14142H93.931Z" fill="#E07180"/>
<path d="M97.1638 6.53753C97.2172 6.57667 97.2885 6.52775 97.2662 6.46905C97.137 6.09238 96.7184 5.27055 95.5471 5.25098C95.1552 5.24609 95.1775 5.76951 95.4046 5.76462C95.9747 5.74995 96.8209 6.29783 97.1638 6.54242V6.53753Z" fill="#3B2218"/>
<path d="M91.7437 5.63765C91.7037 5.65721 91.6591 5.61808 91.6769 5.57895C91.8061 5.32946 92.1757 4.79136 92.9907 4.87941C93.2668 4.90876 93.1956 5.27076 93.0397 5.2463C92.6433 5.1876 92.002 5.49578 91.7393 5.63276L91.7437 5.63765Z" fill="#3B2218"/>
<path d="M91.6637 7.27313C91.6637 7.27313 95.476 7.98734 97.3375 7.91885C97.3375 7.91885 97.8586 10.6289 95.7031 11.4948C93.5476 12.3606 90.4613 9.95386 91.6637 7.27313Z" fill="#89CEC0"/>
<path d="M95.7032 11.4947C95.7032 11.4947 97.0882 10.9175 97.9077 9.57715C97.9077 9.57715 98.598 11.2942 95.8591 13.2313C95.8591 13.2313 95.5651 12.2432 95.7032 11.4947Z" fill="#F0CCA0"/>
<path d="M96.786 38.7855C97.3872 39.7639 99.2265 42.1805 103.235 43.2762C103.417 43.3252 103.515 43.511 103.444 43.6774L103.034 44.6753C102.972 44.8269 102.789 44.9101 102.625 44.8514C101.458 44.4503 97.1824 42.8115 95.5969 39.896C95.539 39.7933 95.5479 39.671 95.6192 39.578L96.2427 38.766C96.3807 38.5899 96.6657 38.5996 96.7815 38.7904L96.786 38.7855Z" fill="#7AC6E7"/>
<path d="M91.015 40.4107C90.4316 41.482 89.3405 42.3185 88.3028 42.9153C88.3562 42.4359 88.4141 41.932 88.472 41.4184C89.3895 40.7238 89.915 40.0047 90.1555 39.6084C90.2401 39.4714 90.4449 39.4617 90.5429 39.5889L90.9927 40.1759C91.0462 40.2444 91.0506 40.3324 91.0105 40.4058L91.015 40.4107Z" fill="#7AC6E7"/>
<path d="M109.355 30.9309H130.077L125.325 29.7422C125.325 29.7422 129.565 24.7819 126.439 24.1459C123.312 23.51 123.455 26.0146 123.455 26.0146C123.455 26.0146 124.791 22.7175 121.166 22.3751C117.54 22.0375 119.3 28.7198 119.3 28.7198C119.3 28.7198 117.46 27.4528 116.075 27.7218C116.075 27.7218 115.496 23.7252 112.864 24.141C110.228 24.5568 111.835 29.7373 111.835 29.7373L109.359 30.926L109.355 30.9309Z" fill="white"/>
<path d="M46.0258 23.368H56.9369L54.434 22.7419C54.434 22.7419 56.6653 20.1296 55.0219 19.797C53.3741 19.4595 53.4498 20.7803 53.4498 20.7803C53.4498 20.7803 54.1535 19.0437 52.2429 18.8627C50.3323 18.6866 51.2587 22.2038 51.2587 22.2038C51.2587 22.2038 50.2878 21.5385 49.5619 21.6804C49.5619 21.6804 49.259 19.5769 47.8695 19.797C46.4845 20.0171 47.3262 22.7419 47.3262 22.7419L46.0213 23.368H46.0258Z" fill="white"/>
<path d="M94.0577 8.21483C94.0577 8.21483 93.2739 8.60617 92.9042 8.14145C92.9042 8.14145 93.0957 9.07579 94.0577 8.21483Z" fill="#72C0AF"/>
<path d="M96.1575 9.24425C96.1575 9.24425 93.5567 9.83616 91.9311 8.65723C91.9311 8.65723 93.8996 9.36654 96.1575 9.24425Z" fill="#72C0AF"/>
<path d="M95.703 9.96546C95.703 9.96546 93.4896 10.6259 92.1535 9.49585C92.1535 9.49585 93.7924 10.1465 95.703 9.96546Z" fill="#72C0AF"/>
<path d="M95.5864 10.7208C95.5864 10.7208 93.7916 11.4546 92.7717 10.3784C92.7717 10.3784 94.0543 10.9703 95.5864 10.7208Z" fill="#72C0AF"/>
<path d="M65.6451 11.317C65.6451 11.317 65.1285 11.9578 64.6475 11.6546C64.6475 11.6546 65.1463 12.4568 65.6451 11.317Z" fill="#72C0AF"/>
<path d="M67.7881 11.5288C67.7881 11.5288 65.8152 12.9964 64.0204 12.4827C64.0204 12.4827 65.931 12.4436 67.7881 11.5288Z" fill="#72C0AF"/>
<path d="M67.6639 12.3543C67.6639 12.3543 66.0428 13.7485 64.5108 13.1761C64.5108 13.1761 66.1274 13.2006 67.6639 12.3543Z" fill="#72C0AF"/>
<path d="M67.8416 13.0966C67.8416 13.0966 66.5991 14.4125 65.3477 13.7765C65.3477 13.7765 66.6392 13.8695 67.8416 13.0966Z" fill="#72C0AF"/>
<defs>
<linearGradient id="paint0_linear_1_12" x1="67.1571" y1="48.2037" x2="67.1571" y2="68.4314" gradientUnits="userSpaceOnUse">
<stop stop-color="#5FA6C5"/>
<stop offset="1" stop-color="#9ACCCF"/>
</linearGradient>
</defs>
</svg>
