<svg width="149" height="91" viewBox="0 0 149 91" fill="none" xmlns="http://www.w3.org/2000/svg">
<path opacity="0.5" d="M39.0752 16.7684C45.6265 9.74727 55.5466 1.03617 75.8647 4.44079C89.2773 6.68755 119.44 13.7678 134.407 23.2081C149.373 32.6484 152.919 48.5826 143.919 66.0886C134.92 83.5945 121.441 89.7633 121.441 89.7633H34.1705C34.1705 89.7633 7.60198 97.7599 8.32352 67.7934C8.8193 47.1981 31.5853 24.7946 39.0752 16.7684Z" fill="#3F6B68"/>
<path opacity="0.5" d="M7.79274 52.006C-4.65045 55.3909 -3.29591 5.35629 19.9305 1.1929C35.552 -1.60569 48.9292 5.98203 45.1533 8.13024C20.7273 22.0493 11.0419 51.1241 7.79274 52.006Z" fill="#3F6B68"/>
<path d="M46.925 45.7471H4.35432C4.29235 45.7471 4.24365 45.688 4.24365 45.619V19.9538C4.24365 19.8848 4.29235 19.8257 4.35432 19.8257H46.925C46.987 19.8257 47.0357 19.8848 47.0357 19.9538V45.619C47.0357 45.688 46.987 45.7471 46.925 45.7471ZM4.46498 45.4909H46.8143V20.0868H4.46498V45.4909Z" fill="#3F6B68"/>
<path d="M46.925 37.1932H4.35432C4.29235 37.1932 4.24365 37.1341 4.24365 37.0651C4.24365 36.9961 4.29235 36.937 4.35432 36.937H46.925C46.987 36.937 47.0357 36.9961 47.0357 37.0651C47.0357 37.1341 46.987 37.1932 46.925 37.1932Z" fill="#3F6B68"/>
<path d="M46.925 28.6395H4.35432C4.29235 28.6395 4.24365 28.5804 4.24365 28.5114C4.24365 28.4424 4.29235 28.3833 4.35432 28.3833H46.925C46.987 28.3833 47.0357 28.4424 47.0357 28.5114C47.0357 28.5804 46.987 28.6395 46.925 28.6395Z" fill="#3F6B68"/>
<path d="M32.7321 45.7471C32.6702 45.7471 32.6215 45.688 32.6215 45.619V19.9538C32.6215 19.8848 32.6702 19.8257 32.7321 19.8257C32.7941 19.8257 32.8428 19.8848 32.8428 19.9538V45.619C32.8428 45.688 32.7941 45.7471 32.7321 45.7471Z" fill="#3F6B68"/>
<path d="M18.5452 45.7471C18.4832 45.7471 18.4345 45.688 18.4345 45.619V19.9538C18.4345 19.8848 18.4832 19.8257 18.5452 19.8257C18.6071 19.8257 18.6558 19.8848 18.6558 19.9538V45.619C18.6558 45.688 18.6071 45.7471 18.5452 45.7471Z" fill="#3F6B68"/>
<path d="M74.8831 48.4366L56.2427 55.0143L36.5398 71.2786L34.1716 88.76C34.1716 88.76 41.927 88.7747 52.7766 88.7797C76.2863 88.7895 114.329 88.7402 119.517 88.3362C111.168 75.5061 97.3703 53.0829 97.3703 53.0829L83.0635 49.4171L74.8875 48.4317L74.8831 48.4366Z" fill="white"/>
<path opacity="0.5" d="M60.0545 83.7348C60.0545 83.7348 54.9639 87.4794 51.8653 88.3367C48.7667 89.194 61.1258 88.7358 61.1258 88.7358L60.0545 83.7397V83.7348Z" fill="#99D2E4"/>
<path opacity="0.5" d="M67.7039 50.9653L67.9872 58.9866L74.5518 62.7952L71.7321 67.7371L83.0996 88.0269H83.9628L91.218 65.0863L89.4341 61.4255L92.5858 58.2574L89.412 51.0441L68.5582 50.6647L67.7039 50.9653Z" fill="#99D2E4"/>
<path d="M76.8857 43.7531L68.5903 50.6658L70.8168 60.1652L76.4386 61.1999C76.4386 61.1999 73.765 65.4767 74.1412 66.0679C74.5219 66.6592 84.1498 85.5841 84.1498 85.5841L90.378 64.6686L87.7707 60.6432C87.7707 60.6432 91.8122 58.49 91.6839 57.9037C91.5555 57.3125 89.4352 51.0452 89.4352 51.0452L83.893 46.192L76.8813 43.7531H76.8857Z" fill="white"/>
<path d="M86.1095 19.503C86.1095 19.503 79.5935 19.7986 77.4245 23.3363C75.251 26.8789 77.6812 31.801 76.4019 34.6489C75.1226 37.4967 76.4108 42.0642 77.3713 42.3499C78.3319 42.6357 86.1095 19.4981 86.1095 19.4981V19.503Z" fill="#313C60"/>
<path d="M80.5488 33.6763L74.3737 50.522L83.2269 71.265L85.8386 51.5222L84.7629 49.8667L88.6805 35.0657L80.5488 33.6763Z" fill="#EE975A"/>
<path opacity="0.5" d="M97.2845 63.0155C97.3686 73.934 93.876 88.5871 93.876 88.5871C93.876 88.5871 94.9826 89.1488 95.1553 88.5871C95.3235 88.0254 96.2619 88.5871 96.2619 88.5871C96.2619 88.5871 97.2845 81.364 97.5412 75.9245C97.7979 70.4899 97.2845 63.0155 97.2845 63.0155Z" fill="#99D2E4"/>
<path opacity="0.5" d="M55.0384 81.6059C56.5833 79.975 64.8744 72.8209 67.1895 68.5984C67.6764 67.7115 67.278 66.1348 67.1895 65.6766C72.4129 64.6715 73.431 62.3311 73.431 62.3311L68.212 54.6744C68.212 54.6744 61.187 56.6502 55.5209 58.9758C52.4976 60.2174 46.7607 63.4298 42.0641 66.1545L36.5396 71.2787L35.5924 78.2653C35.7783 79.6153 35.9465 80.6303 36.0394 80.7535C36.3316 81.1427 36.6503 88.287 36.6724 88.7403H36.8451C38.2926 88.5334 47.4557 89.6223 55.034 81.6108L55.0384 81.6059Z" fill="#99D2E4"/>
<path d="M70.4941 52.8676C72.4197 52.1778 73.9159 52.4094 73.2784 53.5278C73.0173 53.986 72.3931 54.6709 72.3931 54.6709L68.21 53.9417L70.4941 52.8676Z" fill="#3F6B68"/>
<path d="M99.31 65.4525L99.0533 66.2458L68.0227 53.6521L68.6425 51.7256L99.31 65.4525Z" fill="white"/>
<path d="M99.1045 66.3803L99.0203 66.3458L67.9057 53.7176L68.5874 51.5891L68.6715 51.6286L99.4187 65.3948L99.1045 66.3803ZM68.1359 53.5945L98.9982 66.1191L99.193 65.5131L68.6937 51.8601L68.1403 53.5945H68.1359Z" fill="#2D5B98"/>
<path d="M110.975 74.9383C118.69 72.7014 124.029 74.421 127.265 82.1861C128.464 85.0684 129.11 88.3252 128.274 88.1774C127.437 88.0296 115.087 88.3351 115.087 88.3351L110.975 74.9383Z" fill="white"/>
<path d="M70.2812 53.0117C69.9669 54.2336 68.3291 54.7509 66.6204 54.1695C64.9162 53.5832 63.7874 52.1199 64.1017 50.893C64.416 49.6711 66.0538 49.1537 67.7625 49.7351C69.4667 50.3215 70.5955 51.7848 70.2812 53.0117Z" fill="#EF9690"/>
<path d="M81.7308 61.3113C81.328 60.4343 77.043 58.4782 77.7601 58.7591C78.4773 59.0399 80.7658 59.9465 80.0487 58.9709C79.3272 57.9954 73.8205 53.6842 72.0675 53.625C70.4253 53.5708 68.1278 53.2407 66.9681 54.2656C64.1041 56.8079 61.5986 57.7983 61.5986 57.7983C61.5986 57.7983 59.8811 58.562 59.8014 58.5817C56.1627 59.3208 54.2239 74.4174 54.2239 74.4174C54.6842 74.4075 62.6256 67.1204 66.4015 63.6665C67.1496 63.967 69.5178 63.834 71.3858 62.7155C72.4084 62.1046 73.8337 60.9073 73.8337 60.9073C73.8337 60.9073 76.3835 61.7547 77.1271 61.9863C79.1191 62.6022 82.1292 62.1834 81.7264 61.3064L81.7308 61.3113Z" fill="#3F6B68"/>
<path d="M35.4805 72.2049C32.2712 76.6442 31.5408 87.7449 34.9493 88.282C42.9482 89.5384 65.8957 67.6966 65.8957 67.6966L62.173 57.3891C62.173 57.3891 40.0576 65.8736 35.4805 72.2049Z" fill="white"/>
<path d="M98.7729 65.9284C98.7463 65.9284 98.7197 65.9235 98.6976 65.9137L95.0324 64.3666C94.9173 64.3173 94.8553 64.1695 94.8996 64.0364C94.9438 63.9034 95.0678 63.8344 95.1873 63.8837L98.8525 65.4308C98.9676 65.4801 99.0296 65.6279 98.9853 65.7609C98.9543 65.8644 98.8658 65.9284 98.7773 65.9284H98.7729Z" fill="#3F6B68"/>
<path d="M94.4967 64.125C94.4702 64.125 94.4436 64.12 94.4215 64.1102L93.5229 63.7308C93.4078 63.6815 93.3458 63.5337 93.3901 63.4007C93.4344 63.2676 93.5583 63.1987 93.6778 63.2479L94.5764 63.6273C94.6915 63.6766 94.7535 63.8244 94.7092 63.9574C94.6782 64.0609 94.5897 64.125 94.5012 64.125H94.4967Z" fill="#3F6B68"/>
<path d="M92.9423 63.4632C92.9158 63.4632 92.8892 63.4583 92.8671 63.4484L85.2666 60.236C85.1515 60.1867 85.0895 60.0389 85.1338 59.9059C85.1781 59.7728 85.302 59.7039 85.4215 59.7531L93.022 62.9656C93.1371 63.0149 93.1991 63.1627 93.1548 63.2957C93.1238 63.3992 93.0353 63.4632 92.9468 63.4632H92.9423Z" fill="#3F6B68"/>
<path d="M83.962 59.668C83.9355 59.668 83.9089 59.6631 83.8868 59.6532L81.8196 58.7811C81.7045 58.7318 81.6425 58.584 81.6868 58.451C81.731 58.318 81.855 58.249 81.9745 58.2983L84.0417 59.1703C84.1568 59.2196 84.2188 59.3674 84.1745 59.5005C84.1435 59.6039 84.055 59.668 83.9665 59.668H83.962Z" fill="#3F6B68"/>
<path d="M80.9272 58.3921C80.9006 58.3921 80.8741 58.3872 80.8519 58.3773L79.099 57.6383C78.9839 57.589 78.9219 57.4412 78.9662 57.3082C79.0105 57.1751 79.1344 57.1061 79.2539 57.1554L81.0069 57.8945C81.1219 57.9437 81.1839 58.0916 81.1397 58.2246C81.1087 58.3281 81.0201 58.3921 80.9316 58.3921H80.9272Z" fill="#3F6B68"/>
<path d="M94.8005 85.777C94.0258 85.777 93.4017 85.0528 93.4017 84.1609V67.7439H96.2037V84.1609C96.2037 85.0528 95.5751 85.777 94.8049 85.777H94.8005Z" fill="white"/>
<path d="M94.8013 85.8767C93.9779 85.8767 93.3139 85.1032 93.3139 84.1572V67.6366H96.293V84.1572C96.293 85.1032 95.6246 85.8767 94.8057 85.8767H94.8013ZM93.491 67.8386V84.1572C93.491 84.9898 94.0797 85.6698 94.8013 85.6698C95.5228 85.6698 96.1115 84.9898 96.1115 84.1572V67.8386H93.491Z" fill="#2D5B98"/>
<path d="M99.3108 85.777C98.5361 85.777 97.912 85.0528 97.912 84.161V67.7439H100.714V84.161C100.714 85.0528 100.085 85.777 99.3152 85.777H99.3108Z" fill="white"/>
<path d="M99.3096 85.8767C98.4863 85.8767 97.8223 85.1032 97.8223 84.1572V67.6366H100.801V84.1572C100.801 85.1032 100.133 85.8767 99.314 85.8767H99.3096ZM97.9993 67.8386V84.1572C97.9993 84.9898 98.5881 85.6698 99.3096 85.6698C100.031 85.6698 100.62 84.9898 100.62 84.1572V67.8386H97.9993Z" fill="#2D5B98"/>
<path d="M104.001 85.777C103.226 85.777 102.602 85.0528 102.602 84.1609V67.7439H105.404V84.1609C105.404 85.0528 104.775 85.777 104.005 85.777H104.001Z" fill="white"/>
<path d="M104.001 85.8767C103.178 85.8767 102.514 85.1032 102.514 84.1572V67.6366H105.493V84.1572C105.493 85.1032 104.825 85.8767 104.006 85.8767H104.001ZM102.691 67.8386V84.1572C102.691 84.9898 103.28 85.6698 104.001 85.6698C104.723 85.6698 105.312 84.9898 105.312 84.1572V67.8386H102.691Z" fill="#2D5B98"/>
<path d="M104 85.0172C103.452 85.0172 103.009 84.5048 103.009 83.8692V72.2265H104.996V83.8692C104.996 84.4999 104.554 85.0172 104.005 85.0172H104Z" fill="#3F6B68"/>
<path d="M99.308 85.0167C98.7591 85.0167 98.3164 84.5043 98.3164 83.8687V77.0299H100.304V83.8687C100.304 84.4994 99.8613 85.0167 99.3124 85.0167H99.308Z" fill="#3F6B68"/>
<path d="M108.508 85.777C107.733 85.777 107.109 85.0528 107.109 84.1609V67.7439H109.911V84.1609C109.911 85.0528 109.283 85.777 108.512 85.777H108.508Z" fill="white"/>
<path d="M108.507 85.8767C107.683 85.8767 107.019 85.1032 107.019 84.1572V67.6366H109.998V84.1572C109.998 85.1032 109.33 85.8767 108.511 85.8767H108.507ZM107.196 67.8386V84.1572C107.196 84.9898 107.785 85.6698 108.507 85.6698C109.228 85.6698 109.817 84.9898 109.817 84.1572V67.8386H107.196Z" fill="#2D5B98"/>
<path d="M108.505 85.0277C107.974 85.0277 107.54 84.5301 107.54 83.9142V71.0446H109.47V83.9142C109.47 84.5301 109.036 85.0277 108.505 85.0277Z" fill="#3F6B68"/>
<path d="M99.5307 71.0844L99.6413 73.883C99.6502 74.0949 99.5085 74.2772 99.3226 74.287C99.1367 74.2969 98.9818 74.1343 98.9729 73.9175C98.9729 73.9076 98.9729 73.8929 98.9729 73.883L99.0836 71.0844C99.088 70.9415 99.1942 70.8331 99.3182 70.8381C99.4333 70.843 99.5262 70.9514 99.5307 71.0844Z" fill="#3F6B68"/>
<path d="M99.5295 66.4604L99.6269 69.3477C99.6358 69.5497 99.4941 69.7222 99.3215 69.732C99.1444 69.7419 98.9983 69.5793 98.9895 69.3773C98.9895 69.3674 98.9895 69.3576 98.9895 69.3477L99.0869 66.4604C99.0913 66.3175 99.1931 66.2091 99.317 66.2141C99.4321 66.219 99.5251 66.3274 99.5295 66.4604Z" fill="#3F6B68"/>
<path d="M112.9 78.6271H90.5277C90.4495 78.6271 90.386 78.6977 90.386 78.7848V80.1693C90.386 80.2564 90.4495 80.327 90.5277 80.327H112.9C112.978 80.327 113.041 80.2564 113.041 80.1693V78.7848C113.041 78.6977 112.978 78.6271 112.9 78.6271Z" fill="#F2DA91"/>
<path d="M112.9 86.3286H90.5277C90.4495 86.3286 90.386 86.3992 90.386 86.4863V87.8708C90.386 87.9579 90.4495 88.0284 90.5277 88.0284H112.9C112.978 88.0284 113.041 87.9579 113.041 87.8708V86.4863C113.041 86.3992 112.978 86.3286 112.9 86.3286Z" fill="#F2DA91"/>
<path d="M92.3011 79.4735H91.0926C91.0218 79.4735 90.9643 79.5375 90.9643 79.6164V87.0317C90.9643 87.1106 91.0218 87.1746 91.0926 87.1746H92.3011C92.372 87.1746 92.4295 87.1106 92.4295 87.0317V79.6164C92.4295 79.5375 92.372 79.4735 92.3011 79.4735Z" fill="#F2DA91"/>
<path d="M112.352 79.4735H111.237C111.173 79.4735 111.122 79.5309 111.122 79.6016V87.0465C111.122 87.1172 111.173 87.1746 111.237 87.1746H112.352C112.416 87.1746 112.468 87.1172 112.468 87.0465V79.6016C112.468 79.5309 112.416 79.4735 112.352 79.4735Z" fill="#F2DA91"/>
<path opacity="0.3" d="M80.5657 45.0325C82.6373 54.0687 87.1569 53.9702 89.1444 53.9702C90.7469 53.9702 92.0748 52.8715 92.9115 51.9402L89.4454 51.0534V51.0435L83.8989 46.1903L80.5657 45.0325Z" fill="#3F6B68"/>
<path d="M80.548 33.6753L79.5476 36.4049C79.9903 48.0723 82.8499 52.6496 85.5147 53.9651L85.8378 51.5213L84.7622 49.8658L88.6797 35.0598L80.548 33.6704V33.6753Z" fill="#E1813B"/>
<path d="M103.29 29.0902C100.545 34.4016 99.6642 35.6679 96.6851 35.9192C93.706 36.1705 96.9418 26.9519 96.9418 26.9519L103.29 29.0902Z" fill="#313C60"/>
<path d="M99.0378 35.5821C99.8778 28.5279 96.6687 22.2355 91.8701 21.5276C87.0715 20.8197 82.5004 25.9643 81.6605 33.0184C80.8205 40.0726 84.0296 46.365 88.8282 47.0729C93.6269 47.7808 98.1979 42.6362 99.0378 35.5821Z" fill="#EE975A"/>
<path d="M135.034 83.3639C133.799 83.3639 132.799 82.2061 132.799 80.7821V55.3337H137.27V80.7821C137.27 82.2061 136.269 83.3639 135.034 83.3639Z" fill="white"/>
<path d="M135.033 83.4636C133.749 83.4636 132.709 82.2614 132.709 80.7783V55.2264H137.362V80.7783C137.362 82.2565 136.317 83.4636 135.038 83.4636H135.033ZM132.886 55.4334V80.7783C132.886 82.1431 133.851 83.2567 135.033 83.2567C136.215 83.2567 137.18 82.1431 137.18 80.7783V55.4334H132.886Z" fill="#2D5B98"/>
<path d="M135.033 82.1908C134.152 82.1908 133.435 81.368 133.435 80.3481V64.9016H136.627V80.3481C136.627 81.368 135.914 82.1908 135.029 82.1908H135.033Z" fill="#A4DCEE"/>
<path d="M138.793 75.9322H130.896C130.537 75.9322 130.245 75.5972 130.245 75.1833C130.245 74.7694 130.537 74.4344 130.896 74.4344H138.793C139.152 74.4344 139.444 74.7694 139.444 75.1833C139.444 75.5972 139.152 75.9322 138.793 75.9322Z" fill="#F2DA91"/>
<path d="M139.2 85.0202H130.489C130.354 85.0202 130.245 85.1416 130.245 85.2912V87.6562C130.245 87.8059 130.354 87.9272 130.489 87.9272H139.2C139.335 87.9272 139.444 87.8059 139.444 87.6562V85.2912C139.444 85.1416 139.335 85.0202 139.2 85.0202Z" fill="#F2DA91"/>
<path d="M132.285 75.1774H131.095V86.3274H132.285V75.1774Z" fill="#F2DA91"/>
<path d="M138.932 75.1774H137.741V86.3274H138.932V75.1774Z" fill="#F2DA91"/>
<path d="M136.264 61.9914C136.264 62.3806 135.994 62.6911 135.657 62.6911C135.321 62.6911 135.051 62.3757 135.051 61.9914C135.051 61.6071 135.321 61.2918 135.657 61.2918C135.994 61.2918 136.264 61.6071 136.264 61.9914Z" fill="#A4DCEE"/>
<path d="M134.226 59.0894C134.39 59.0894 134.522 58.935 134.522 58.7445C134.522 58.554 134.39 58.3996 134.226 58.3996C134.062 58.3996 133.929 58.554 133.929 58.7445C133.929 58.935 134.062 59.0894 134.226 59.0894Z" fill="#A4DCEE"/>
<path d="M136.163 56.8903C136.163 57.3633 135.831 57.7526 135.419 57.7526C135.007 57.7526 134.675 57.3683 134.675 56.8903C134.675 56.4124 135.007 56.0281 135.419 56.0281C135.831 56.0281 136.163 56.4124 136.163 56.8903Z" fill="#A4DCEE"/>
<path d="M135.049 53.8278C135.049 54.0643 134.881 54.2565 134.678 54.2565C134.474 54.2565 134.306 54.0643 134.306 53.8278C134.306 53.5913 134.474 53.3992 134.678 53.3992C134.881 53.3992 135.049 53.5913 135.049 53.8278Z" fill="white"/>
<path d="M136.481 60.4619C136.481 60.6639 136.339 60.8314 136.162 60.8314C135.985 60.8314 135.843 60.6639 135.843 60.4619C135.843 60.2599 135.985 60.0924 136.162 60.0924C136.339 60.0924 136.481 60.2599 136.481 60.4619Z" fill="#A4DCEE"/>
<path d="M134.224 67.4519C134.564 67.4519 134.839 67.132 134.839 66.7375C134.839 66.3429 134.564 66.023 134.224 66.023C133.884 66.023 133.609 66.3429 133.609 66.7375C133.609 67.132 133.884 67.4519 134.224 67.4519Z" fill="white"/>
<path d="M135.943 68.0815C135.943 68.2641 135.814 68.4121 135.655 68.4121C135.495 68.4121 135.367 68.2641 135.367 68.0815C135.367 67.899 135.495 67.7509 135.655 67.7509C135.814 67.7509 135.943 67.899 135.943 68.0815Z" fill="white"/>
<path d="M135.05 72.5834C135.05 72.7117 134.961 72.8154 134.846 72.8154C134.731 72.8154 134.642 72.7117 134.642 72.5834C134.642 72.4551 134.731 72.3515 134.846 72.3515C134.961 72.3515 135.05 72.4551 135.05 72.5834Z" fill="white"/>
<path d="M135.939 77.5003C135.939 77.8649 135.683 78.1654 135.364 78.1654C135.045 78.1654 134.788 77.8698 134.788 77.5003C134.788 77.1307 135.045 76.8351 135.364 76.8351C135.683 76.8351 135.939 77.1307 135.939 77.5003Z" fill="white"/>
<path d="M134.639 79.7759C134.857 79.7759 135.033 79.5707 135.033 79.3177C135.033 79.0646 134.857 78.8594 134.639 78.8594C134.422 78.8594 134.245 79.0646 134.245 79.3177C134.245 79.5707 134.422 79.7759 134.639 79.7759Z" fill="white"/>
<path d="M136.547 51.1221C136.547 51.5704 136.233 51.94 135.839 51.94C135.445 51.94 135.131 51.5754 135.131 51.1221C135.131 50.6688 135.445 50.3042 135.839 50.3042C136.233 50.3042 136.547 50.6688 136.547 51.1221Z" fill="white"/>
<path d="M134.246 48.923C134.246 49.2137 134.043 49.4453 133.79 49.4453C133.538 49.4453 133.335 49.2088 133.335 48.923C133.335 48.6372 133.538 48.4007 133.79 48.4007C134.043 48.4007 134.246 48.6372 134.246 48.923Z" fill="white"/>
<path d="M23.8311 65.957V56.7975H18.5678V65.957C18.5678 66.1097 18.5501 66.2624 18.5191 66.4103L14.3803 85.8131C14.1235 87.0154 14.9114 88.1732 15.9827 88.1732H26.4206C27.4919 88.1732 28.2798 87.0154 28.0231 85.8131L23.8842 66.4103C23.8532 66.2624 23.8355 66.1097 23.8355 65.957H23.8311Z" fill="white"/>
<path d="M26.4204 88.2729H15.9824C15.4468 88.2729 14.9466 87.9921 14.6146 87.5043C14.2826 87.0165 14.1675 86.3908 14.2959 85.7847L18.4348 66.3818C18.4658 66.2389 18.479 66.0961 18.479 65.9532V56.6902H23.9193V65.9532C23.9193 66.0961 23.9326 66.2439 23.9636 66.3818L28.1025 85.7847C28.2309 86.3858 28.1158 87.0116 27.7838 87.5043C27.4518 87.9921 26.9516 88.2729 26.4159 88.2729H26.4204ZM18.6605 56.8923V65.9532C18.6605 66.1158 18.6428 66.2784 18.6118 66.4311L14.473 85.834C14.3579 86.376 14.4641 86.9377 14.7607 87.3762C15.0573 87.8147 15.5044 88.066 15.9869 88.066H26.4248C26.9073 88.066 27.3544 87.8147 27.651 87.3762C27.9475 86.9377 28.0538 86.376 27.9387 85.834L23.7998 66.4311C23.7644 66.2734 23.7511 66.1108 23.7511 65.9532V56.8923H18.665H18.6605Z" fill="#2D5B98"/>
<path d="M23.6393 67.809C23.1081 67.7942 20.7399 68.7255 18.5 68.5924L15.1933 84.5414C14.9941 85.7141 15.6094 86.8473 16.4505 86.8473H25.9456C26.7866 86.8473 27.4063 85.7141 27.2027 84.5414L23.6349 67.809H23.6393Z" fill="#3F6B68"/>
<path d="M23.8914 73.1098C23.8914 73.7405 23.4488 74.2529 22.8999 74.2529C22.351 74.2529 21.9083 73.7405 21.9083 73.1098C21.9083 72.4792 22.351 71.9667 22.8999 71.9667C23.4488 71.9667 23.8914 72.4792 23.8914 73.1098Z" fill="white"/>
<path d="M20.4621 67.2896C20.4621 67.5704 20.2629 67.802 20.0195 67.802C19.776 67.802 19.5768 67.5754 19.5768 67.2896C19.5768 67.0038 19.776 66.7772 20.0195 66.7772C20.2629 66.7772 20.4621 67.0038 20.4621 67.2896Z" fill="#3F6B68"/>
<path d="M21.7714 62.5913C22.0232 62.5913 22.2273 62.3553 22.2273 62.0641C22.2273 61.7729 22.0232 61.5369 21.7714 61.5369C21.5196 61.5369 21.3154 61.7729 21.3154 62.0641C21.3154 62.3553 21.5196 62.5913 21.7714 62.5913Z" fill="#3F6B68"/>
<path d="M21.6216 59.1935C21.6216 59.7995 21.1967 60.2922 20.6699 60.2922C20.1432 60.2922 19.7182 59.7995 19.7182 59.1935C19.7182 58.5875 20.1432 58.0947 20.6699 58.0947C21.1967 58.0947 21.6216 58.5875 21.6216 59.1935Z" fill="#3F6B68"/>
<path d="M21.0238 81.8718C21.5127 81.8718 21.9091 81.4152 21.9091 80.8519C21.9091 80.2887 21.5127 79.832 21.0238 79.832C20.5348 79.832 20.1385 80.2887 20.1385 80.8519C20.1385 81.4152 20.5348 81.8718 21.0238 81.8718Z" fill="white"/>
<path d="M19.9869 70.0672C19.9869 70.4811 19.6947 70.8162 19.3406 70.8162C18.9865 70.8162 18.6943 70.4811 18.6943 70.0672C18.6943 69.6534 18.9865 69.3183 19.3406 69.3183C19.6947 69.3183 19.9869 69.6534 19.9869 70.0672Z" fill="white"/>
<path d="M18.2618 77.1518C18.472 77.1518 18.6425 76.9555 18.6425 76.7133C18.6425 76.4711 18.472 76.2748 18.2618 76.2748C18.0515 76.2748 17.8811 76.4711 17.8811 76.7133C17.8811 76.9555 18.0515 77.1518 18.2618 77.1518Z" fill="white"/>
<path d="M18.2607 85.1479C18.2607 85.5864 17.9552 85.9411 17.5745 85.9411C17.1938 85.9411 16.8884 85.5864 16.8884 85.1479C16.8884 84.7094 17.1938 84.3546 17.5745 84.3546C17.9552 84.3546 18.2607 84.7094 18.2607 85.1479Z" fill="white"/>
<path d="M28.806 71.4878V64.6687H24.8885V71.4878C24.8885 71.6011 24.8752 71.7145 24.8531 71.8278L21.7722 86.274C21.5818 87.1658 22.1661 88.0281 22.9629 88.0281H30.7316C31.5284 88.0281 32.1127 87.1658 31.9224 86.274L28.8415 71.8278C28.8193 71.7145 28.806 71.6011 28.806 71.4878Z" fill="white"/>
<path d="M30.731 88.1277H22.9623C22.555 88.1277 22.1787 87.9159 21.9264 87.5463C21.6741 87.1768 21.5856 86.7038 21.683 86.2456L24.7639 71.7993C24.786 71.6959 24.7949 71.5924 24.7949 71.484V64.5614H28.8895V71.484C28.8895 71.5875 28.9028 71.6959 28.9205 71.7993L32.0014 86.2456C32.0988 86.7038 32.0102 87.1768 31.7579 87.5463C31.5056 87.9159 31.1293 88.1277 30.7221 88.1277H30.731ZM24.9764 64.7684V71.484C24.9764 71.6072 24.9631 71.7304 24.9365 71.8486L21.8556 86.2949C21.7715 86.689 21.8468 87.098 22.0637 87.4182C22.2806 87.7385 22.6081 87.9208 22.9578 87.9208H30.7265C31.0807 87.9208 31.4038 87.7385 31.6207 87.4182C31.8376 87.098 31.9129 86.689 31.8287 86.2949L28.7478 71.8486C28.7213 71.7304 28.708 71.6072 28.708 71.484V64.7684H24.9675H24.9764Z" fill="#2D5B98"/>
<path d="M29.7146 78.8548C29.4578 79.1554 28.4441 79.2046 27.8996 79.1554C26.1821 78.9928 25.6554 78.5001 24.0662 78.4064L22.5833 85.6099C22.4416 86.4425 22.8799 87.2506 23.4775 87.2506H30.2236C30.8212 87.2506 31.2594 86.4475 31.1178 85.6099L29.719 78.8548H29.7146Z" fill="#99D2E4"/>
<path d="M29.0315 77.373C29.0315 77.846 28.6995 78.2254 28.2923 78.2254C27.885 78.2254 27.553 77.846 27.553 77.373C27.553 76.9 27.885 76.5206 28.2923 76.5206C28.6995 76.5206 29.0315 76.9 29.0315 77.373Z" fill="#99D2E4"/>
<path d="M28.0688 74.6309C28.2497 74.6309 28.3964 74.4611 28.3964 74.2516C28.3964 74.042 28.2497 73.8722 28.0688 73.8722C27.8879 73.8722 27.7412 74.042 27.7412 74.2516C27.7412 74.4611 27.8879 74.6309 28.0688 74.6309Z" fill="#99D2E4"/>
<path d="M27.046 68.204C27.046 68.4208 26.8955 68.5932 26.7052 68.5932C26.5149 68.5932 26.3643 68.4159 26.3643 68.204C26.3643 67.9921 26.5149 67.8147 26.7052 67.8147C26.8955 67.8147 27.046 67.9921 27.046 68.204Z" fill="#99D2E4"/>
<path d="M27.4191 70.1421C27.4191 70.5954 27.1004 70.96 26.7108 70.96C26.3213 70.96 26.0026 70.5954 26.0026 70.1421C26.0026 69.6888 26.3213 69.3242 26.7108 69.3242C27.1004 69.3242 27.4191 69.6888 27.4191 70.1421Z" fill="#99D2E4"/>
<path d="M26.3983 83.7385C26.3983 84.1573 26.1017 84.4973 25.7387 84.4973C25.3757 84.4973 25.0791 84.1573 25.0791 83.7385C25.0791 83.3197 25.3757 82.9797 25.7387 82.9797C26.1017 82.9797 26.3983 83.3197 26.3983 83.7385Z" fill="white"/>
<path d="M26.1173 79.833C26.1173 80.1385 25.9004 80.3898 25.6348 80.3898C25.3692 80.3898 25.1523 80.1385 25.1523 79.833C25.1523 79.5275 25.3692 79.2763 25.6348 79.2763C25.9004 79.2763 26.1173 79.5275 26.1173 79.833Z" fill="white"/>
<path d="M28.3516 84.067C28.3516 84.2496 28.223 84.3976 28.0678 84.3976C27.9127 84.3976 27.7841 84.2496 27.7841 84.067C27.7841 83.8845 27.9127 83.7364 28.0678 83.7364C28.223 83.7364 28.3516 83.8845 28.3516 84.067Z" fill="white"/>
<path d="M24.6629 85.7748C24.6629 86.0999 24.4327 86.366 24.1538 86.366C23.8749 86.366 23.6447 86.0999 23.6447 85.7748C23.6447 85.4496 23.8749 85.1835 24.1538 85.1835C24.4327 85.1835 24.6629 85.4496 24.6629 85.7748Z" fill="white"/>
<path d="M29.0619 86.848C29.4848 86.848 29.8277 86.451 29.8277 85.9612C29.8277 85.4714 29.4848 85.0743 29.0619 85.0743C28.6389 85.0743 28.2961 85.4714 28.2961 85.9612C28.2961 86.451 28.6389 86.848 29.0619 86.848Z" fill="white"/>
<path d="M95.0955 35.3782C95.0734 35.3486 94.4979 34.6983 93.3603 34.8067L93.2851 33.7818C94.8742 33.6291 95.7064 34.6293 95.7418 34.6687L95.0911 35.3733L95.0955 35.3782Z" fill="white"/>
<path opacity="0.5" d="M93.0128 36.6633C92.247 38.9692 90.286 40.2995 88.6393 39.6343C86.9926 38.9692 86.2755 36.5647 87.0457 34.2589C87.8115 31.953 89.7725 30.6227 91.4192 31.2878C93.0659 31.953 93.783 34.3574 93.0128 36.6633Z" fill="#D9E3EA"/>
<path opacity="0.5" d="M99.03 38.5712C98.3173 40.7145 96.737 42.0498 95.502 41.5521C94.267 41.0545 93.842 38.9112 94.5591 36.7679C95.2718 34.6246 96.8521 33.2894 98.0871 33.787C99.3222 34.2847 99.7471 36.428 99.03 38.5712Z" fill="#D9E3EA"/>
<path d="M89.5162 40.063C89.1975 40.063 88.8743 40.0039 88.5689 39.8807C87.8252 39.5802 87.2232 38.9298 86.8691 38.0479C86.4131 36.9097 86.3999 35.4956 86.8425 34.1702C87.6526 31.7412 89.7375 30.3419 91.4949 31.0514C92.2386 31.3519 92.8406 32.0023 93.1947 32.8843C93.6506 34.0224 93.6639 35.4365 93.2213 36.7619C92.5528 38.7623 91.0212 40.068 89.5162 40.068V40.063ZM90.5387 31.3815C89.2152 31.3815 87.8562 32.5591 87.2542 34.3575C86.8558 35.5498 86.8647 36.8161 87.2719 37.8311C87.5773 38.5948 88.0775 39.1367 88.715 39.393C88.9761 39.4964 89.2506 39.5506 89.525 39.5506C90.8486 39.5506 92.2076 38.373 92.8096 36.5747C93.208 35.3823 93.1991 34.116 92.7919 33.1011C92.4864 32.3374 91.9862 31.7954 91.3488 31.5392C91.0876 31.4357 90.8132 31.3815 90.5387 31.3815Z" fill="white"/>
<path d="M96.0461 41.9144C95.8337 41.9144 95.6256 41.875 95.4308 41.7962C94.9351 41.5942 94.5367 41.1606 94.2844 40.5299C93.8683 39.4903 93.8904 38.0516 94.3508 36.6769C94.7093 35.593 95.2936 34.6716 95.9975 34.0804C96.7234 33.4645 97.4936 33.2772 98.1621 33.5433C98.6578 33.7453 99.0562 34.1789 99.3086 34.8096C99.7247 35.8492 99.7025 37.2879 99.2422 38.6626C98.8836 39.7465 98.2993 40.6679 97.5955 41.2591C97.082 41.6927 96.5508 41.9144 96.0461 41.9144ZM97.5379 33.9375C96.5065 33.9375 95.3423 35.12 94.7624 36.8592C94.3463 38.1058 94.3198 39.3967 94.6872 40.3131C94.8864 40.8108 95.1962 41.1557 95.5725 41.3084C96.6924 41.7617 98.1532 40.4905 98.8216 38.4753C99.2377 37.2288 99.2643 35.9379 98.8969 35.0214C98.6977 34.5238 98.3878 34.1789 98.0116 34.0262C97.8566 33.967 97.7017 33.9375 97.5379 33.9375Z" fill="white"/>
<g opacity="0.5">
<path opacity="0.5" d="M99.2937 35.5957L94.2075 38.6554C94.1809 39.5867 94.3757 40.4046 94.7697 40.9515L99.1963 37.9607C99.3955 37.1133 99.422 36.2855 99.2892 35.5908L99.2937 35.5957Z" fill="white"/>
<path opacity="0.5" d="M98.5502 34.0794L94.7301 36.2916C94.6681 36.4444 94.6061 36.602 94.553 36.7646C94.4423 37.0997 94.3582 37.4347 94.3007 37.7599L99.0637 34.8332C98.9309 34.5277 98.7583 34.2715 98.5458 34.0794H98.5502Z" fill="white"/>
<path opacity="0.5" d="M92.7996 32.5894C90.9493 33.6044 88.6386 34.8706 86.7396 35.9103C86.6997 36.8661 86.9078 37.7628 87.3195 38.4576L93.2998 35.2402C93.3751 34.2547 93.1936 33.3186 92.7996 32.5943V32.5894Z" fill="white"/>
<path opacity="0.5" d="M87.1326 34.0167L91.8425 31.5137C91.7097 31.425 91.5636 31.3511 91.4176 31.292C89.8284 30.6515 87.9515 31.8635 87.1326 34.0167Z" fill="white"/>
</g>
<path d="M83.634 34.8878C82.1467 35.686 82.7885 32.7248 82.762 30.2366C82.7443 28.591 80.1768 19.6483 83.9616 17.6577C87.7463 15.6672 91.1282 17.0566 93.3238 16.0219C95.5194 14.9873 101.761 17.0665 102.398 20.5352C102.903 23.2845 104.142 25.1814 104.997 26.9502C105.851 28.724 102.814 31.7689 100.358 31.966C96.6925 32.2616 91.8011 24.2206 89.1496 24.8858C86.498 25.5509 84.8734 34.2276 83.6429 34.8878H83.634Z" fill="#313C60"/>
<path d="M81.6655 27.5077L87.9734 32.4496L87.212 33.6025L81.3955 27.9166L81.6655 27.5077Z" fill="white"/>
<path d="M82.7888 30.9291C82.7888 33.3039 81.8592 35.5507 80.5445 35.5507C79.2298 35.5507 78.163 33.6242 78.163 31.2493C78.163 28.8745 79.2298 26.948 80.5445 26.948C81.8592 26.948 82.7888 28.5493 82.7888 30.9241V30.9291Z" fill="#EE975A"/>
<path opacity="0.5" d="M119.813 76.3932C123.518 77.3786 125.475 79.9013 126.245 82.5718C127.011 85.2423 128.268 87.829 125.125 88.1098C121.987 88.3907 118.224 87.4348 118.104 87.1737C117.985 86.9125 119.818 76.3883 119.818 76.3883L119.813 76.3932Z" fill="#99D2E4"/>
<path d="M121.897 77.029C125.987 79.0688 125.473 86.2131 124.225 86.8142C118.404 89.6128 115.474 87.7651 113.039 86.3215C110.604 84.8828 111.122 82.1827 111.122 82.1827C111.122 82.1827 111.233 80.7243 115.084 78.8569C117.895 77.4921 121.897 77.024 121.897 77.024V77.029Z" fill="#3F6B68"/>
<path d="M123.355 78.1657C120.261 74.6133 115.985 75.0567 114.064 75.9288C112.143 76.8009 108.898 78.2987 111.125 78.6289C113.351 78.954 116.277 78.486 117.3 78.8653C118.322 79.2497 123.355 78.1657 123.355 78.1657Z" fill="#3F6B68"/>
<path d="M48.9209 33.5058H44.3482C44.2685 33.5058 44.1933 33.4566 44.1534 33.3777L41.8649 28.8054C41.8251 28.7266 41.8251 28.628 41.8649 28.5492L44.1534 23.9768C44.1933 23.898 44.2685 23.8487 44.3482 23.8487H48.9209C49.0006 23.8487 49.0758 23.898 49.1157 23.9768L51.4042 28.5492C51.4441 28.628 51.4441 28.7266 51.4042 28.8054L49.1157 33.3777C49.0758 33.4566 49.0006 33.5058 48.9209 33.5058ZM44.4766 32.9934H48.7925L50.9527 28.6773L48.7925 24.3612H44.4766L42.3164 28.6773L44.4766 32.9934Z" fill="white"/>
<path d="M50.1363 28.8066C50.0965 28.8066 50.0611 28.782 50.039 28.7426L48.286 25.2345C48.255 25.1754 48.2727 25.0965 48.3259 25.0571C48.379 25.0226 48.4454 25.0423 48.4764 25.1064L50.2293 28.6145C50.2603 28.6736 50.2426 28.7524 50.1895 28.7919C50.1718 28.8017 50.154 28.8116 50.1319 28.8116L50.1363 28.8066Z" fill="white"/>
<path d="M43.1246 28.8086C43.1246 28.8086 43.0848 28.8037 43.0671 28.7889C43.0139 28.7544 42.9962 28.6756 43.0272 28.6115L44.7802 25.1034C44.8111 25.0443 44.8775 25.0196 44.9307 25.0541C44.9838 25.0886 45.0015 25.1675 44.9705 25.2315L43.2176 28.7396C43.1954 28.779 43.16 28.8037 43.1202 28.8037L43.1246 28.8086Z" fill="white"/>
<path d="M48.3827 32.3135H44.8769C44.8149 32.3135 44.7662 32.2543 44.7662 32.1854C44.7662 32.1164 44.8149 32.0573 44.8769 32.0573H48.3827C48.4447 32.0573 48.4934 32.1164 48.4934 32.1854C48.4934 32.2543 48.4447 32.3135 48.3827 32.3135Z" fill="white"/>
<path d="M58.1091 33.5058C58.0338 33.5058 57.9585 33.4615 57.9143 33.3777L55.6257 28.8054C55.5859 28.7266 55.5859 28.628 55.6257 28.5492L57.9143 23.9768C57.9541 23.898 58.0294 23.8487 58.1091 23.8487H62.6817C62.8057 23.8487 62.9031 23.9621 62.9031 24.1049C62.9031 24.2478 62.8013 24.3612 62.6817 24.3612H58.2374L56.0772 28.6773L58.2994 33.1215C58.3614 33.2447 58.326 33.4024 58.2197 33.4714C58.1843 33.496 58.1445 33.5058 58.1091 33.5058Z" fill="white"/>
<path d="M41.9925 38.0893C41.9526 38.0893 41.9172 38.0795 41.8818 38.0549C41.7756 37.9859 41.7402 37.8282 41.8021 37.705L44.0907 33.1327C44.1527 33.0095 44.2899 32.9652 44.3961 33.0391C44.5024 33.1081 44.5378 33.2657 44.4758 33.3889L42.1872 37.9612C42.1474 38.045 42.0721 38.0893 41.9925 38.0893Z" fill="white"/>
<path d="M62.6844 24.3617C62.6446 24.3617 62.6092 24.3518 62.5738 24.3272C62.4675 24.2582 62.4321 24.1005 62.4941 23.9774L64.7826 19.405C64.8446 19.2818 64.9818 19.2375 65.0881 19.3114C65.1943 19.3804 65.2297 19.538 65.1678 19.6612L62.8792 24.2336C62.8394 24.3173 62.7641 24.3617 62.6844 24.3617Z" fill="white"/>
<path d="M55.8208 28.934H51.2481C51.1685 28.934 51.0932 28.8847 51.0534 28.8059L48.7648 24.2336C48.725 24.1547 48.725 24.0562 48.7648 23.9774L51.0534 19.405C51.1153 19.2818 51.2526 19.2375 51.3588 19.3114C51.465 19.3804 51.5005 19.538 51.4385 19.6612L49.2163 24.1055L51.3765 28.4216H55.8208C55.9448 28.4216 56.0422 28.5349 56.0422 28.6778C56.0422 28.8207 55.9403 28.934 55.8208 28.934Z" fill="white"/>
<path d="M72.8026 18.1625H66.3663C66.0387 18.1625 65.7731 17.8521 65.7731 17.4777C65.7731 17.1032 66.0387 16.7928 66.3663 16.7928H72.8026C73.1301 16.7928 73.3957 17.1032 73.3957 17.4777C73.3957 17.8521 73.1301 18.1625 72.8026 18.1625Z" fill="white"/>
<path d="M72.8026 16.1109H66.3663C66.0387 16.1109 65.7731 15.8005 65.7731 15.426C65.7731 15.0516 66.0387 14.7412 66.3663 14.7412H72.8026C73.1301 14.7412 73.3957 15.0516 73.3957 15.426C73.3957 15.8005 73.1301 16.1109 72.8026 16.1109Z" fill="white"/>
<path d="M67.6264 25.5982H64.8553C64.5012 25.5982 64.209 25.2631 64.209 24.8492C64.209 24.4354 64.5012 24.1003 64.8553 24.1003H67.6264C67.9805 24.1003 68.2727 24.4354 68.2727 24.8492C68.2727 25.2631 67.9805 25.5982 67.6264 25.5982Z" fill="white"/>
<path d="M55.4538 16.7928H51.824C51.7384 16.7928 51.6691 16.87 51.6691 16.9652V18.4779C51.6691 18.5731 51.7384 18.6503 51.824 18.6503H55.4538C55.5394 18.6503 55.6087 18.5731 55.6087 18.4779V16.9652C55.6087 16.87 55.5394 16.7928 55.4538 16.7928Z" fill="white"/>
<path d="M65.0398 34.0563H59.1347C59.0344 34.0563 58.9532 34.1467 58.9532 34.2583V36.0074C58.9532 36.1189 59.0344 36.2094 59.1347 36.2094H65.0398C65.14 36.2094 65.2212 36.1189 65.2212 36.0074V34.2583C65.2212 34.1467 65.14 34.0563 65.0398 34.0563Z" fill="white"/>
<path d="M41.443 38.4092H37.5078C37.4247 38.4092 37.3573 38.4842 37.3573 38.5767V40.0499C37.3573 40.1424 37.4247 40.2174 37.5078 40.2174H41.443C41.5262 40.2174 41.5935 40.1424 41.5935 40.0499V38.5767C41.5935 38.4842 41.5262 38.4092 41.443 38.4092Z" fill="white"/>
<path d="M125.742 42.6979H122.515C122.444 42.6979 122.378 42.6486 122.342 42.5747L120.727 39.111C120.691 39.0371 120.691 38.9385 120.727 38.8646L122.342 35.4009C122.378 35.327 122.444 35.2777 122.515 35.2777H125.742C125.813 35.2777 125.879 35.327 125.915 35.4009L127.53 38.8646C127.566 38.9385 127.566 39.0371 127.53 39.111L125.915 42.5747C125.879 42.6486 125.813 42.6979 125.742 42.6979ZM122.63 42.2052H125.627L127.128 38.9878L125.627 35.7704H122.63L121.13 38.9878L122.63 42.2052Z" fill="white"/>
<path d="M130.702 46.2454H127.475C127.405 46.2454 127.338 46.1961 127.303 46.1222L125.687 42.6585C125.652 42.5846 125.652 42.486 125.687 42.4121L127.303 38.9484C127.338 38.8745 127.405 38.8252 127.475 38.8252H130.702C130.773 38.8252 130.84 38.8745 130.875 38.9484L132.491 42.4121C132.526 42.486 132.526 42.5846 132.491 42.6585L130.875 46.1222C130.84 46.1961 130.773 46.2454 130.702 46.2454ZM127.591 45.7527H130.587L132.088 42.5353L130.587 39.3179H127.591L126.09 42.5353L127.591 45.7527Z" fill="white"/>
<path d="M120.778 46.2467C120.743 46.2467 120.712 46.2368 120.681 46.2122C120.588 46.1432 120.552 45.9954 120.61 45.8771L122.226 42.4134C122.279 42.2951 122.403 42.2557 122.496 42.3247C122.589 42.3937 122.624 42.5415 122.567 42.6597L120.951 46.1235C120.915 46.2023 120.849 46.2467 120.778 46.2467Z" fill="white"/>
<path d="M137.187 46.2096C137.116 46.2096 137.05 46.1653 137.014 46.0864L135.399 42.6227C135.345 42.5044 135.376 42.3566 135.469 42.2876C135.562 42.2187 135.686 42.2581 135.739 42.3763L137.355 45.8401C137.408 45.9583 137.377 46.1061 137.284 46.1751C137.253 46.1997 137.218 46.2096 137.187 46.2096Z" fill="white"/>
<path d="M120.782 39.3218H117.555C117.444 39.3218 117.355 39.2134 117.355 39.0754C117.355 38.9375 117.444 38.8291 117.555 38.8291H120.782C120.892 38.8291 120.981 38.9375 120.981 39.0754C120.981 39.2134 120.892 39.3218 120.782 39.3218Z" fill="white"/>
<path d="M135.547 42.6974H132.32C132.249 42.6974 132.183 42.6481 132.147 42.5742L130.531 39.1104C130.496 39.0365 130.496 38.938 130.531 38.8641L132.147 35.4003C132.2 35.2821 132.324 35.2427 132.417 35.3117C132.51 35.3806 132.546 35.5285 132.488 35.6467L130.93 38.9873L132.43 42.2047H135.542C135.653 42.2047 135.742 42.3131 135.742 42.451C135.742 42.589 135.653 42.6974 135.542 42.6974H135.547Z" fill="white"/>
<path d="M131.513 42.7216C131.477 42.7216 131.446 42.7019 131.429 42.6575L130.127 39.8639C130.101 39.8047 130.114 39.7308 130.163 39.6964C130.211 39.6619 130.269 39.6816 130.3 39.7407L131.601 42.5344C131.628 42.5935 131.615 42.6674 131.566 42.7019C131.548 42.7117 131.535 42.7167 131.517 42.7167L131.513 42.7216Z" fill="white"/>
<path d="M122.891 41.844C122.855 41.844 122.824 41.8243 122.807 41.7799L121.505 38.9863C121.479 38.9271 121.492 38.8532 121.541 38.8188C121.589 38.7843 121.647 38.804 121.678 38.8631L122.979 41.6568C123.006 41.7159 122.993 41.7898 122.944 41.8243C122.926 41.8341 122.913 41.8391 122.895 41.8391L122.891 41.844Z" fill="white"/>
<path d="M126.579 39.1176C126.543 39.1176 126.512 39.0979 126.495 39.0535L125.193 36.2598C125.167 36.2007 125.18 36.1268 125.229 36.0923C125.277 36.0578 125.335 36.0775 125.366 36.1367L126.667 38.9303C126.694 38.9895 126.681 39.0634 126.632 39.0979C126.614 39.1077 126.601 39.1126 126.583 39.1126L126.579 39.1176Z" fill="white"/>
<path d="M138.919 40.5043H135.453C135.387 40.5043 135.334 40.5639 135.334 40.6374V41.7657C135.334 41.8391 135.387 41.8987 135.453 41.8987H138.919C138.985 41.8987 139.039 41.8391 139.039 41.7657V40.6374C139.039 40.5639 138.985 40.5043 138.919 40.5043Z" fill="white"/>
<path d="M133.762 32.7483H130.871C130.778 32.7483 130.703 32.8321 130.703 32.9355V34.5023C130.703 34.6057 130.778 34.6895 130.871 34.6895H133.762C133.855 34.6895 133.93 34.6057 133.93 34.5023V32.9355C133.93 32.8321 133.855 32.7483 133.762 32.7483Z" fill="white"/>
<path d="M140.476 46.5871H136.235C136.164 46.5871 136.107 46.6511 136.107 46.73V47.9421C136.107 48.021 136.164 48.0849 136.235 48.0849H140.476C140.547 48.0849 140.604 48.021 140.604 47.9421V46.73C140.604 46.6511 140.547 46.5871 140.476 46.5871Z" fill="white"/>
<path d="M121.19 46.63H117.135C117.067 46.63 117.011 46.6918 117.011 46.768V47.9061C117.011 47.9823 117.067 48.0441 117.135 48.0441H121.19C121.258 48.0441 121.314 47.9823 121.314 47.9061V46.768C121.314 46.6918 121.258 46.63 121.19 46.63Z" fill="white"/>
<path d="M116.866 38.1387H113.391C113.311 38.1387 113.245 38.2115 113.245 38.3013V39.6464C113.245 39.7362 113.311 39.809 113.391 39.809H116.866C116.947 39.809 117.012 39.7362 117.012 39.6464V38.3013C117.012 38.2115 116.947 38.1387 116.866 38.1387Z" fill="white"/>
<path d="M10.4066 40.2367C11.558 40.2367 12.4915 39.158 12.4915 37.8274C12.4915 36.4967 11.558 35.418 10.4066 35.418C9.25509 35.418 8.32164 36.4967 8.32164 37.8274C8.32164 39.158 9.25509 40.2367 10.4066 40.2367Z" fill="white"/>
<path d="M22.7771 42.8343H8.40837C8.19589 42.8343 8.02325 42.6372 8.02325 42.3908C8.02325 42.1445 8.19589 41.9474 8.40837 41.9474H22.7771C22.9896 41.9474 23.1622 42.1445 23.1622 42.3908C23.1622 42.6372 22.9896 42.8343 22.7771 42.8343Z" fill="white"/>
<path d="M22.7771 44.6967H8.40837C8.19589 44.6967 8.02325 44.4997 8.02325 44.2533C8.02325 44.007 8.19589 43.8099 8.40837 43.8099H22.7771C22.9896 43.8099 23.1622 44.007 23.1622 44.2533C23.1622 44.4997 22.9896 44.6967 22.7771 44.6967Z" fill="white"/>
<path d="M32.7224 61.5277C34.7442 61.5277 36.3832 59.635 36.3832 57.3002C36.3832 54.9655 34.7442 53.0728 32.7224 53.0728C30.7006 53.0728 29.0616 54.9655 29.0616 57.3002C29.0616 59.635 30.7006 61.5277 32.7224 61.5277Z" fill="white"/>
<path d="M32.7213 60.3583C31.265 60.3583 30.0786 58.9886 30.0786 57.3035C30.0786 55.6185 31.265 54.2487 32.7213 54.2487C34.1777 54.2487 35.364 55.6185 35.364 57.3035C35.364 58.9886 34.1777 60.3583 32.7213 60.3583ZM32.7213 54.5099C31.3845 54.5099 30.3 55.7614 30.3 57.3035C30.3 58.8457 31.3845 60.0972 32.7213 60.0972C34.0582 60.0972 35.1427 58.8457 35.1427 57.3035C35.1427 55.7614 34.0582 54.5099 32.7213 54.5099Z" fill="#3F6B68"/>
<path d="M36.7692 55.1272C36.6895 55.1272 36.6099 55.0779 36.57 54.9892C36.5125 54.8611 36.5567 54.7084 36.663 54.6443L49.8233 46.7314C49.9339 46.6674 50.0667 46.7166 50.1243 46.8398C50.1818 46.9679 50.1376 47.1207 50.0313 47.1847L36.871 55.0976C36.84 55.1173 36.8046 55.1272 36.7692 55.1272Z" fill="white"/>
<path d="M44.6383 57.5579H44.6295L37.3433 57.1933C37.2194 57.1883 37.1264 57.0652 37.1308 56.9272C37.1353 56.7843 37.2415 56.6759 37.361 56.6809L44.6472 57.0455C44.7711 57.0504 44.8641 57.1736 44.8597 57.3115C44.8553 57.4495 44.7579 57.5579 44.6383 57.5579Z" fill="white"/>
<path d="M53.6194 45.6587C53.6194 46.6737 52.9067 47.4965 52.0258 47.4965C51.1449 47.4965 50.4322 46.6737 50.4322 45.6587C50.4322 44.6437 51.1449 43.8209 52.0258 43.8209C52.9067 43.8209 53.6194 44.6437 53.6194 45.6587Z" fill="white"/>
<path d="M49.0315 57.3048C49.0315 58.3888 48.2701 59.2707 47.3272 59.2707C46.3843 59.2707 45.623 58.3888 45.623 57.3048C45.623 56.2209 46.3843 55.3389 47.3272 55.3389C48.2701 55.3389 49.0315 56.2209 49.0315 57.3048Z" fill="white"/>
<path d="M115.994 58.3004H113.542C113.179 58.3004 112.887 57.9358 112.887 57.4874V54.4524C112.887 54.004 113.179 53.6394 113.542 53.6394H115.994C116.357 53.6394 116.65 54.004 116.65 54.4524V57.4874C116.65 57.9358 116.357 58.3004 115.994 58.3004ZM113.542 54.137C113.401 54.137 113.285 54.2799 113.285 54.4573V57.4924C113.285 57.6697 113.401 57.8126 113.542 57.8126H115.994C116.136 57.8126 116.251 57.6697 116.251 57.4924V54.4573C116.251 54.2799 116.136 54.137 115.994 54.137H113.542Z" fill="white"/>
<path d="M115.994 65.0911H113.542C113.179 65.0911 112.887 64.7265 112.887 64.2781V61.2431C112.887 60.7947 113.179 60.4301 113.542 60.4301H115.994C116.357 60.4301 116.65 60.7947 116.65 61.2431V64.2781C116.65 64.7265 116.357 65.0911 115.994 65.0911ZM113.542 60.9277C113.401 60.9277 113.285 61.0706 113.285 61.248V64.2831C113.285 64.4605 113.401 64.6033 113.542 64.6033H115.994C116.136 64.6033 116.251 64.4605 116.251 64.2831V61.248C116.251 61.0706 116.136 60.9277 115.994 60.9277H113.542Z" fill="white"/>
<path d="M114.766 57.0899H114.757C114.7 57.0899 114.647 57.0505 114.611 56.9963L113.544 55.3555C113.474 55.2471 113.491 55.0944 113.575 55.0106C113.659 54.9269 113.788 54.9417 113.854 55.0501L114.779 56.4789L116.829 53.9415C116.909 53.8429 117.033 53.8429 117.112 53.9415C117.192 54.04 117.192 54.1927 117.112 54.2913L114.908 57.0209C114.872 57.0652 114.819 57.0948 114.766 57.0948V57.0899Z" fill="#EF9690"/>
<path d="M114.766 63.7168H114.757C114.7 63.7168 114.647 63.6773 114.611 63.6231L113.544 61.9824C113.474 61.874 113.491 61.7213 113.575 61.6375C113.659 61.5538 113.788 61.5686 113.854 61.6769L114.779 63.1058L116.829 60.5684C116.909 60.4698 117.033 60.4698 117.112 60.5684C117.192 60.6669 117.192 60.8196 117.112 60.9182L114.908 63.6478C114.872 63.6921 114.819 63.7217 114.766 63.7217V63.7168Z" fill="#EF9690"/>
<path d="M126.242 56.318H119.505C119.319 56.318 119.164 56.1308 119.164 55.8992C119.164 55.6676 119.314 55.4804 119.505 55.4804H126.242C126.428 55.4804 126.583 55.6676 126.583 55.8992C126.583 56.1308 126.432 56.318 126.242 56.318Z" fill="white"/>
<path d="M126.242 57.9523H119.505C119.319 57.9523 119.164 57.7651 119.164 57.5335C119.164 57.3019 119.314 57.1147 119.505 57.1147H126.242C126.428 57.1147 126.583 57.3019 126.583 57.5335C126.583 57.7651 126.432 57.9523 126.242 57.9523Z" fill="white"/>
<path d="M126.242 63.1809H119.505C119.319 63.1809 119.164 62.9936 119.164 62.7621C119.164 62.5305 119.314 62.3433 119.505 62.3433H126.242C126.428 62.3433 126.583 62.5305 126.583 62.7621C126.583 62.9936 126.432 63.1809 126.242 63.1809Z" fill="white"/>
<path d="M123.595 64.8015H119.505C119.319 64.8015 119.164 64.6143 119.164 64.3827C119.164 64.1511 119.314 63.9639 119.505 63.9639H123.595C123.781 63.9639 123.936 64.1511 123.936 64.3827C123.936 64.6143 123.785 64.8015 123.595 64.8015Z" fill="white"/>
<path opacity="0.5" d="M137.123 9.7618H135.002C134.863 9.7618 134.75 9.88753 134.75 10.0426V12.7328C134.75 12.8879 134.863 13.0137 135.002 13.0137H137.123C137.262 13.0137 137.375 12.8879 137.375 12.7328V10.0426C137.375 9.88753 137.262 9.7618 137.123 9.7618Z" fill="#3F6B68"/>
<path opacity="0.5" d="M142.384 9.7618H140.264C140.125 9.7618 140.012 9.88753 140.012 10.0426V12.7328C140.012 12.8879 140.125 13.0137 140.264 13.0137H142.384C142.524 13.0137 142.637 12.8879 142.637 12.7328V10.0426C142.637 9.88753 142.524 9.7618 142.384 9.7618Z" fill="#3F6B68"/>
<path d="M148.037 9.7618H145.917C145.777 9.7618 145.664 9.88753 145.664 10.0426V12.7328C145.664 12.8879 145.777 13.0137 145.917 13.0137H148.037C148.176 13.0137 148.289 12.8879 148.289 12.7328V10.0426C148.289 9.88753 148.176 9.7618 148.037 9.7618Z" fill="#3F6B68"/>
<path d="M17.5526 21.7718H11.05C10.8375 21.7718 10.6648 21.5747 10.6648 21.3283C10.6648 21.082 10.8375 20.8849 11.05 20.8849H17.5526C17.7651 20.8849 17.9378 21.082 17.9378 21.3283C17.9378 21.5747 17.7651 21.7718 17.5526 21.7718Z" fill="white"/>
<path d="M17.5526 23.3554H11.05C10.8375 23.3554 10.6648 23.1583 10.6648 22.9119C10.6648 22.6656 10.8375 22.4685 11.05 22.4685H17.5526C17.7651 22.4685 17.9378 22.6656 17.9378 22.9119C17.9378 23.1583 17.7651 23.3554 17.5526 23.3554Z" fill="white"/>
<path d="M17.5526 25.2529H11.05C10.8375 25.2529 10.6648 25.0559 10.6648 24.8095C10.6648 24.5632 10.8375 24.3661 11.05 24.3661H17.5526C17.7651 24.3661 17.9378 24.5632 17.9378 24.8095C17.9378 25.0559 17.7651 25.2529 17.5526 25.2529Z" fill="white"/>
<path d="M31.5103 31.5273H23.2857C23.073 31.5273 22.9006 31.7192 22.9006 31.956V35.7301C22.9006 35.9669 23.073 36.1588 23.2857 36.1588H31.5103C31.723 36.1588 31.8955 35.9669 31.8955 35.7301V31.956C31.8955 31.7192 31.723 31.5273 31.5103 31.5273Z" fill="#3F6B68"/>
<path opacity="0.5" d="M143.889 17.1483H119.552C119.476 17.1483 119.415 17.2167 119.415 17.301V18.5771C119.415 18.6615 119.476 18.7299 119.552 18.7299H143.889C143.965 18.7299 144.027 18.6615 144.027 18.5771V17.301C144.027 17.2167 143.965 17.1483 143.889 17.1483Z" fill="#3F6B68"/>
<path opacity="0.5" d="M143.889 20.1438H119.552C119.476 20.1438 119.415 20.2122 119.415 20.2966V21.5727C119.415 21.657 119.476 21.7254 119.552 21.7254H143.889C143.965 21.7254 144.027 21.657 144.027 21.5727V20.2966C144.027 20.2122 143.965 20.1438 143.889 20.1438Z" fill="#3F6B68"/>
</svg>
