<svg width="165" height="86" viewBox="0 0 165 86" fill="none" xmlns="http://www.w3.org/2000/svg">
<path opacity="0.5" d="M164.241 85.2723H6.12573C8.31418 82.3659 11.3834 80.2184 14.626 78.7819C20.5508 76.1618 27.1073 76.1809 32.783 73.0883C38.7568 69.8288 43.5162 64.1257 46.9501 58.0361C52.3768 48.4245 55.4949 37.4097 61.4553 28.1656C67.4157 18.9262 77.6818 11.3953 87.8501 13.9867C99.2728 16.8931 101.733 27.3304 108.013 36.0782C114.534 45.1697 123.879 51.9608 134.27 54.7431C140.751 56.4803 147.752 56.8191 153.464 60.5464C161.083 65.5145 164.521 75.5605 164.246 85.2771L164.241 85.2723Z" fill="#3F6B68"/>
<path d="M93.0958 65.7428C91.8548 65.4994 90.5737 65.4803 89.3327 65.6951C87.6514 61.7578 87.0865 57.2718 87.767 53.0005C87.9005 52.1605 88.2607 51.1488 89.0525 51.0819C89.5284 51.0438 89.9644 51.3921 90.4358 51.4399C90.9607 51.4971 91.4723 51.1774 91.8192 50.7479C92.1662 50.3184 92.3841 49.7934 92.6199 49.2875C93.038 48.3903 93.5184 47.5265 94.0699 46.7152C94.3457 46.3047 94.6882 45.8752 95.1553 45.8275C95.738 45.7655 96.2228 46.3334 96.4674 46.9061C97.2058 48.6241 96.7743 50.6333 96.3295 52.466C95.2531 56.89 94.1811 61.3092 93.1047 65.7332C93.1047 65.738 93.1047 65.7476 93.1002 65.7523L93.0958 65.7428Z" fill="#0378B7"/>
<path d="M91.1526 65.5883C90.9391 60.6488 91.5574 55.6712 92.963 50.9656" stroke="#042236" stroke-width="1.2831" stroke-miterlimit="10" stroke-linecap="round"/>
<path d="M99.0061 82.317C95.9502 84.7819 90.8083 85.3397 87.0585 83.6125C82.6816 81.5973 80.3553 77.0165 75.4891 75.9693C73.4652 75.5339 71.1567 75.7678 69.4131 74.825C67.3803 73.7275 66.931 71.5037 65.6144 69.8412C63.0167 66.5594 56.9674 65.3971 55.6151 61.6583C55.1481 60.3701 55.4817 58.7903 56.8384 58.0167C58.4664 57.0883 60.7794 57.6784 62.3629 58.6608C63.9464 59.6431 65.2052 60.9782 66.9711 61.7267C71.2279 63.5331 76.9703 61.3848 81.0225 63.4719C84.621 65.3251 85.0836 69.6073 88.3663 71.8095C90.1989 73.0402 92.6453 73.4396 94.945 73.9506C97.2446 74.4616 99.6644 75.2209 100.932 76.8546C102.204 78.4847 101.057 80.6653 99.0016 82.317H99.0061Z" fill="#0378B7"/>
<path d="M99.006 82.3187C99.006 82.3187 81.5073 76.1438 69.6621 68.2272" stroke="#042236" stroke-width="0.12831" stroke-miterlimit="10"/>
<path d="M93.2379 81.6896C92.7664 77.0937 92.2727 72.3977 90.4045 68.2361C90.102 67.568 89.7506 66.8903 89.1991 66.4464C88.643 65.9978 87.8379 65.8356 87.2552 66.2317C86.4457 66.7853 86.4368 68.0405 86.6147 69.0474C87.4954 74.0346 90.5602 78.2153 93.2423 81.6848L93.2379 81.6896Z" fill="white"/>
<path d="M93.3458 81.7757C90.9528 81.0407 88.8844 79.4611 86.7894 78.0198C84.6943 76.5785 82.4303 75.2279 79.9482 75.0418C79.2054 74.9893 78.3025 75.1468 78.0133 75.8818C77.831 76.3399 77.9689 76.8935 78.2446 77.2944C78.5204 77.6953 78.9207 77.9816 79.3122 78.2489C81.4383 79.7092 83.6757 81.0265 86.0955 81.8139C88.5108 82.5966 91.1307 82.8256 93.3458 81.7757Z" fill="white"/>
<path d="M84.2816 71.7622C83.4988 67.887 82.7115 64.0118 81.9286 60.1366C81.8308 59.6498 81.6662 59.0771 81.2214 58.9244C80.8522 58.8003 80.4385 59.0533 80.2428 59.4112C80.0426 59.7691 80.0115 60.2034 80.007 60.6187C79.9893 62.6756 80.5542 64.699 81.3726 66.5603C82.191 68.4215 83.2675 70.1348 84.2772 71.7622H84.2816Z" fill="white"/>
<path d="M84.219 71.5266C81.777 69.4601 79.3217 67.3794 76.5817 65.7997C76.1279 65.5372 75.6431 65.2843 75.1271 65.3129C74.6156 65.3415 74.0818 65.7568 74.0818 66.3104C74.0818 66.7733 74.4288 67.1408 74.7579 67.4319C77.4134 69.8085 80.7539 71.288 84.219 71.5218V71.5266Z" fill="white"/>
<path d="M77.2766 60.8815C76.4982 57.7556 78.0684 54.3528 77.2366 51.2412C77.1298 50.8498 76.943 50.4251 76.5783 50.3201C76.2803 50.2342 75.96 50.406 75.7687 50.6637C75.5775 50.9214 75.4929 51.2508 75.4307 51.5753C74.8391 54.6583 75.9378 57.7937 77.2811 60.8815H77.2766Z" fill="white"/>
<path d="M77.1788 60.8048C75.4307 58.9149 73.6871 57.0298 71.939 55.1399C71.6588 54.8345 71.3696 54.529 71.0093 54.3477C70.649 54.1663 70.1953 54.1425 69.8706 54.3906C69.5682 54.6245 69.4436 55.0588 69.4836 55.4596C69.5237 55.8558 69.6972 56.228 69.9018 56.5621C70.6713 57.8316 71.85 58.7622 73.1177 59.4208C74.3854 60.0794 75.7554 60.4898 77.1788 60.8048Z" fill="white"/>
<path d="M95.1921 83.557C87.2612 76.4891 80.6113 67.7699 75.7273 58.0246" stroke="#042236" stroke-width="0.12831" stroke-miterlimit="10"/>
<path d="M109.315 83.8787C115.836 79.4833 122.384 75.0736 128.269 69.7428C134.153 64.4168 139.398 58.1029 142.747 50.6627" stroke="#042236" stroke-width="0.320774" stroke-miterlimit="10" stroke-linecap="round"/>
<path d="M109.315 83.8821C118.425 79.5679 129.269 79.3961 136.444 79.439C128.148 81.1141 115.89 83.9967 109.315 83.8821Z" fill="#042236"/>
<path d="M109.274 83.2465C109.817 76.4887 111.885 69.8742 115.257 64.1329C114.167 70.8334 113.002 77.7391 109.274 83.2465Z" fill="#042236"/>
<path d="M118.766 77.4448C122.244 71.6225 124.597 65.0318 125.638 58.212C121.83 63.5333 119.464 70.0237 118.766 77.4448Z" fill="#042236"/>
<path d="M120.701 76.0171C126.208 73.23 132.195 71.5454 138.271 71.0777C132.938 74.762 126.555 76.671 120.701 76.0171Z" fill="#042236"/>
<path d="M127.912 70.1605C130.599 65.6076 131.902 60.1289 131.578 54.7504C129.051 59.4035 127.828 64.8535 127.912 70.1605Z" fill="#042236"/>
<path d="M132.288 65.9218C136.051 63.2301 140.179 61.1207 144.494 59.6747C141.086 63.1729 136.607 65.4445 132.288 65.9218Z" fill="#042236"/>
<path d="M136.656 60.5347C138.501 56.7454 139.08 52.264 138.257 48.0786C136.931 52.3022 136.384 56.8074 136.656 60.5347Z" fill="#042236"/>
<path d="M140.615 55.0079C142.946 52.889 145.272 50.7748 147.603 48.6559C146.34 51.8152 143.658 54.2873 140.615 55.0079Z" fill="#042236"/>
<path d="M2.94041 77.9672C-0.618655 69.1381 -0.96029 59.1906 1.98902 50.1623C3.87018 58.0438 5.75133 65.9212 7.63249 73.8027C5.49186 63.3469 5.69079 52.1795 10.331 42.4679C10.6423 51.179 10.9537 59.8942 11.2651 68.6054C11.2521 59.0117 14.8458 49.4506 21.2633 41.9921C19.8665 50.4511 17.6999 58.7921 14.9279 67.1169C19.0578 60.5287 24.0353 54.4081 29.7134 48.9342C27.7414 58.3733 22.7034 67.2267 15.6198 73.9248C21.1033 70.8096 26.8981 68.1824 32.9006 66.0839C27.0192 72.3021 18.9584 76.6617 10.5256 78.5243C16.0826 79.1506 21.5271 80.6676 26.5479 82.9897C19.0708 85.8731 6.3092 86.3164 2.94473 77.9753L2.94041 77.9672Z" fill="#0378B7"/>
<path d="M120.272 63.5366C120.793 64.9588 121.985 66.9251 121.424 68.5095C121.424 68.5095 116.233 84.6689 116.073 84.7691C114.454 85.2655 112.715 85.2989 111.087 84.8551L111.043 84.8359C109.499 84.1249 108.138 82.97 107.133 81.5287C107.057 81.3473 112.066 65.3931 112.066 65.3931C112.519 63.7944 114.579 63.0355 115.789 62.2719L120.277 63.7753" fill="#072540"/>
<path d="M107.951 75.1501C109.49 76.62 111.171 77.9802 113.097 78.7677C115.023 79.5551 117.243 79.7221 119.075 78.8202C119.836 76.3242 120.592 73.8234 121.384 71.3084C119.329 71.485 117.461 70.9838 115.45 70.5066C113.44 70.0293 111.523 68.1681 110.544 66.2066C110.411 68.8935 109.396 72.8307 107.946 75.1549L107.951 75.1501Z" fill="#70C5E5"/>
<path d="M115.664 62.4332C115.971 61.5074 116.193 60.6722 116.46 59.8704C117.986 59.4362 119.694 59.8418 121.082 61.0588C120.855 61.9464 120.628 62.8341 120.384 63.6741C118.791 63.884 117.185 63.3734 115.664 62.438V62.4332Z" fill="#F7F2E1"/>
<path d="M116.458 59.8771C117.81 60.8841 119.5 61.3566 121.133 61.0988" stroke="#042236" stroke-width="0.12831" stroke-miterlimit="10" stroke-linecap="round"/>
<path d="M116.94 60.3237C116.713 61.1636 116.491 62.0036 116.264 62.8435" stroke="#042236" stroke-width="0.12831" stroke-miterlimit="10" stroke-linecap="round"/>
<path d="M117.792 60.7547C117.587 61.5803 117.383 62.4107 117.183 63.2363" stroke="#042236" stroke-width="0.12831" stroke-miterlimit="10" stroke-linecap="round"/>
<path d="M118.89 61.0569L118.276 63.5195" stroke="#042236" stroke-width="0.12831" stroke-miterlimit="10" stroke-linecap="round"/>
<path d="M120.046 61.1603L119.543 63.6515" stroke="#042236" stroke-width="0.12831" stroke-miterlimit="10" stroke-linecap="round"/>
<path d="M120.905 67.9335C119.761 68.425 118.485 68.5682 117.271 68.3344" stroke="#F7F2E1" stroke-width="0.12831" stroke-miterlimit="10" stroke-linecap="round"/>
<path d="M117.084 74.9938L116.706 76.1869C116.652 76.3492 116.488 76.4351 116.336 76.3826L115.367 76.0295C115.216 75.9722 115.051 76.0628 114.998 76.2251L114.695 77.1748C114.642 77.3371 114.477 77.423 114.326 77.3705L113.214 76.9648C113.063 76.9076 112.983 76.731 113.032 76.5687L113.334 75.619C113.387 75.4568 113.303 75.2802 113.152 75.2229L112.351 74.9318C112.2 74.8745 112.12 74.698 112.169 74.5357L112.547 73.3426C112.6 73.1803 112.765 73.0944 112.916 73.1469L113.717 73.438C113.868 73.4953 114.032 73.4046 114.086 73.2423L114.388 72.2926C114.442 72.1304 114.606 72.0445 114.757 72.097L115.869 72.5026C116.021 72.5599 116.101 72.7365 116.052 72.8987L115.749 73.8484C115.696 74.0107 115.78 74.1873 115.932 74.2446L116.901 74.5977C117.053 74.655 117.133 74.8316 117.084 74.9938Z" fill="white"/>
<path d="M108.224 80.5905C108.477 81.0247 108.797 81.4161 109.162 81.7502" stroke="#F7F2E1" stroke-width="0.12831" stroke-miterlimit="10" stroke-linecap="round"/>
<path d="M107.986 81.3218C108.24 81.7561 108.56 82.1475 108.925 82.4815" stroke="#F7F2E1" stroke-width="0.12831" stroke-miterlimit="10" stroke-linecap="round"/>
<path d="M107.908 61.8591C108.206 60.9619 109.123 60.4942 109.959 60.814L113.357 62.1121C114.194 62.4318 114.629 63.4149 114.331 64.3121C114.033 65.2094 113.117 65.6771 112.281 65.3573L108.883 64.0592C108.046 63.7394 107.61 62.7563 107.908 61.8591Z" fill="#FCE9E8"/>
<path d="M111.487 60.9811C111.945 61.654 111.972 62.5894 111.709 63.3769C111.447 64.1643 110.935 64.8229 110.384 65.4099C109.583 65.0711 108.76 64.7227 108.12 64.107C107.479 63.4914 107.039 62.5417 107.235 61.6445C107.43 60.7377 108.249 60.0743 109.112 59.9646C109.975 59.8548 110.931 60.1602 111.491 60.9811H111.487Z" fill="#EF4B4A"/>
<path d="M123.535 58.5054C122.69 58.2238 122.214 57.255 122.481 56.3483L123.553 52.6497C123.815 51.7429 124.718 51.2322 125.563 51.5186C126.408 51.8002 126.884 52.7689 126.617 53.6757L125.545 57.3743C125.283 58.2811 124.38 58.7917 123.535 58.5054Z" fill="#FCE9E8"/>
<path d="M122.569 54.7063C123.178 54.1861 124.045 54.1241 124.788 54.3723C125.531 54.6204 126.167 55.1454 126.736 55.7133C126.456 56.5866 126.163 57.4791 125.615 58.195C125.068 58.9061 124.201 59.4167 123.356 59.2449C122.502 59.0731 121.852 58.2236 121.714 57.3025C121.577 56.3815 121.821 55.3458 122.569 54.7111V54.7063Z" fill="#EF4B4A"/>
<path d="M32.3053 38.8227L31.8027 41.5955L32.9325 41.8006C32.9325 41.8006 33.5152 39.8678 32.3009 38.8227H32.3053Z" fill="#487990"/>
<path d="M26.9405 42.1564C26.4779 42.8198 26.1087 43.5546 25.8418 44.1894C28.8576 54.2162 31.5309 64.3576 33.875 74.647C34.4844 75.0383 35.0982 75.4344 35.7076 75.8258C35.7076 75.8258 53.749 71.7549 53.7712 71.7263L55.1234 70.3231C55.1234 70.3231 46.3919 40.3715 46.3029 40.2426C45.9649 39.8561 45.6313 39.4695 45.2932 39.0781L26.936 42.1564H26.9405Z" fill="#072540"/>
<path d="M27.7667 43.7076L45.3054 40.4862L53.2141 69.6218L35.5597 73.7404L27.7667 43.7076Z" fill="#F7F2E1"/>
<path d="M32.3049 38.8221C32.7941 39.6 33.061 40.8695 32.9365 41.8001C32.9365 41.8001 40.0623 40.7741 40.1601 40.6691C40.3914 39.5905 40.0223 38.3927 39.2438 37.672L32.3049 38.8221Z" fill="#6095B9"/>
<path d="M34.6631 38.6669C34.9166 37.9749 35.4415 37.3736 36.1087 37.1827C36.7804 36.9965 37.5766 37.3115 37.8701 37.9844L34.6631 38.6669Z" fill="#6095B9"/>
<path d="M32.168 46.7822C32.5638 47.0638 33.0843 47.1258 33.5291 46.9492C33.9739 46.7726 34.3297 46.3622 34.4632 45.8707C34.3475 46.0615 34.6055 46.2954 34.8146 46.2525C35.0236 46.2095 35.1793 46.0281 35.3661 45.9231C35.7353 45.7132 36.2424 45.8373 36.487 46.2C36.6872 45.5175 37.5501 45.1787 38.115 45.5557C38.115 45.675 38.0127 45.7848 37.906 45.7848C38.3152 45.0069 39.2671 44.6108 40.0588 44.8876C40.4236 44.4151 41.0508 44.3148 41.6201 44.248L43.5862 44.0142" stroke="#6095B9" stroke-width="0.12831" stroke-miterlimit="10"/>
<path d="M33.5283 49.0453C33.9687 49.2028 34.4758 49.3555 34.8805 49.1073C35.0051 49.031 35.1118 48.9212 35.2497 48.883C35.5033 48.8067 35.7568 48.9928 36.0014 49.0882C36.5575 49.3125 37.2469 49.0644 37.5672 48.5299C37.665 48.3676 37.7317 48.1815 37.8696 48.0574C38.1098 47.8331 38.5368 47.9094 38.697 48.2053C38.7326 48.2721 38.7548 48.3533 38.7148 48.4154C38.6792 48.4774 38.5635 48.4678 38.5591 48.3962C39.0439 47.8856 39.8446 47.7567 40.4495 48.0908C40.8543 47.6899 41.3569 47.2604 41.8951 47.3845C42.1976 47.4561 42.4689 47.6995 42.7759 47.6613C43.0828 47.6231 43.4564 47.3272 43.6388 47.5945" stroke="#6095B9" stroke-width="0.12831" stroke-miterlimit="10"/>
<path d="M44.917 66.3308C45.264 66.159 45.602 65.9585 45.9267 65.7295C46.0068 65.6722 46.0957 65.6054 46.1135 65.5004C46.1313 65.4002 46.029 65.2809 45.9445 65.3334C46.118 65.7056 46.5806 65.8297 46.9542 65.7152C47.3279 65.6054 47.6259 65.3191 47.915 65.0375C47.9995 65.1854 47.9283 65.3859 47.9951 65.5386C48.1063 65.7915 48.4666 65.7295 48.6667 65.5577C48.8669 65.3811 49.0315 65.1281 49.285 65.0709C49.4184 65.0422 49.5608 65.0709 49.6987 65.0852C50.1301 65.1186 50.5705 64.9277 50.8507 64.5793" stroke="#6095B9" stroke-width="0.12831" stroke-miterlimit="10"/>
<path d="M45.3232 67.4883C45.8081 67.3929 46.3241 67.2831 46.6888 66.93C46.7466 66.8775 46.8 66.8154 46.8712 66.7868C47.1692 66.6818 47.3471 67.2259 47.6585 67.2593C48.0188 67.2975 48.2056 66.6579 48.5659 66.7057C48.6904 66.72 48.7883 66.8202 48.9084 66.8584C49.1174 66.9204 49.3576 66.7534 49.3843 66.5243C49.6646 66.5482 49.9492 66.51 50.2161 66.4146" stroke="#6095B9" stroke-width="0.12831" stroke-miterlimit="10"/>
<path d="M46.6396 68.4892L47.5471 68.1504C47.636 68.117 47.7339 68.0836 47.8273 68.0979C48.0097 68.1313 48.1431 68.3508 48.3299 68.3508C48.6235 68.3508 48.7436 67.8354 49.0372 67.8402C49.1261 67.8402 49.2017 67.8927 49.2818 67.9261C49.522 68.0359 49.8022 68.0359 50.0424 67.9261" stroke="#6095B9" stroke-width="0.12831" stroke-miterlimit="10"/>
<path d="M33.377 52.141L36.4328 64.869L49.1009 62.354L45.578 49.7596L33.377 52.141Z" fill="#EEE3C5"/>
<path d="M59.6419 42.6447L43.7089 28.9956C43.3397 28.6806 43.1929 28.17 43.2997 27.7118C43.0951 27.1248 42.8326 26.5903 42.4901 26.1226L38.8205 22.9776C38.5447 22.7389 38.5002 22.3094 38.7182 22.0087C38.8783 21.7987 39.1229 21.7128 39.3542 21.7653C39.4476 21.7892 39.5366 21.8322 39.6167 21.9038L43.2685 25.0345C43.958 25.2922 44.6608 25.4879 45.3769 25.6215C45.3903 25.6215 45.4036 25.6215 45.4169 25.6263C45.6305 25.6501 45.8351 25.736 46.0174 25.8887L61.9504 39.5378C62.4619 39.9769 62.5465 40.7691 62.1372 41.318L61.301 42.4443C60.8962 42.9931 60.1534 43.0837 59.6419 42.6447Z" fill="#F7F2E1"/>
<path d="M41.1783 21.7473C40.3732 22.9882 39.4257 24.124 38.3626 25.1166C37.7577 24.8589 37.1661 24.5105 36.7613 23.9664C36.3566 23.4224 36.1742 22.6445 36.4411 22.0098C36.6234 21.5803 36.9793 21.2653 37.3529 21.0267C38.0557 20.5733 38.8964 20.3203 39.706 20.454C40.5155 20.5876 41.4985 21.2462 41.1783 21.7425V21.7473Z" fill="#6095B9"/>
<path d="M60.9504 40.056L57.8997 37.2969C57.8284 37.2323 57.7217 37.2421 57.6616 37.3186L56.7442 38.4863C56.684 38.5629 56.6931 38.6773 56.7645 38.7418L59.8151 41.5009C59.8865 41.5655 59.9931 41.5557 60.0533 41.4792L60.9707 40.3115C61.0308 40.2349 61.0217 40.1205 60.9504 40.056Z" fill="#6095B9"/>
<path d="M46.1758 27.6648L55.8414 36.2074" stroke="#EEE3C5" stroke-width="0.12831" stroke-miterlimit="10"/>
<path d="M45.6719 28.4917L55.342 37.0343" stroke="#EEE3C5" stroke-width="0.12831" stroke-miterlimit="10"/>
<path d="M18.4776 70.1893L34.9465 75.9612C35.1029 76.0161 35.1925 76.1981 35.1401 76.3705L34.1884 79.4962C34.1208 79.7185 33.8964 79.8406 33.6892 79.768L17.343 74.039C17.1696 73.9783 17.0728 73.7736 17.1295 73.5876L18.1004 70.3985C18.1515 70.2307 18.3212 70.1345 18.4819 70.1908L18.4776 70.1893Z" fill="#F7F2E1"/>
<path d="M18.4205 71.6994C16.7836 71.1172 15.1467 70.5349 13.5187 69.967C13.6611 69.485 13.8034 69.003 13.8612 68.4303C13.5099 68.2728 13.154 68.1153 12.7403 67.8862C12.1932 69.1175 11.7529 70.4061 11.3525 71.6946C11.7884 71.8187 12.2199 71.9428 12.6469 72.0621C12.8693 71.6278 13.0873 71.1935 13.3097 70.7592L13.2697 70.8165L18.3227 72.4152L18.4205 71.6994Z" fill="#F7F2E1"/>
<path d="M34.7538 77.5165C34.7538 77.5165 37.694 78.4328 37.6184 78.471C37.8586 78.5855 38.0321 78.848 37.9698 79.1582C37.7741 79.3634 37.4672 79.4445 37.2047 79.3634L34.3935 78.5187L34.7538 77.5213V77.5165Z" fill="#042236"/>
<path d="M37.4805 78.9167C39.4198 79.561 41.3547 80.2053 43.2941 80.8448" stroke="#042236" stroke-width="0.12831" stroke-miterlimit="10" stroke-linecap="round"/>
<path d="M28.1948 74.8505C28.3193 75.6237 28.0702 76.4493 27.5498 77.0029" stroke="#042236" stroke-width="0.12831" stroke-miterlimit="10" stroke-linecap="round"/>
<path d="M26.5031 74.3454C26.7344 75.0374 26.5476 75.8678 26.0449 76.3689" stroke="#042236" stroke-width="0.12831" stroke-miterlimit="10" stroke-linecap="round"/>
<path d="M24.787 73.8188C25.045 74.4918 24.8582 75.3269 24.3467 75.8042" stroke="#042236" stroke-width="0.12831" stroke-miterlimit="10" stroke-linecap="round"/>
<path d="M22.9892 73.0543C23.2694 73.7034 23.0781 74.5481 22.5488 74.9871" stroke="#042236" stroke-width="0.12831" stroke-miterlimit="10" stroke-linecap="round"/>
<path d="M21.0865 72.4478C21.2688 73.0969 21.0687 73.8557 20.5927 74.3043" stroke="#042236" stroke-width="0.12831" stroke-miterlimit="10" stroke-linecap="round"/>
<path d="M31.4913 73.8187C31.5225 74.0239 31.1399 77.9373 29.801 78.9109C28.4577 79.8845 34.2402 80.8962 34.2402 80.8962L36.1218 78.4622L35.9127 75.8565L33.8532 73.5657L31.7493 74.0048L31.4958 73.8187H31.4913Z" fill="#EF4B4A"/>
<path d="M31.4151 73.4423C31.9355 75.6233 31.2149 78.0907 29.5958 79.5367C29.2267 79.4078 28.8664 79.2408 28.4883 79.0308C29.7204 77.4035 30.2897 75.2129 30.0673 73.1464C30.5077 73.3087 30.9703 73.4089 31.4151 73.4423Z" fill="#9BD9ED"/>
<path d="M39.466 60.5472L20.8036 50.9021C20.1419 50.5601 19.347 50.8584 19.0282 51.5684L14.2333 62.2486C13.9145 62.9586 14.1926 63.8114 14.8543 64.1534L33.5167 73.7985C34.1784 74.1405 34.9733 73.8422 35.2921 73.1322L40.087 62.4521C40.4058 61.7421 40.1277 60.8892 39.466 60.5472Z" fill="#5ABBEA"/>
<path d="M39.3441 60.1533L20.6817 50.5081C20.02 50.1661 19.2251 50.4645 18.9063 51.1745L14.1114 61.8547C13.7926 62.5647 14.0706 63.4175 14.7324 63.7595L33.3948 73.4046C34.0565 73.7467 34.8514 73.4483 35.1701 72.7383L39.9651 62.0581C40.2839 61.3481 40.0058 60.4953 39.3441 60.1533Z" fill="#BDE5F0"/>
<path d="M24.8776 55.3783L19.8027 52.8265C19.6626 52.7561 19.4958 52.8208 19.4301 52.9711L18.4353 55.2485C18.3697 55.3989 18.43 55.5779 18.5702 55.6484L23.6451 58.2001C23.7852 58.2706 23.9521 58.2058 24.0177 58.0555L25.0125 55.7781C25.0782 55.6277 25.0178 55.4488 24.8776 55.3783Z" fill="#FCE9E8"/>
<path d="M22.2524 53.6622C22.6127 54.3112 22.5548 55.1559 22.2568 55.8383C21.9588 56.5208 21.4428 57.0697 20.9001 57.5469C20.2062 57.1699 19.4946 56.7785 18.9697 56.1629C18.4404 55.5473 18.1245 54.6548 18.3736 53.8626C18.6227 53.0656 19.4145 52.5454 20.1973 52.5263C20.9802 52.5072 21.8164 52.8699 22.2568 53.6622H22.2524Z" fill="#EF4B4A"/>
<path d="M24.8776 55.3783L19.8027 52.8265C19.6626 52.7561 19.4958 52.8208 19.4301 52.9711L18.4353 55.2485C18.3697 55.3989 18.43 55.5779 18.5702 55.6484L23.6451 58.2001C23.7852 58.2706 23.9521 58.2058 24.0177 58.0555L25.0125 55.7781C25.0782 55.6277 25.0178 55.4488 24.8776 55.3783Z" fill="#EFE8F3"/>
<path d="M24.8776 55.3783L19.8027 52.8265C19.6626 52.7561 19.4958 52.8208 19.4301 52.9711L18.4353 55.2485C18.3697 55.3989 18.43 55.5779 18.5702 55.6484L23.6451 58.2001C23.7852 58.2706 23.9521 58.2058 24.0177 58.0555L25.0125 55.7781C25.0782 55.6277 25.0178 55.4488 24.8776 55.3783Z" fill="white"/>
<path d="M22.2524 53.6622C22.6127 54.3112 22.5548 55.1559 22.2568 55.8383C21.9588 56.5208 21.4428 57.0697 20.9001 57.5469C20.2062 57.1699 19.4946 56.7785 18.9697 56.1629C18.4404 55.5473 18.1245 54.6548 18.3736 53.8626C18.6227 53.0656 19.4145 52.5454 20.1973 52.5263C20.9802 52.5072 21.8164 52.8699 22.2568 53.6622H22.2524Z" fill="#5ABBEA"/>
<path d="M31.7008 58.9439L26.6259 56.3921C26.4858 56.3216 26.3189 56.3864 26.2532 56.5368L25.2585 58.8142C25.1928 58.9645 25.2532 59.1435 25.3933 59.214L30.4682 61.7658C30.6083 61.8362 30.7752 61.7715 30.8409 61.6211L31.8356 59.3437C31.9013 59.1934 31.8409 59.0143 31.7008 58.9439Z" fill="#EFE8F3"/>
<path d="M31.7008 58.9439L26.6259 56.3921C26.4858 56.3216 26.3189 56.3864 26.2532 56.5368L25.2585 58.8142C25.1928 58.9645 25.2532 59.1435 25.3933 59.214L30.4682 61.7658C30.6083 61.8362 30.7752 61.7715 30.8409 61.6211L31.8356 59.3437C31.9013 59.1934 31.8409 59.0143 31.7008 58.9439Z" fill="white"/>
<path d="M29.0757 57.2256C29.436 57.8746 29.3781 58.7194 29.0801 59.4018C28.7821 60.0843 28.2661 60.6331 27.7234 61.1103C27.0296 60.7333 26.3179 60.342 25.793 59.7263C25.2637 59.1107 24.9479 58.2183 25.1969 57.426C25.446 56.629 26.2378 56.1088 27.0207 56.0897C27.8035 56.0706 28.6397 56.4334 29.0801 57.2256H29.0757Z" fill="#5ABBEA"/>
<path d="M38.3591 62.3284L33.2842 59.7766C33.1441 59.7062 32.9772 59.7709 32.9116 59.9213L31.9168 62.1987C31.8511 62.349 31.9115 62.5281 32.0516 62.5985L37.1265 65.1503C37.2667 65.2208 37.4335 65.156 37.4992 65.0056L38.4939 62.7282C38.5596 62.5779 38.4993 62.3989 38.3591 62.3284Z" fill="#EFE8F3"/>
<path d="M38.3591 62.3284L33.2842 59.7766C33.1441 59.7062 32.9772 59.7709 32.9116 59.9213L31.9168 62.1987C31.8511 62.349 31.9115 62.5281 32.0516 62.5985L37.1265 65.1503C37.2667 65.2208 37.4335 65.156 37.4992 65.0056L38.4939 62.7282C38.5596 62.5779 38.4993 62.3989 38.3591 62.3284Z" fill="white"/>
<path d="M35.7242 60.6101C36.0845 61.2591 36.0267 62.1039 35.7287 62.7863C35.4307 63.4688 34.9147 64.0176 34.372 64.4948C33.6781 64.1178 32.9664 63.7264 32.4416 63.1108C31.9122 62.4952 31.5964 61.6027 31.8455 60.8105C32.0946 60.0135 32.8864 59.4933 33.6692 59.4742C34.4521 59.4551 35.2883 59.8178 35.7287 60.6101H35.7242Z" fill="#5ABBEA"/>
<path d="M35.6498 68.2834L30.5749 65.7316C30.4348 65.6612 30.2679 65.7259 30.2022 65.8763L29.2075 68.1537C29.1418 68.304 29.2022 68.483 29.3423 68.5535L34.4172 71.1053C34.5574 71.1757 34.7242 71.111 34.7899 70.9606L35.7846 68.6832C35.8503 68.5329 35.7899 68.3539 35.6498 68.2834Z" fill="#EFE8F3"/>
<path d="M35.6498 68.2834L30.5749 65.7316C30.4348 65.6612 30.2679 65.7259 30.2022 65.8763L29.2075 68.1537C29.1418 68.304 29.2022 68.483 29.3423 68.5535L34.4172 71.1053C34.5574 71.1757 34.7242 71.111 34.7899 70.9606L35.7846 68.6832C35.8503 68.5329 35.7899 68.3539 35.6498 68.2834Z" fill="white"/>
<path d="M33.0249 66.5649C33.3852 67.2139 33.3274 68.0587 33.0293 68.7411C32.7313 69.4236 32.2153 69.9724 31.6727 70.4496C30.9788 70.0726 30.2671 69.6813 29.7422 69.0656C29.2129 68.45 28.8971 67.5576 29.1462 66.7654C29.3953 65.9684 30.187 65.4481 30.9699 65.4291C31.7527 65.41 32.589 65.7727 33.0293 66.5649H33.0249Z" fill="#5ABBEA"/>
<path d="M28.6383 64.414L23.5634 61.8623C23.4232 61.7918 23.2564 61.8566 23.1907 62.0069L22.196 64.2843C22.1303 64.4347 22.1906 64.6137 22.3308 64.6842L27.4057 67.2359C27.5458 67.3064 27.7127 67.2416 27.7784 67.0913L28.7731 64.8139C28.8388 64.6635 28.7784 64.4845 28.6383 64.414Z" fill="#EFE8F3"/>
<path d="M28.6383 64.414L23.5634 61.8623C23.4232 61.7918 23.2564 61.8566 23.1907 62.0069L22.196 64.2843C22.1303 64.4347 22.1906 64.6137 22.3308 64.6842L27.4057 67.2359C27.5458 67.3064 27.7127 67.2416 27.7784 67.0913L28.7731 64.8139C28.8388 64.6635 28.7784 64.4845 28.6383 64.414Z" fill="white"/>
<path d="M26.0014 62.6918C26.3617 63.3408 26.3039 64.1856 26.0059 64.868C25.7079 65.5505 25.1919 66.0993 24.6492 66.5765C23.9553 66.1995 23.2436 65.8082 22.7188 65.1925C22.1894 64.5769 21.8736 63.6845 22.1227 62.8923C22.3718 62.0953 23.1636 61.575 23.9464 61.556C24.7293 61.5369 25.5655 61.8996 26.0059 62.6918H26.0014Z" fill="#5ABBEA"/>
<path d="M22.402 60.9789L17.3271 58.4271C17.1869 58.3567 17.0201 58.4215 16.9544 58.5718L15.9596 60.8492C15.894 60.9996 15.9543 61.1786 16.0945 61.249L21.1694 63.8008C21.3095 63.8713 21.4764 63.8065 21.542 63.6561L22.5368 61.3788C22.6025 61.2284 22.5421 61.0494 22.402 60.9789Z" fill="#EFE8F3"/>
<path d="M22.402 60.9789L17.3271 58.4271C17.1869 58.3567 17.0201 58.4215 16.9544 58.5718L15.9596 60.8492C15.894 60.9996 15.9543 61.1786 16.0945 61.249L21.1694 63.8008C21.3095 63.8713 21.4764 63.8065 21.542 63.6561L22.5368 61.3788C22.6025 61.2284 22.5421 61.0494 22.402 60.9789Z" fill="white"/>
<path d="M19.7612 59.2567C20.1215 59.9057 20.0637 60.7504 19.7657 61.4329C19.4676 62.1153 18.9517 62.6642 18.409 63.1414C17.7151 62.7644 17.0034 62.3731 16.4785 61.7574C15.9492 61.1418 15.6334 60.2494 15.8825 59.4571C16.1316 58.6601 16.9233 58.1399 17.7062 58.1208C18.4891 58.1017 19.3253 58.4644 19.7657 59.2567H19.7612Z" fill="#5ABBEA"/>
<path d="M82.373 26.2572L84.9841 26.7153L92.6169 34.8189V38.255H89.7435L81.3722 31.211L82.373 26.2572Z" fill="#7AAE9F"/>
<path d="M76.5679 25.3194L68.9884 23.7397L63.9398 16.2662L62.2629 17.2015L66.6932 27.0327L74.7086 30.0155L76.5679 25.3194Z" fill="#7AAE9F"/>
<path d="M99.0739 58.6085H98.3311V42.3537H91.9348V58.6085H91.1875V41.5519H99.0739V58.6085Z" fill="#3F3F3D"/>
<path d="M101.491 56.9412H89.0273C88.1994 56.9412 87.5283 57.6613 87.5283 58.5495V78.7177C87.5283 79.606 88.1994 80.326 89.0273 80.326H101.491C102.319 80.326 102.99 79.606 102.99 78.7177V58.5495C102.99 57.6613 102.319 56.9412 101.491 56.9412Z" fill="#F89D37"/>
<path d="M91.6879 80.3225H89.5751V80.7234H91.6879V80.3225Z" fill="#3F3F3D"/>
<path d="M92.6206 56.5433H90.5078V56.9443H92.6206V56.5433Z" fill="#71716E"/>
<path d="M96.1569 41.156H94.044V41.5569H96.1569V41.156Z" fill="#3F3F3D"/>
<path d="M89.9072 80.7242L90.1341 82.1894H90.6323L91.2416 82.1941L91.4685 80.729L89.9072 80.7242Z" fill="#71716E"/>
<path d="M98.5201 80.7242H100.633V80.3234H98.5201V80.7242Z" fill="#3F3F3D"/>
<path d="M97.7104 56.9412H99.8232V56.5403H97.7104V56.9412Z" fill="#71716E"/>
<path d="M100.297 80.7242L100.065 82.1894H99.5715H99.0733L98.8465 80.7242H100.297Z" fill="#71716E"/>
<path d="M99.3865 41.5519H90.8817V42.9502H99.3865V41.5519Z" fill="#71716E"/>
<path d="M92.9922 55.5448V56.9432H93.6194V56.213H96.653V56.9432H97.2757V55.5448H92.9922Z" fill="#71716E"/>
<path d="M100.628 57.5458H96.5891C99.9652 58.3619 102.487 61.6023 102.487 65.4728V59.5454C102.487 58.443 101.655 57.5458 100.623 57.5458H100.628Z" fill="#FAB164"/>
<path d="M90.1286 58.4103C90.0975 58.2194 89.9462 58.0762 89.7639 58.0762C89.5815 58.0762 89.4258 58.2194 89.3991 58.4103H89.3947V78.9937C89.3947 79.2132 89.5593 79.3946 89.7683 79.3946C89.9774 79.3946 90.142 79.2132 90.142 78.9937V58.4103H90.1375H90.1286Z" fill="#EB8A23"/>
<path d="M91.9322 58.4103C91.901 58.2194 91.7498 58.0762 91.5674 58.0762C91.3851 58.0762 91.2294 58.2194 91.2027 58.4103H91.1982V78.9937C91.1982 79.2132 91.3628 79.3946 91.5719 79.3946C91.7809 79.3946 91.9455 79.2132 91.9455 78.9937V58.4103H91.9411H91.9322Z" fill="#EB8A23"/>
<path d="M93.73 58.4103C93.6989 58.2194 93.5476 58.0762 93.3653 58.0762C93.1829 58.0762 93.0272 58.2194 93.0005 58.4103H92.9961V78.9937C92.9961 79.2132 93.1607 79.3946 93.3697 79.3946C93.5788 79.3946 93.7434 79.2132 93.7434 78.9937V58.4103H93.7389H93.73Z" fill="#EB8A23"/>
<path d="M95.5298 58.4103C95.4987 58.2194 95.3474 58.0762 95.165 58.0762C94.9827 58.0762 94.827 58.2194 94.8003 58.4103H94.7959V78.9937C94.7959 79.2132 94.9604 79.3946 95.1695 79.3946C95.3785 79.3946 95.5431 79.2132 95.5431 78.9937V58.4103H95.5387H95.5298Z" fill="#EB8A23"/>
<path d="M97.3328 58.4103C97.3016 58.2194 97.1504 58.0762 96.968 58.0762C96.7857 58.0762 96.63 58.2194 96.6033 58.4103H96.5988V78.9937C96.5988 79.2132 96.7634 79.3946 96.9725 79.3946C97.1815 79.3946 97.3461 79.2132 97.3461 78.9937V58.4103H97.3417H97.3328Z" fill="#EB8A23"/>
<path d="M99.1324 58.4103C99.1012 58.2194 98.95 58.0762 98.7676 58.0762C98.5853 58.0762 98.4296 58.2194 98.4029 58.4103H98.3984V78.9937C98.3984 79.2132 98.563 79.3946 98.7721 79.3946C98.9811 79.3946 99.1457 79.2132 99.1457 78.9937V58.4103H99.1413H99.1324Z" fill="#EB8A23"/>
<path d="M100.932 58.4103C100.901 58.2194 100.75 58.0762 100.567 58.0762C100.385 58.0762 100.229 58.2194 100.203 58.4103H100.198V78.9937C100.198 79.2132 100.363 79.3946 100.572 79.3946C100.781 79.3946 100.946 79.2132 100.946 78.9937V58.4103H100.941H100.932Z" fill="#EB8A23"/>
<path d="M75.8105 16.3611C75.8105 16.3611 74.9031 17.158 75.3301 20.0883C75.7571 23.0186 75.4991 24.9419 75.4991 24.9419C75.4991 24.9419 76.4377 25.4 77.1227 24.9419C77.8032 24.4837 78.0612 24.393 77.8032 23.1999C77.5452 22.0116 77.0337 16.3324 77.0337 16.3324L75.806 16.3611H75.8105Z" fill="#B06751"/>
<path d="M84.7248 79.9892L84.8182 80.9676L83.1635 82.1893L82.1982 81.3303L82.9811 80.2326L84.6358 79.0109L84.7248 79.9892Z" fill="#B06751"/>
<path d="M84.686 50.079L84.9662 53.0474L82.4842 63.2556L84.7883 79.6632L83.0936 80.2883L78.6233 64.2721L77.916 59.6142L77.9383 49.7496L84.686 50.079Z" fill="#464646"/>
<path d="M71.6472 53.3848L75.2101 80.8739H76.8337L77.1228 63.2542L80.0763 50.8888L71.6472 53.3848Z" fill="#464646"/>
<path d="M76.825 80.6591V81.647L75.0724 82.6349L74.1962 81.647L75.0724 80.6591H76.825Z" fill="#B06751"/>
<path d="M76.0468 25.4339C76.0779 25.3719 76.1135 25.3146 76.1491 25.2574C77.4213 23.1861 80.3036 24.489 82.1896 24.489C82.7056 30.3304 84.1334 35.8998 85.0541 41.6363C86.0327 47.7306 87.1359 53.8012 88.3591 59.8383C88.4302 60.1819 83.4973 60.0101 83.0303 60.0148C78.2842 60.1007 72.0747 60.0817 67.4932 58.5402C70.4156 50.1121 71.4831 41.0397 73.7827 32.3873C74.2898 30.4784 74.8414 28.5981 75.4908 26.7559C75.6509 26.3025 75.8111 25.8444 76.0424 25.4244L76.0468 25.4339Z" fill="#7AAE9F"/>
<path d="M78.0575 17.3586C77.0211 17.6641 76.2027 18.6949 76.0915 19.8451C75.5266 19.2772 75.2375 18.4085 75.3398 17.5829C75.4421 16.7573 75.9403 16.0032 76.6253 15.6167C77.2658 15.9842 77.7684 16.6332 77.9775 17.3777L78.0531 17.3586H78.0575Z" fill="#B06751"/>
<path d="M75.9473 18.8511C76.481 15.811 80.0172 16.336 81.0314 18.7986C81.6097 20.1969 81.4718 22.9315 79.8527 23.3896C79.826 23.6569 79.7948 24.1628 79.6036 24.3441C79.3945 24.5398 78.7451 24.3537 78.4871 24.2916C78.4159 24.2726 78.3403 24.2535 78.2914 24.1962C78.2291 24.1246 78.2158 23.9432 78.2158 23.7332C78.029 23.7189 77.8377 23.6807 77.6375 23.6092C76.8146 23.318 76.2186 22.502 75.974 21.6095C75.7293 20.7171 75.7871 19.7626 75.9473 18.8463V18.8511Z" fill="#F3CEB0"/>
<path d="M81.5794 22.6466L83.6744 26.4502L74.4803 29.8721L74.0266 27.2615L81.5794 22.6466Z" fill="#E3BC50"/>
<path d="M76.8104 23.6978L79.0167 24.2895L82.584 26.881L84.0741 43.2933L77.8513 42.8256L78.3495 28.7565L74.9556 26.8953L73.9993 25.8501L76.8104 23.6978Z" fill="#FDD25A"/>
<path d="M76.6967 15.6077C76.6967 15.6077 76.3542 17.2542 78.3202 17.7123C80.2818 18.1705 81.5584 19.817 81.2204 21.5589C80.8823 23.3009 79.4323 24.5798 80.1973 25.038C80.9668 25.4961 83.7825 25.038 83.7825 25.038C83.7825 25.038 85.4905 18.9007 83.1864 16.2472C80.8823 13.5938 77.5552 13.4983 76.7011 15.6077H76.6967Z" fill="#B06751"/>
<path d="M85.0097 26.0097C79.5163 30.9109 74.8815 29.6272 74.2409 29.4124C74.2409 29.4124 74.2098 29.3742 74.2009 29.3981C74.1742 29.3885 74.1876 29.4411 74.1876 29.4411C73.9829 30.1283 72.3327 34.9484 65.4471 37.0053C65.4471 37.0053 70.2644 49.3516 76.2292 52.1434C82.5944 55.1262 86.611 54.8494 86.6199 54.8303C86.6421 54.8303 89.1775 51.4657 90.4764 44.1353C91.6907 37.2821 85.0097 26.0097 85.0097 26.0097Z" fill="#006798"/>
<path d="M84.6939 27.7317C79.6943 32.1558 75.5175 31.0438 74.9393 30.8577C74.9393 30.8577 74.9126 30.8243 74.9037 30.8481C74.8815 30.8386 74.8948 30.8863 74.8948 30.8863C74.708 31.5019 73.1823 35.821 66.9461 37.7157C66.9461 37.7157 71.2207 48.7161 76.5895 51.1643C82.3231 53.7796 86.0862 53.7892 86.0951 53.7701C86.1173 53.7701 88.2924 50.458 89.5156 43.8959C90.6588 37.7586 84.6939 27.7317 84.6939 27.7317Z" fill="#0099C7"/>
<g opacity="0.06">
<path d="M75.3965 31.9249C75.3965 31.9249 75.3832 31.8772 75.4099 31.8868C75.4188 31.8629 75.4454 31.8963 75.4454 31.8963C76.0415 32.0872 80.2582 33.2087 85.3602 28.8849C84.8086 27.8302 84.4261 27.1859 84.4261 27.1859C79.4265 31.61 75.2497 30.498 74.6715 30.3118C74.6715 30.3118 74.6448 30.2784 74.6359 30.3023C74.6137 30.2927 74.627 30.3405 74.627 30.3405C74.4402 30.9561 72.9145 35.2752 66.6783 37.1698C66.6783 37.1698 66.9496 37.8713 67.4434 38.9595C73.6618 36.9216 75.2008 32.5597 75.3965 31.9249Z" fill="black"/>
</g>
<g opacity="0.34">
<path d="M84.4592 31.5888C80.6917 34.9486 76.9597 34.2471 76.5194 34.0991C76.5194 34.0991 76.4971 34.0705 76.4927 34.0896C76.4749 34.0848 76.4838 34.1182 76.4838 34.1182C76.3459 34.5906 74.7846 38.2654 70.0652 39.6733C70.0652 39.6733 73.7972 47.7673 77.8849 49.681C82.2485 51.7236 85.0018 51.5375 85.0063 51.5232C85.0241 51.5232 86.7588 49.2133 87.6484 44.1927C88.4802 39.4919 84.4592 31.5888 84.4592 31.5888Z" fill="white"/>
</g>
<path d="M84.5501 45.958L82.7931 42.6555L82.6286 42.3452L84.8704 40.9756L85.9957 40.2884C86.1203 40.212 86.1648 40.0354 86.0936 39.897L85.0038 37.8449C84.9327 37.7112 84.7681 37.6635 84.6391 37.7399L81.561 39.625L81.2719 39.8016L79.9953 37.3962L79.3548 36.1889C79.2836 36.0552 79.119 36.0075 78.99 36.0838L77.0774 37.2531C77.0062 37.2961 76.9662 37.3581 76.9528 37.4249C76.9306 37.4917 76.935 37.5681 76.9795 37.6444L78.7365 40.9469L78.9011 41.2572L76.6592 42.6268L75.5339 43.314C75.4093 43.3904 75.3649 43.567 75.436 43.7054L76.5258 45.7575C76.5658 45.8339 76.6237 45.8768 76.6859 45.8912C76.7482 45.915 76.8194 45.9102 76.8905 45.8625L79.9686 43.9774L80.2577 43.8008L81.5343 46.2062L82.1748 47.4135C82.246 47.5472 82.4106 47.5949 82.5396 47.5186L84.4523 46.3493C84.5768 46.2729 84.6213 46.0964 84.5501 45.958Z" fill="#CF2648"/>
<path d="M54.7394 18.3745L59.7969 16.2556L56.661 19.7108C55.8603 20.5937 54.7527 21.405 53.4628 22.0493L49.6642 23.6481L54.735 18.3745H54.7394Z" fill="#8ECEDF"/>
<path d="M80.0214 3.59826C80.3639 3.0208 80.6619 2.42427 80.9644 1.77523C81.3292 0.987777 80.8087 0.0619256 79.9858 0.0428359L78.0643 0.00461928C75.6401 -0.0431049 73.3671 0.663234 71.5167 1.99474L57.5542 12.7375C56.0196 13.9162 54.7252 15.4148 53.7422 17.1424L53.1818 18.1302C52.9772 18.493 52.9772 18.9512 53.1818 19.3139C53.4175 19.7291 53.8757 19.9342 54.316 19.8245L57.3363 18.9654C59.0844 17.9346 61.2817 16.9181 63.0298 15.8872L71.9927 10.6137C72.8556 10.103 73.723 9.59719 74.5859 9.08654C76.2806 8.08433 77.7396 6.65738 78.9895 5.08725C79.3809 4.5957 79.7145 4.10414 80.017 3.59826H80.0214Z" fill="#8ECEDF"/>
<path d="M71.2366 11.7868L69.4708 12.7603C69.2083 12.9035 69.0971 13.2376 69.2172 13.524L69.4574 14.1014C69.5775 14.3877 69.8844 14.5214 70.1558 14.4068L72.0417 13.6289C72.233 13.5526 72.3709 13.3665 72.3931 13.1517C72.4554 12.5361 72.1085 12.097 71.8327 11.8536C71.6637 11.7057 71.4279 11.6818 71.2322 11.7916L71.2366 11.7868Z" fill="#8ECEDF"/>
<g opacity="0.05">
<path d="M70.5161 12.2244L70.2314 14.3672L72.1842 13.5463C72.1842 13.5463 70.9609 13.9902 70.6763 12.1337L70.5206 12.2196L70.5161 12.2244Z" fill="black"/>
</g>
<path d="M71.4849 12.3684C71.694 12.7502 71.8497 13.1845 71.9075 13.6188C71.9075 13.6378 71.9075 13.6521 71.9119 13.6665L72.0899 13.5949C72.2678 13.5233 72.3923 13.3467 72.4057 13.1367C72.4457 12.5306 72.1076 12.0916 71.8452 11.8434C71.6851 11.6907 71.4582 11.6621 71.2803 11.7623L71.1424 11.8387C71.2714 12.0152 71.3871 12.1966 71.4849 12.3732V12.3684Z" fill="#006798"/>
<path d="M69.7254 15.8998L67.8928 16.711C67.6215 16.8304 67.4836 17.1549 67.5815 17.4508L67.7772 18.0473C67.875 18.3432 68.1686 18.5007 68.4488 18.4148L70.3882 17.8087C70.5839 17.7467 70.7396 17.5796 70.7752 17.3649C70.8819 16.754 70.5706 16.2911 70.317 16.0238C70.1614 15.8616 69.9256 15.8186 69.721 15.9045L69.7254 15.8998Z" fill="#8ECEDF"/>
<path d="M70.0224 16.4587C70.2003 16.8548 70.3204 17.3034 70.3471 17.7425C70.3471 17.7616 70.3471 17.7759 70.3471 17.795L70.5295 17.7377C70.7119 17.6805 70.8497 17.5182 70.8809 17.3082C70.9654 16.7069 70.6629 16.2392 70.4183 15.9672C70.2671 15.8001 70.0491 15.7524 69.8623 15.8335L69.7199 15.8956C69.8356 16.0817 69.9379 16.2773 70.018 16.4587H70.0224Z" fill="#006798"/>
<g opacity="0.05">
<path d="M68.9612 16.2584L68.5119 18.3678L70.5225 17.7235C70.5225 17.7235 69.2726 18.0576 69.1258 16.182L68.9612 16.2536V16.2584Z" fill="black"/>
</g>
<path d="M72.911 7.56984L67.1774 22.3309C66.5547 23.9345 65.2069 25.0799 63.6101 25.3662L63.0096 25.476L64.5753 11.7219L72.8932 7.19286L72.911 7.57461V7.56984Z" fill="#8ECEDF"/>
<g opacity="0.57">
<path d="M77.8736 0C77.8736 0 77.6468 0.906801 76.0811 1.71334L76.7883 2.65349C76.7883 2.65349 78.701 1.5606 79.1992 0.0238854L77.8781 0H77.8736Z" fill="white"/>
</g>
<path d="M58.4231 15.1965L58.2852 15.039L49.4469 12.3473L46.4355 14.6477L53.3078 20.1741L58.4231 15.1965Z" fill="#8ECEDF"/>
<g opacity="0.1">
<path d="M70.3334 6.78122L69.825 7.15877C69.7906 7.18427 69.7821 7.23478 69.8058 7.27162L70.4868 8.32722C70.5106 8.36407 70.5577 8.37323 70.592 8.34773L71.1004 7.97018C71.1347 7.94468 71.1433 7.89417 71.1196 7.85733L70.4385 6.80173C70.4148 6.76488 70.3677 6.75572 70.3334 6.78122Z" fill="black"/>
<path d="M71.4222 5.97382L70.9138 6.35136C70.8795 6.37686 70.8709 6.42742 70.8947 6.46426L71.5757 7.51982C71.5995 7.55666 71.6466 7.56587 71.6809 7.54037L72.1893 7.16283C72.2236 7.13733 72.2322 7.08677 72.2084 7.04993L71.5274 5.99437C71.5037 5.95753 71.4566 5.94832 71.4222 5.97382Z" fill="black"/>
<path d="M72.5515 5.13404L72.2553 5.35404C72.1623 5.42305 72.1392 5.55984 72.2035 5.65953L72.7376 6.48751C72.802 6.5872 72.9294 6.61206 73.0223 6.54305L73.3186 6.32305C73.4115 6.25404 73.4347 6.1173 73.3704 6.01761L72.8362 5.18964C72.7719 5.08994 72.6444 5.06503 72.5515 5.13404Z" fill="black"/>
</g>
<g opacity="0.04">
<path d="M61.8364 16.0763C63.8736 14.8354 65.9153 13.5946 67.8947 12.2392C71.2797 9.9246 75.1317 7.77225 78.0852 4.8563C78.4544 4.4936 80.7985 2.00238 81.0343 1.43446C81.0387 1.42492 81.0521 1.42492 81.0521 1.43924C81.061 1.79717 80.1758 3.27184 80.0201 3.58205C79.5442 4.5413 78.7257 5.32875 78.2098 5.96348C77.7383 6.53617 76.8976 7.38567 76.3149 7.82473C72.961 10.3589 69.0734 12.1724 65.4883 14.3152C64.0382 15.1838 62.6326 16.1478 61.1514 16.9639C60.6043 17.2646 60.0483 17.5462 59.4878 17.8134C59.1498 17.9757 58.5048 18.4481 58.1445 18.3241C59.3322 17.508 60.6088 16.816 61.8364 16.0715V16.0763Z" fill="black"/>
</g>
<path d="M63.7199 16.4743L64.0401 15.2287L63.3818 13.5631L62.8614 13.9306L63.1594 14.8946L62.4477 15.997L62.043 16.5507L62.4744 17.1042L63.7199 16.4743Z" fill="#F3CEB0"/>
<path d="M92.616 34.8148L89.7603 35.0629L82.2742 42.0355L83.6664 44.2356L92.616 38.7759V34.8148Z" fill="#7AAE9F"/>
<path d="M82.5096 42.409L80.548 42.9197L80.0587 44.9432L80.7126 45.5588L82.1894 44.2369L83.3948 43.8026L82.5096 42.409Z" fill="#F3CEB0"/>
</svg>
