<svg width="170" height="82" viewBox="0 0 170 82" fill="none" xmlns="http://www.w3.org/2000/svg">
<path opacity="0.5" d="M58.8846 1.11104C58.8846 1.11104 102.551 6.17819 98.4895 15.2621C94.424 24.3502 120.218 12.0331 130.513 15.3114C137.842 17.6459 134.911 24.7441 138.458 27.6038C146.589 34.1644 154.902 25.9011 165.25 30.8616C175.598 35.8179 163.694 81.0982 159.482 81.09H5.3274C5.3274 81.09 -6.08898 68.6662 4.50276 60.8911C15.0945 53.116 7.82349 49.5587 6.53333 46.5554C5.05696 43.1048 -0.236697 33.2536 14.8418 28.9414C25.7705 25.8149 26.0631 14.8888 25.6197 12.907C25.6197 12.907 21.3946 -2.77446 58.8802 1.11104H58.8846Z" fill="#3F6B68"/>
<path d="M82.405 27.1713H80.9575V28.3461H79.7801V29.7902H80.9575V30.9649H82.405V29.7902H83.5825V28.3461H82.405V27.1713ZM83.3877 28.5404V29.5959H82.2103V30.7706H81.1523V29.5959H79.9748V28.5404H81.1523V27.3657H82.2103V28.5404H83.3877Z" fill="#76BBBF"/>
<path d="M60.0631 9.41449H59.2973V10.0328H58.6776V10.7968H59.2973V11.415H60.0631V10.7968H60.6828V10.0328H60.0631V9.41449ZM60.581 10.1388V10.6996H59.9613V11.3179H59.3991V10.6996H58.7794V10.1388H59.3991V9.52048H59.9613V10.1388H60.581Z" fill="#76BBBF"/>
<path d="M37.2654 61.5656H36.3447V62.312H35.5966V63.2305H36.3447V63.9769H37.2654V63.2305H38.0135V62.312H37.2654V61.5656ZM37.8896 62.4356V63.1069H37.1415V63.8532H36.4686V63.1069H35.7205V62.4356H36.4686V61.6893H37.1415V62.4356H37.8896Z" fill="#76BBBF"/>
<path d="M122.633 38.3423H121.712V39.0886H120.964V40.0072H121.712V40.7535H122.633V40.0072H123.381V39.0886H122.633V38.3423ZM123.257 39.2123V39.8835H122.509V40.6299H121.836V39.8835H121.088V39.2123H121.836V38.4659H122.509V39.2123H123.257Z" fill="#76BBBF"/>
<path d="M49.992 3.65546C49.328 3.65546 48.7879 4.19424 48.7879 4.85667C48.7879 5.51911 49.328 6.05789 49.992 6.05789C50.656 6.05789 51.196 5.51911 51.196 4.85667C51.196 4.19424 50.656 3.65546 49.992 3.65546ZM49.992 5.75317C49.4962 5.75317 49.0934 5.35129 49.0934 4.85667C49.0934 4.36206 49.4962 3.96018 49.992 3.96018C50.4878 3.96018 50.8906 4.36206 50.8906 4.85667C50.8906 5.35129 50.4878 5.75317 49.992 5.75317Z" fill="#76BBBF"/>
<path d="M124.762 59.0303C124.098 59.0303 123.558 59.5691 123.558 60.2316C123.558 60.894 124.098 61.4328 124.762 61.4328C125.426 61.4328 125.966 60.894 125.966 60.2316C125.966 59.5691 125.426 59.0303 124.762 59.0303ZM124.762 61.1281C124.266 61.1281 123.863 60.7262 123.863 60.2316C123.863 59.7369 124.266 59.3351 124.762 59.3351C125.257 59.3351 125.66 59.7369 125.66 60.2316C125.66 60.7262 125.257 61.1281 124.762 61.1281Z" fill="#76BBBF"/>
<path d="M76.6445 11.9771C75.9805 11.9771 75.4404 12.5159 75.4404 13.1783C75.4404 13.8408 75.9805 14.3796 76.6445 14.3796C77.3085 14.3796 77.8485 13.8408 77.8485 13.1783C77.8485 12.5159 77.3085 11.9771 76.6445 11.9771ZM76.6445 14.0748C76.1487 14.0748 75.7459 13.673 75.7459 13.1783C75.7459 12.6837 76.1487 12.2818 76.6445 12.2818C77.1402 12.2818 77.5431 12.6837 77.5431 13.1783C77.5431 13.673 77.1402 14.0748 76.6445 14.0748Z" fill="#76BBBF"/>
<path d="M115.712 20.6517C115.349 20.6517 115.052 20.9476 115.052 21.3097C115.052 21.6719 115.349 21.9678 115.712 21.9678C116.074 21.9678 116.371 21.6719 116.371 21.3097C116.371 20.9476 116.074 20.6517 115.712 20.6517ZM115.712 21.8044C115.441 21.8044 115.216 21.5835 115.216 21.3097C115.216 21.0359 115.437 20.8151 115.712 20.8151C115.986 20.8151 116.207 21.0359 116.207 21.3097C116.207 21.5835 115.986 21.8044 115.712 21.8044Z" fill="#76BBBF"/>
<path d="M23.3929 67.2857H22.7821V67.7803H22.2863V68.3897H22.7821V68.8843H23.3929V68.3897H23.8887V67.7803H23.3929V67.2857ZM23.8046 67.8598V68.3058H23.3088V68.8004H22.8617V68.3058H22.3659V67.8598H22.8617V67.3651H23.3088V67.8598H23.8046Z" fill="#76BBBF"/>
<path d="M115.951 63.7636H114.274V65.1238H112.91V66.7975H114.274V68.1577H115.951V66.7975H117.315V65.1238H115.951V63.7636ZM117.089 65.349V66.5723H115.725V67.9325H114.499V66.5723H113.136V65.349H114.499V63.9888H115.725V65.349H117.089Z" fill="#76BBBF"/>
<path d="M33.8681 38.7343H32.4206V39.909H31.2432V41.3531H32.4206V42.5278H33.8681V41.3531H35.0456V39.909H33.8681V38.7343ZM34.8508 40.1033V41.1588H33.6734V42.3335H32.6154V41.1588H31.4379V40.1033H32.6154V38.9286H33.6734V40.1033H34.8508Z" fill="#76BBBF"/>
<path d="M129.986 39.3174C129.499 39.3174 129.1 39.7148 129.1 40.2006C129.1 40.6864 129.499 41.0839 129.986 41.0839C130.473 41.0839 130.871 40.6864 130.871 40.2006C130.871 39.7148 130.473 39.3174 129.986 39.3174ZM129.986 40.8631C129.623 40.8631 129.326 40.5672 129.326 40.205C129.326 39.8429 129.623 39.547 129.986 39.547C130.349 39.547 130.645 39.8429 130.645 40.205C130.645 40.5672 130.349 40.8631 129.986 40.8631Z" fill="#76BBBF"/>
<path d="M120.965 74.8545C120.549 74.8545 120.208 75.1946 120.208 75.6097C120.208 76.0248 120.549 76.3649 120.965 76.3649C121.381 76.3649 121.722 76.0248 121.722 75.6097C121.722 75.1946 121.381 74.8545 120.965 74.8545ZM120.965 76.1706C120.655 76.1706 120.398 75.9188 120.398 75.6053C120.398 75.2917 120.651 75.04 120.965 75.04C121.279 75.04 121.532 75.2917 121.532 75.6053C121.532 75.9188 121.279 76.1706 120.965 76.1706Z" fill="#76BBBF"/>
<path d="M35.8937 72.0949C35.4776 72.0949 35.1367 72.435 35.1367 72.8501C35.1367 73.2652 35.4776 73.6053 35.8937 73.6053C36.3098 73.6053 36.6506 73.2652 36.6506 72.8501C36.6506 72.435 36.3098 72.0949 35.8937 72.0949ZM35.8937 73.411C35.5838 73.411 35.3271 73.1592 35.3271 72.8457C35.3271 72.5321 35.5794 72.2804 35.8937 72.2804C36.208 72.2804 36.4603 72.5321 36.4603 72.8457C36.4603 73.1592 36.208 73.411 35.8937 73.411Z" fill="#76BBBF"/>
<path d="M25.9484 49.876C25.5323 49.876 25.1914 50.216 25.1914 50.6311C25.1914 51.0463 25.5323 51.3863 25.9484 51.3863C26.3645 51.3863 26.7053 51.0463 26.7053 50.6311C26.7053 50.216 26.3645 49.876 25.9484 49.876ZM25.9484 51.192C25.6385 51.192 25.3818 50.9403 25.3818 50.6267C25.3818 50.3132 25.6341 50.0614 25.9484 50.0614C26.2626 50.0614 26.515 50.3132 26.515 50.6267C26.515 50.9403 26.2626 51.192 25.9484 51.192Z" fill="#76BBBF"/>
<path d="M25.4463 33.4706C24.9594 33.4706 24.5654 33.8636 24.5654 34.3494C24.5654 34.8352 24.9594 35.2283 25.4463 35.2283C25.9333 35.2283 26.3272 34.8352 26.3272 34.3494C26.3272 33.8636 25.9333 33.4706 25.4463 33.4706ZM25.4463 35.0074C25.0833 35.0074 24.7868 34.7116 24.7868 34.3494C24.7868 33.9873 25.0833 33.6914 25.4463 33.6914C25.8093 33.6914 26.1059 33.9873 26.1059 34.3494C26.1059 34.7116 25.8093 35.0074 25.4463 35.0074Z" fill="#76BBBF"/>
<path d="M143.447 37.1356C143.447 37.1356 143.005 40.779 142.451 42.4351C141.898 44.0912 141.371 45.6722 141.783 49.6468C142.194 53.6214 142.447 53.9526 142.54 54.9816C142.633 56.0106 142.487 60.3562 142.708 61.0716C142.929 61.787 141.415 66.7553 141.305 68.8884C141.194 71.0214 140.787 74.1481 141.305 75.5127L141.601 75.3273C141.601 75.3273 140.827 72.0151 142.009 68.0404C143.19 64.0658 142.673 63.5535 144.665 61.0672C146.656 58.5853 146.803 53.4315 146.803 53.4315C146.803 53.4315 147.763 47.58 146.803 45.0053C145.842 42.4306 145.771 39.856 143.447 37.1311V37.1356Z" fill="#296754"/>
<path d="M138.456 33.3477C138.456 33.3477 139.04 35.4587 138.766 36.916C138.491 38.369 138.151 39.3096 138.456 40.6875C138.766 42.0654 139.452 45.6602 138.111 47.9478C136.774 50.2354 138.155 55.3671 137.217 57.3544C136.278 59.3417 136.442 60.4988 137.548 63.0381C138.655 65.5775 140.718 68.925 140.165 74.3349L139.315 73.3059C139.315 73.3059 139.545 68.9294 138.452 66.7566C137.358 64.5838 134.999 61.5322 134.924 59.7303C134.848 57.9285 133.042 58.1493 133.264 55.3141C133.485 52.4833 132.785 51.7458 133.485 49.1314C133.485 49.1314 133.596 48.9856 133.374 47.0336C133.153 45.0817 135.034 40.7802 136.03 39.1992C137.026 37.6182 138.403 35.1539 138.452 33.3477H138.456Z" fill="#296754"/>
<path d="M136.216 45.4469C136.216 45.4469 135.476 48.7591 136.03 50.5609C136.583 52.3628 137.247 53.7627 137.212 56.4831C137.176 59.2035 139.314 60.2369 139.279 61.7429C139.243 63.2532 139.722 64.8696 140.129 66.084C140.536 67.2985 139.943 71.9356 140.315 74.0686C140.682 76.2017 141.054 76.0913 141.054 76.0913C141.054 76.0913 140.501 73.2958 140.647 72.2668C140.793 71.2378 141.125 67.7401 141.054 66.455C140.979 65.1655 141.572 64.1365 141.643 61.893C141.718 59.6496 142.196 57.6269 141.2 54.7917C140.204 51.9609 140.39 48.5736 136.22 45.4469H136.216Z" fill="#3C8F7C"/>
<path d="M141.531 73.8744C141.531 73.8744 141.155 70.0897 144.254 68.7119C147.352 67.334 149.442 67.3649 150.88 64.0527C152.319 60.7405 152.319 56.2183 152.815 55.2776C152.815 55.2776 151.487 55.0568 150.159 57.4284C148.831 59.7999 147.932 61.5664 147.162 62.9487C146.396 64.3265 145.29 63.9423 144.347 64.989C143.559 65.8678 142.833 67.9125 142.554 68.9503C142.465 69.286 142.333 69.6128 142.16 69.9131C142.005 70.1869 141.819 70.5269 141.708 70.7654C141.487 71.2424 141.279 73.9672 141.279 73.9672L141.522 73.8744H141.531Z" fill="#3C8F7C"/>
<path d="M140.199 73.6162C140.199 73.6162 139.943 68.9262 138.504 67.0493C137.065 65.1724 134.188 64.3642 133.856 63.004C133.524 61.6438 133.892 57.5588 131.789 55.28C131.789 55.28 132.086 57.8193 131.789 58.4994C131.492 59.1795 128.987 62.3416 130.461 64.9913C131.935 67.6411 135.255 67.3099 136.286 67.8972C137.318 68.4846 138.354 68.1534 138.535 68.7054C138.721 69.2574 139.566 71.2094 139.863 73.3027L140.195 73.6162H140.199Z" fill="#3C8F7C"/>
<path d="M140.505 70.3197L140.629 65.2411C140.629 65.2411 140.381 61.2664 139.938 58.0293C139.496 54.7922 136.216 45.443 136.216 45.443C136.216 45.443 135.476 48.7552 136.03 50.557C136.583 52.3589 137.247 53.7588 137.212 56.4792C137.176 59.1996 139.314 60.233 139.279 61.739C139.243 63.2493 139.722 64.8657 140.129 66.0801C140.536 67.2946 139.943 71.9317 140.315 74.0647C140.518 75.235 140.718 75.7296 140.859 75.9372C140.031 74.2325 140.509 70.3153 140.509 70.3153L140.505 70.3197Z" fill="#317F6B"/>
<path d="M147.463 65.0959C146.135 65.8334 144.838 66.1425 143.555 67.9267C142.271 69.7153 141.709 71.367 141.709 71.367C141.709 71.367 141.386 72.9568 141.302 73.7694C141.293 73.893 141.284 73.9637 141.284 73.9637L141.527 73.871C141.527 73.871 141.151 70.0862 144.25 68.7084C147.348 67.3305 149.438 67.3614 150.876 64.0492C152.315 60.737 152.315 56.2148 152.811 55.2742C152.811 55.2742 151 57.9195 150.04 60.0525C149.079 62.1856 148.787 64.3584 147.459 65.0915L147.463 65.0959Z" fill="#317F6B"/>
<path d="M131.794 58.4941C131.497 59.1742 128.992 62.3362 130.466 64.986C131.94 67.6357 135.26 67.3045 136.291 67.8919C137.323 68.4792 138.358 68.148 138.54 68.7001C138.726 69.2521 139.571 71.2041 139.868 73.2974L140.014 73.4343C139.934 72.604 139.784 71.3498 139.576 70.4268C139.231 68.9297 138.801 68.4042 137.951 67.3752C137.101 66.3462 133.414 64.8756 132.281 63.8422C131.143 62.8132 132.604 60.0177 132.754 58.843C132.9 57.6727 131.794 55.2702 131.794 55.2702C131.794 55.2702 132.09 57.8096 131.794 58.4897V58.4941Z" fill="#317F6B"/>
<path d="M141.198 70.0552H136.904C136.612 70.0552 136.395 70.4571 136.461 70.8722L138.024 80.504C138.073 80.8043 138.254 81.0163 138.467 81.0163H143.624C143.836 81.0163 144.018 80.8043 144.066 80.504L145.629 70.8722C145.695 70.4526 145.478 70.0552 145.186 70.0552H141.194H141.198Z" fill="#82B2D8"/>
<g style="mix-blend-mode:multiply" opacity="0.5">
<path d="M137.498 77.2283H144.603L145.165 73.7704H136.936L137.498 77.2283Z" fill="#8EA3C9"/>
</g>
<path d="M80.3148 51.1543L79.974 51.1101C79.9784 51.066 80.5583 46.504 79.9076 42.4013C79.4782 39.6986 80.2927 38.8639 80.8106 38.6077C81.4436 38.2986 82.174 38.5415 82.5414 38.9257C83.2054 39.6235 83.9048 40.7231 84.1749 41.1647C84.7503 42.101 85.0159 42.6574 84.9628 42.8164L84.6352 42.706C84.6264 42.7325 84.6308 42.7502 84.6308 42.7546C84.5954 42.4808 83.3249 40.2462 82.2935 39.1598C82.0058 38.8595 81.4304 38.6828 80.9611 38.9125C80.5229 39.1289 79.8501 39.862 80.244 42.3439C80.9036 46.4907 80.3193 51.1013 80.3104 51.1499L80.3148 51.1543Z" fill="#57597B"/>
<path d="M73.4522 35.6612C73.4522 35.6612 75.0502 38.0504 75.5858 41.3626C76.1214 44.6792 76.387 50.4071 76.387 50.4071C76.387 50.4071 73.9745 50.3585 73.8063 49.8241C73.6381 49.2898 73.4212 44.8294 73.4522 44.4098C73.4832 43.9903 73.4522 35.6568 73.4522 35.6568V35.6612Z" fill="#89C9DF"/>
<path d="M104.669 35.9714H106.488C106.488 35.9714 107.086 37.4729 106.984 37.5524C106.882 37.6319 106.422 38.4489 106.214 38.1751C106.006 37.9013 104.669 35.9714 104.669 35.9714Z" fill="#82B2D8"/>
<path d="M108.268 13.1712H90.2742C89.3061 13.1712 88.5213 13.9542 88.5213 14.9201V29.688C88.5213 30.6539 89.3061 31.4368 90.2742 31.4368H108.268C109.236 31.4368 110.021 30.6539 110.021 29.688V14.9201C110.021 13.9542 109.236 13.1712 108.268 13.1712Z" fill="#82B2D8"/>
<path d="M100.801 30.8988H96.9763V35.9687H100.801V30.8988Z" fill="#82B2D8"/>
<path d="M89.3126 35.9714H104.642C105.598 35.9714 106.377 36.7442 106.377 37.7026V45.0115H87.5818V37.7026C87.5818 36.7487 88.3565 35.9714 89.317 35.9714H89.3126Z" fill="#C5DBF0"/>
<g style="mix-blend-mode:multiply" opacity="0.5">
<path d="M106.373 42.3701H87.5779V43.1518H106.373V42.3701Z" fill="#8EA3C9"/>
</g>
<path d="M106.379 35.9714V43.1566H92.617V81.1408H109.664V37.4332C109.664 36.625 109.009 35.9714 108.199 35.9714H106.379Z" fill="#82B2D8"/>
<path d="M90.0013 43.3405C90.0013 43.6893 89.718 43.9676 89.3727 43.9676C89.0274 43.9676 88.7441 43.6849 88.7441 43.3405C88.7441 42.996 89.0274 42.7133 89.3727 42.7133C89.718 42.7133 90.0013 42.996 90.0013 43.3405Z" fill="#57597B"/>
<path d="M91.9376 43.3405C91.9376 43.6894 91.6543 43.9676 91.309 43.9676C90.9637 43.9676 90.6804 43.6849 90.6804 43.3405C90.6804 42.996 90.9637 42.7134 91.309 42.7134C91.6543 42.7134 91.9376 42.996 91.9376 43.3405Z" fill="#57597B"/>
<path d="M93.878 43.3405C93.878 43.6894 93.5947 43.9676 93.2494 43.9676C92.9042 43.9676 92.6209 43.6849 92.6209 43.3405C92.6209 42.996 92.9042 42.7134 93.2494 42.7134C93.5947 42.7134 93.878 42.996 93.878 43.3405Z" fill="#57597B"/>
<path d="M95.8087 43.3405C95.8087 43.6894 95.5254 43.9676 95.1801 43.9676C94.8348 43.9676 94.5515 43.6849 94.5515 43.3405C94.5515 42.996 94.8348 42.7134 95.1801 42.7134C95.5254 42.7134 95.8087 42.996 95.8087 43.3405Z" fill="#57597B"/>
<path d="M97.7452 43.3405C97.7452 43.6894 97.4619 43.9676 97.1166 43.9676C96.7714 43.9676 96.4881 43.6849 96.4881 43.3405C96.4881 42.996 96.7714 42.7134 97.1166 42.7134C97.4619 42.7134 97.7452 42.996 97.7452 43.3405Z" fill="#57597B"/>
<path d="M99.6808 43.3405C99.6808 43.6894 99.3975 43.9676 99.0522 43.9676C98.7069 43.9676 98.4236 43.6849 98.4236 43.3405C98.4236 42.996 98.7069 42.7134 99.0522 42.7134C99.3975 42.7134 99.6808 42.996 99.6808 43.3405Z" fill="#57597B"/>
<path d="M101.614 43.3405C101.614 43.6894 101.331 43.9676 100.986 43.9676C100.64 43.9676 100.357 43.6849 100.357 43.3405C100.357 42.996 100.64 42.7134 100.986 42.7134C101.331 42.7134 101.614 42.996 101.614 43.3405Z" fill="#57597B"/>
<path d="M103.55 43.3405C103.55 43.6894 103.267 43.9676 102.921 43.9676C102.576 43.9676 102.293 43.6849 102.293 43.3405C102.293 42.996 102.576 42.7134 102.921 42.7134C103.267 42.7134 103.55 42.996 103.55 43.3405Z" fill="#57597B"/>
<path d="M104.625 43.1522H87.5779V81.1363H104.625V43.1522Z" fill="#C5DBF0"/>
<path d="M103.651 37.5043H90.3003C90.1365 37.5043 90.0037 37.6367 90.0037 37.8001V40.2865C90.0037 40.4499 90.1365 40.5824 90.3003 40.5824H103.651C103.815 40.5824 103.947 40.4499 103.947 40.2865V37.8001C103.947 37.6367 103.815 37.5043 103.651 37.5043Z" fill="#57597B"/>
<path d="M89.6622 44.9425H93.7613C94.0092 44.9425 94.2128 45.1456 94.2128 45.3929V49.1909C94.2128 49.4382 94.0092 49.6413 93.7613 49.6413H89.6622C89.4143 49.6413 89.2107 49.4382 89.2107 49.1909V45.3929C89.2107 45.1456 89.4143 44.9425 89.6622 44.9425Z" fill="#57597B"/>
<path d="M102.739 44.9425H95.8067C95.6307 44.9425 95.488 45.0848 95.488 45.2604V47.9323C95.488 48.1079 95.6307 48.2502 95.8067 48.2502H102.739C102.915 48.2502 103.058 48.1079 103.058 47.9323V45.2604C103.058 45.0848 102.915 44.9425 102.739 44.9425Z" fill="#57597B"/>
<path d="M99.9269 30.8988H96.1024V35.9687H99.9269V30.8988Z" fill="#C5DBF0"/>
<path d="M107.329 13.1712H89.3264C88.3607 13.1712 87.5779 13.9523 87.5779 14.9157V29.6924C87.5779 30.6558 88.3607 31.4368 89.3264 31.4368H107.329C108.295 31.4368 109.078 30.6558 109.078 29.6924V14.9157C109.078 13.9523 108.295 13.1712 107.329 13.1712Z" fill="#C5DBF0"/>
<g style="mix-blend-mode:multiply" opacity="0.5">
<path d="M100.803 31.4391H96.1024V32.9715H100.803V31.4391Z" fill="#8EA3C9"/>
</g>
<g style="mix-blend-mode:multiply" opacity="0.5">
<path d="M100.803 35.6067H96.1024V35.9733H100.803V35.6067Z" fill="#8EA3C9"/>
</g>
<path d="M107.329 13.1712H89.3264C88.3607 13.1712 87.5779 13.9523 87.5779 14.9157V29.6924C87.5779 30.6558 88.3607 31.4368 89.3264 31.4368H107.329C108.295 31.4368 109.078 30.6558 109.078 29.6924V14.9157C109.078 13.9523 108.295 13.1712 107.329 13.1712Z" fill="#C5DBF0"/>
<path d="M106.214 14.3063H90.4464C89.6005 14.3063 88.9148 14.9904 88.9148 15.8343V28.7739C88.9148 29.6178 89.6005 30.3019 90.4464 30.3019H106.214C107.06 30.3019 107.746 29.6178 107.746 28.7739V15.8343C107.746 14.9904 107.06 14.3063 106.214 14.3063Z" fill="#57597B"/>
<path d="M93.6629 45.6855H89.5683C89.5537 45.6855 89.5418 45.6974 89.5418 45.712V45.9505C89.5418 45.9651 89.5537 45.977 89.5683 45.977H93.6629C93.6776 45.977 93.6895 45.9651 93.6895 45.9505V45.712C93.6895 45.6974 93.6776 45.6855 93.6629 45.6855Z" fill="#312F3D"/>
<path d="M93.6629 46.6509H89.5683C89.5537 46.6509 89.5418 46.6627 89.5418 46.6774V46.9159C89.5418 46.9305 89.5537 46.9423 89.5683 46.9423H93.6629C93.6776 46.9423 93.6895 46.9305 93.6895 46.9159V46.6774C93.6895 46.6627 93.6776 46.6509 93.6629 46.6509Z" fill="#312F3D"/>
<path d="M91.1044 47.6123H89.5683C89.5537 47.6123 89.5418 47.6242 89.5418 47.6388V47.8773C89.5418 47.8919 89.5537 47.9038 89.5683 47.9038H91.1044C91.119 47.9038 91.1309 47.8919 91.1309 47.8773V47.6388C91.1309 47.6242 91.119 47.6123 91.1044 47.6123Z" fill="#312F3D"/>
<path d="M96.303 46.7563C96.303 46.863 96.2183 46.9475 96.1114 46.9475C96.0044 46.9475 95.9197 46.863 95.9197 46.7563C95.9197 46.6495 96.0044 46.565 96.1114 46.565C96.2183 46.565 96.303 46.6495 96.303 46.7563Z" fill="#C5DBF0"/>
<path d="M99.8982 50.9718H90.4695C89.873 50.9718 89.3894 51.4542 89.3894 52.0494V61.1424C89.3894 61.7375 89.873 62.22 90.4695 62.22H99.8982C100.495 62.22 100.978 61.7375 100.978 61.1424V52.0494C100.978 51.4542 100.495 50.9718 99.8982 50.9718Z" fill="#57597B"/>
<path d="M99.9853 53.6826H90.3574C90.3427 53.6826 90.3308 53.6945 90.3308 53.7091V53.9476C90.3308 53.9622 90.3427 53.9741 90.3574 53.9741H99.9853C99.9999 53.9741 100.012 53.9622 100.012 53.9476V53.7091C100.012 53.6945 99.9999 53.6826 99.9853 53.6826Z" fill="#312F3D"/>
<path d="M99.9853 56.4188H90.3574C90.3427 56.4188 90.3308 56.4306 90.3308 56.4453V56.6837C90.3308 56.6984 90.3427 56.7102 90.3574 56.7102H99.9853C99.9999 56.7102 100.012 56.6984 100.012 56.6837V56.4453C100.012 56.4306 99.9999 56.4188 99.9853 56.4188Z" fill="#312F3D"/>
<path d="M99.9853 57.3569H90.3574C90.3427 57.3569 90.3308 57.3687 90.3308 57.3834V57.6218C90.3308 57.6365 90.3427 57.6483 90.3574 57.6483H99.9853C99.9999 57.6483 100.012 57.6365 100.012 57.6218V57.3834C100.012 57.3687 99.9999 57.3569 99.9853 57.3569Z" fill="#312F3D"/>
<path d="M99.9853 58.2988H90.3574C90.3427 58.2988 90.3308 58.3107 90.3308 58.3253V58.5638C90.3308 58.5784 90.3427 58.5903 90.3574 58.5903H99.9853C99.9999 58.5903 100.012 58.5784 100.012 58.5638V58.3253C100.012 58.3107 99.9999 58.2988 99.9853 58.2988Z" fill="#312F3D"/>
<path d="M99.9853 59.2388H90.3574C90.3427 59.2388 90.3308 59.2507 90.3308 59.2653V59.5038C90.3308 59.5184 90.3427 59.5303 90.3574 59.5303H99.9853C99.9999 59.5303 100.012 59.5184 100.012 59.5038V59.2653C100.012 59.2507 99.9999 59.2388 99.9853 59.2388Z" fill="#312F3D"/>
<path d="M99.9366 54.8001H90.4061C90.3645 54.8001 90.3308 54.8337 90.3308 54.8752V55.5111C90.3308 55.5526 90.3645 55.5862 90.4061 55.5862H99.9366C99.9781 55.5862 100.012 55.5526 100.012 55.5111V54.8752C100.012 54.8337 99.9781 54.8001 99.9366 54.8001Z" fill="#312F3D"/>
<path d="M90.7337 52.3741C90.7337 52.4808 90.649 52.5653 90.542 52.5653C90.435 52.5653 90.3504 52.4808 90.3504 52.3741C90.3504 52.2674 90.435 52.1829 90.542 52.1829C90.649 52.1829 90.7337 52.2674 90.7337 52.3741Z" fill="#C5DBF0"/>
<path d="M91.5755 52.3741C91.5755 52.4808 91.4908 52.5653 91.3838 52.5653C91.2768 52.5653 91.1922 52.4808 91.1922 52.3741C91.1922 52.2674 91.2768 52.1829 91.3838 52.1829C91.4908 52.1829 91.5755 52.2674 91.5755 52.3741Z" fill="#C5DBF0"/>
<path d="M92.4182 52.3741C92.4182 52.4808 92.3335 52.5653 92.2266 52.5653C92.1196 52.5653 92.0349 52.4808 92.0349 52.3741C92.0349 52.2674 92.1196 52.1829 92.2266 52.1829C92.3335 52.1829 92.4182 52.2674 92.4182 52.3741Z" fill="#C5DBF0"/>
<path d="M93.2669 52.3741C93.2669 52.4808 93.1822 52.5653 93.0752 52.5653C92.9682 52.5653 92.8836 52.4808 92.8836 52.3741C92.8836 52.2674 92.9682 52.1829 93.0752 52.1829C93.1822 52.1829 93.2669 52.2674 93.2669 52.3741Z" fill="#C5DBF0"/>
<path d="M94.1058 52.3741C94.1058 52.4808 94.0211 52.5653 93.9141 52.5653C93.8071 52.5653 93.7224 52.4808 93.7224 52.3741C93.7224 52.2674 93.8071 52.1829 93.9141 52.1829C94.0211 52.1829 94.1058 52.2674 94.1058 52.3741Z" fill="#C5DBF0"/>
<path d="M94.9526 52.3741C94.9526 52.4808 94.8679 52.5653 94.7609 52.5653C94.6539 52.5653 94.5692 52.4808 94.5692 52.3741C94.5692 52.2674 94.6539 52.1829 94.7609 52.1829C94.8679 52.1829 94.9526 52.2674 94.9526 52.3741Z" fill="#C5DBF0"/>
<path d="M95.7941 52.3741C95.7941 52.4808 95.7094 52.5653 95.6024 52.5653C95.4955 52.5653 95.4108 52.4808 95.4108 52.3741C95.4108 52.2674 95.4955 52.1829 95.6024 52.1829C95.7094 52.1829 95.7941 52.2674 95.7941 52.3741Z" fill="#C5DBF0"/>
<path d="M96.639 52.3741C96.639 52.4808 96.5543 52.5653 96.4473 52.5653C96.3403 52.5653 96.2556 52.4808 96.2556 52.3741C96.2556 52.2674 96.3403 52.1829 96.4473 52.1829C96.5543 52.1829 96.639 52.2674 96.639 52.3741Z" fill="#C5DBF0"/>
<path d="M97.4827 52.3741C97.4827 52.4808 97.398 52.5653 97.291 52.5653C97.1841 52.5653 97.0994 52.4808 97.0994 52.3741C97.0994 52.2674 97.1841 52.1829 97.291 52.1829C97.398 52.1829 97.4827 52.2674 97.4827 52.3741Z" fill="#C5DBF0"/>
<path d="M98.3255 52.3741C98.3255 52.4808 98.2408 52.5653 98.1338 52.5653C98.0268 52.5653 97.9422 52.4808 97.9422 52.3741C97.9422 52.2674 98.0268 52.1829 98.1338 52.1829C98.2408 52.1829 98.3255 52.2674 98.3255 52.3741Z" fill="#C5DBF0"/>
<path d="M99.1712 52.3741C99.1712 52.4808 99.0865 52.5653 98.9795 52.5653C98.8725 52.5653 98.7879 52.4808 98.7879 52.3741C98.7879 52.2674 98.8725 52.1829 98.9795 52.1829C99.0865 52.1829 99.1712 52.2674 99.1712 52.3741Z" fill="#C5DBF0"/>
<path d="M100.011 52.3741C100.011 52.4808 99.9263 52.5653 99.8194 52.5653C99.7124 52.5653 99.6277 52.4808 99.6277 52.3741C99.6277 52.2674 99.7124 52.1829 99.8194 52.1829C99.9263 52.1829 100.011 52.2674 100.011 52.3741Z" fill="#C5DBF0"/>
<path d="M97.0942 46.7563C97.0942 46.863 97.0095 46.9475 96.9025 46.9475C96.7955 46.9475 96.7108 46.863 96.7108 46.7563C96.7108 46.6496 96.7955 46.5651 96.9025 46.5651C97.0095 46.5651 97.0942 46.6496 97.0942 46.7563Z" fill="#C5DBF0"/>
<path d="M101.046 46.7563C101.046 46.863 100.962 46.9475 100.855 46.9475C100.748 46.9475 100.663 46.863 100.663 46.7563C100.663 46.6496 100.748 46.5651 100.855 46.5651C100.962 46.5651 101.046 46.6496 101.046 46.7563Z" fill="#C5DBF0"/>
<path d="M101.834 46.7563C101.834 46.863 101.75 46.9475 101.643 46.9475C101.536 46.9475 101.451 46.863 101.451 46.7563C101.451 46.6496 101.536 46.5651 101.643 46.5651C101.75 46.5651 101.834 46.6496 101.834 46.7563Z" fill="#C5DBF0"/>
<path d="M102.627 46.7563C102.627 46.863 102.543 46.9475 102.436 46.9475C102.329 46.9475 102.244 46.863 102.244 46.7563C102.244 46.6495 102.329 46.565 102.436 46.565C102.543 46.565 102.627 46.6495 102.627 46.7563Z" fill="#C5DBF0"/>
<path opacity="0.2" d="M92.0082 15.7768H89.5603V15.9446H92.0082V15.7768Z" fill="#C5DBF0"/>
<path opacity="0.2" d="M92.0082 16.2565H89.5603V16.4243H92.0082V16.2565Z" fill="#C5DBF0"/>
<path opacity="0.2" d="M92.0082 16.7402H89.5603V16.908H92.0082V16.7402Z" fill="#C5DBF0"/>
<path opacity="0.2" d="M92.0082 17.2277H89.5603V17.3955H92.0082V17.2277Z" fill="#C5DBF0"/>
<path opacity="0.2" d="M92.0082 17.7055H89.5603V17.8734H92.0082V17.7055Z" fill="#C5DBF0"/>
<path opacity="0.5" d="M105.942 28.1783H90.573V28.5095H105.942V28.1783Z" fill="#C5DBF0"/>
<path opacity="0.2" d="M105.942 29.0598H90.573V29.2232H105.942V29.0598Z" fill="#C5DBF0"/>
<path opacity="0.2" d="M101.928 18.8893C100.848 19.83 96.9347 19.83 95.8546 18.8893L93.9246 24.6923C93.9246 24.6923 95.3677 25.6948 98.8912 25.6727C102.419 25.6948 103.858 24.6923 103.858 24.6923L101.928 18.8893Z" fill="#C5DDF9"/>
<path d="M90.2702 57.1897C90.2702 57.1897 87.7072 60.0824 87.0521 60.5417C86.3969 61.0009 80.1244 72.4213 80.1244 72.4213L82.3599 74.0333C82.3599 74.0333 87.9684 67.1219 90.5978 63.4255C92.8244 60.2988 92.0054 60.4975 93.3113 58.5941C94.0328 57.5474 93.869 56.1298 92.9173 55.2819C92.7978 55.1759 92.6694 55.0655 92.5322 54.9507C90.5934 53.352 77.3091 51.559 77.3091 51.559L68.8145 52.3804C68.8145 52.3804 75.7554 57.1941 76.0165 57.3222C76.2777 57.4503 85.6046 58.7972 85.7949 58.7972C85.9853 58.7972 90.2658 57.1941 90.2658 57.1941L90.2702 57.1897Z" fill="#89C9DF"/>
<path d="M73.1095 23.8591C71.9099 23.3469 70.5642 22.8257 69.3336 23.263C68.559 23.5368 67.9614 24.1506 67.3948 24.7468C66.7751 25.4004 66.1155 26.1423 66.0978 27.0433C66.0934 27.4098 66.1952 27.7675 66.3103 28.1164C66.5316 28.7921 66.8061 29.4678 67.2443 30.0286C67.957 30.9384 69.0503 31.4772 70.1658 31.7907C71.153 32.0645 71.3964 31.9674 72.419 31.9232C73.1095 31.8923 74.2029 30.7971 74.6544 30.2715C75.3671 29.4369 75.3051 25.82 74.5526 24.9102C74.3534 24.6673 74.0701 24.4333 73.7514 24.2169C73.5478 24.0755 73.3353 23.9475 73.114 23.8326L73.1007 23.8636L73.1095 23.8591Z" fill="#13375B"/>
<path d="M70.5022 34.0222C70.5022 34.0222 66.9432 33.7616 65.686 34.8039C64.4289 35.8417 65.9561 45.0761 65.9561 46.6041C65.9561 48.1365 65.0929 52.46 65.0929 52.46C65.0929 52.46 73.4414 53.9041 74.7694 51.6077C74.7694 51.6077 75.1457 42.8547 75.0926 41.7551C75.035 40.6554 73.8 36.1508 73.4547 35.6695C73.1139 35.1881 70.5022 34.0266 70.5022 34.0266V34.0222Z" fill="#95D8ED"/>
<path d="M69.6831 30.2721C69.6831 30.2721 69.6698 30.3516 69.6432 30.4929C69.5193 31.1598 69.0368 33.3635 68.7137 33.9685C68.3197 34.7016 70.0593 37.0378 71.7326 36.7508C72.2284 36.6669 71.3121 34.6045 71.3563 34.3837C71.4404 33.9641 71.5555 33.3944 71.6706 32.8115C71.737 32.4803 71.8034 32.149 71.8654 31.8311C72.0425 30.939 72.1885 30.2059 72.1885 30.2059L69.6831 30.2677V30.2721Z" fill="#F7A48F"/>
<path d="M69.6426 30.4924C69.6692 30.3555 69.6825 30.2716 69.6825 30.2716L72.1879 30.2098C72.1879 30.2098 72.0419 30.9385 71.8648 31.835C71.8028 32.1485 71.7364 32.4797 71.67 32.8065C71.2849 32.7491 70.8777 32.5637 70.4748 32.2148C70.0322 31.835 69.7444 31.3757 69.5674 30.8855C69.5984 30.7309 69.6249 30.594 69.6426 30.4924Z" fill="#F37458"/>
<path d="M71.3693 24.4669C71.3693 24.4669 70.1874 24.3344 69.4481 25.2751C68.7089 26.2202 67.9077 29.1437 69.7491 30.7292C71.5906 32.319 73.4055 30.5216 73.6755 28.6138C73.9456 26.706 74.0518 24.3963 71.3693 24.4625V24.4669Z" fill="#F7A48F"/>
<path d="M71.5001 24.1513C71.5001 24.1513 69.9198 26.9291 68.791 27.0572C67.6622 27.1852 67.5117 28.6603 67.5117 28.6603C67.5117 28.6603 67.9145 25.2598 69.0345 24.6017C70.15 23.9437 71.4957 24.1469 71.4957 24.1469L71.5001 24.1513Z" fill="#13375B"/>
<path d="M97.7549 74.9608C97.7549 74.9608 99.8265 77.8402 99.6406 78.7543C99.5432 79.2445 99.1094 79.8805 99.3573 80.3397C99.6052 80.799 99.8929 80.9139 99.8929 80.9139L106.347 81.0154C106.697 81.0199 106.466 80.799 106.183 80.5915C105.718 80.2558 105.347 80.0306 103.864 79.324C103.766 79.2799 103.417 79.059 103.288 78.9795C102.965 78.7852 102.642 78.4805 102.363 78.1758C101.898 77.6679 99.8619 73.5166 99.8619 73.5166L97.7549 74.9608Z" fill="#F8A491"/>
<path d="M103.291 78.9841C101.582 79.4168 100.321 79.121 99.6168 78.8427C99.4353 79.3506 99.1918 79.991 99.3202 80.3575C99.4751 80.808 99.7009 80.9095 99.8957 80.9139C101.454 80.9537 105.61 81.0111 106.797 81.0244C106.965 81.0244 107.053 80.8345 106.947 80.7108C106.651 80.3619 103.415 79.0591 103.286 78.9841H103.291Z" fill="#F37458"/>
<path d="M67.9546 52.4523C67.9546 52.4523 66.4983 56.7758 68.685 58.794C70.8718 60.8122 83.8594 60.587 88.1311 60.587C88.1311 60.587 89.8796 65.3256 90.0744 66.0941C90.2691 66.8625 98.755 76.7902 98.755 76.7902L101.088 75.3152C101.088 75.3152 91.9557 57.7694 91.243 57.001C90.5303 56.2326 80.3624 53.1589 77.8348 52.4523C75.3072 51.7457 67.9591 52.4523 67.9591 52.4523H67.9546Z" fill="#C5E6F2"/>
<path d="M67.3845 58.1778C67.3845 58.1778 81.4655 58.4162 82.9351 58.1778C84.4048 57.9393 85.0378 59.772 84.5995 60.7348C84.1613 61.6975 82.9573 62.0685 81.1822 62.1568C79.4071 62.2451 64.64 62.6603 64.2239 62.2672C63.883 61.9448 61.05 45.9668 59.421 40.3847C59.0934 39.2674 59.7397 38.1015 60.8552 37.7747L61.0146 37.7306C62.1256 37.4038 63.1349 38.0794 63.4713 39.1879L67.3845 58.1822V58.1778Z" fill="#F8CC7F"/>
<path d="M81.9185 44.7774L74.1985 42.9226C74.1985 42.9226 71.4673 39.3012 68.8423 36.1834C68.0322 36.943 67.5674 38.1265 66.7529 38.8773L72.5385 45.4707C72.7466 45.7092 73.0476 45.8505 73.3663 45.8549L81.7636 45.7975L81.9185 44.773V44.7774Z" fill="#F7A48F"/>
<path d="M69.1724 27.7594C69.2786 28.2497 69.0794 28.7089 68.7297 28.784C68.38 28.8591 68.0126 28.519 67.9064 28.0288C67.8001 27.5386 67.9993 27.0793 68.349 27.0043C68.6987 26.9292 69.0662 27.2692 69.1724 27.7594Z" fill="#F7A48F"/>
<path d="M68.7087 33.9718L67.6906 34.3913L69.6516 35.9503L69.3727 36.1843L71.9578 37.6417L68.7087 33.9718Z" fill="#C5E6F2"/>
<path d="M71.3506 34.3931L72.1474 34.8126L71.749 35.1968L72.2536 35.3514L71.957 37.6434L71.3506 34.3931Z" fill="#C5E6F2"/>
<path d="M70.9221 36.4692C70.9221 36.4692 71.2895 36.637 71.7233 36.3764L71.9579 37.6395L70.9221 36.4692Z" fill="#13375B"/>
<path d="M82.228 73.9422C82.228 73.9422 80.0412 76.5302 80.0235 76.7907C80.0058 77.0513 80.1253 79.9042 80.4263 80.1647C80.7273 80.4253 81.6127 80.6108 81.3294 80.9066C81.1125 81.1275 79.4569 81.0833 78.3635 81.0215C78.0448 81.0038 77.642 78.4777 77.5136 78.1067C77.3277 77.568 76.8806 76.3535 77.0488 75.9781C77.1285 75.797 77.5225 75.4173 78.0714 75.0684C78.6513 74.6974 80.236 72.5025 80.236 72.5025L82.2324 73.9422H82.228Z" fill="#F58D81"/>
<path d="M78.1052 75.0495C78.1052 75.0495 79.805 79.7881 80.4734 80.0178C80.6505 80.0796 81.5004 80.2342 81.6597 80.6052C81.7084 80.7156 81.6597 81.0909 81.6597 81.0909H78.114C78.114 81.0909 77.6669 79.0021 77.4899 78.0879C77.4899 78.0879 76.5514 75.8489 76.6532 75.6413C76.7595 75.4381 78.1052 75.0539 78.1052 75.0539V75.0495Z" fill="#F37458"/>
<path d="M42.0067 54.9435C42.7902 56.0961 50.0897 55.0186 50.0897 55.0186L49.1158 57.3018C46.6768 57.9421 44.3041 58.5516 44.3041 58.5516L42.2103 58.8828C41.3693 59.3377 40.1962 59.108 40.1829 57.6772C40.1696 56.2198 38.3016 54.1707 38.5407 52.8944C38.7797 51.6225 38.9523 50.9645 38.9523 50.9645H38.9789C39.3596 50.8717 39.7447 51.0837 39.8731 51.4503L40.1077 52.1083C40.1077 52.1083 40.9222 53.3492 42.0067 54.9435Z" fill="#F7A48F"/>
<path d="M88.7611 54.5102C88.7611 54.5102 66.6192 41.1467 64.4812 41.7517C62.3431 42.3523 49.6299 56.9966 49.6299 56.9966C49.6299 56.9966 55.9953 56.7537 56.23 56.7625C56.4114 56.7714 61.3825 52.3993 62.2457 51.569L64.3528 48.3098C64.3528 48.3098 74.4012 59.0722 80.5719 60.035C88.252 61.2318 88.7655 54.5102 88.7655 54.5102H88.7611Z" fill="#13375B"/>
<path d="M86.6761 53.8162C86.6761 53.8162 87.2958 51.0074 83.5067 51.6699C81.6785 51.9878 62.6485 51.661 62.6485 51.661L44.371 55.4678L44.163 59.1112C44.163 59.1112 56.6858 58.9523 58.7265 58.8198C60.7672 58.6873 64.1801 58.546 64.1801 58.546L79.235 61.0544C82.794 61.6197 87.6278 58.6961 87.6278 54.8716L86.6761 53.8162Z" fill="#34548A"/>
<path d="M108.688 50.2343C108.688 50.2343 109.569 51.9213 108.188 53.3036C106.807 54.6814 99.0821 58.6472 95.107 59.8926C91.132 61.138 85.8953 62.2686 85.8953 62.2686C80.2204 57.446 83.8413 52.0715 83.8413 52.0715C83.8413 52.0715 95.8684 48.088 98.8298 47.5757C105.018 46.507 107.44 46.9133 107.44 46.9133L108.692 50.2343H108.688Z" fill="#F48B80"/>
<path d="M107.061 46.8685C107.061 46.8685 104.9 45.8793 102.917 45.7512C100.93 45.6231 100.288 46.5682 98.8315 47.5795C97.3707 48.5864 96.1489 49.5536 97.4725 49.6552C98.7961 49.7567 104.772 47.7738 104.772 47.7738L107.061 46.8729V46.8685Z" fill="#F9E0B2"/>
<path d="M91.5782 59.4355C95.8803 59.2729 99.2358 55.6616 99.0727 51.3696C98.9097 47.0776 95.29 43.73 90.9879 43.8926C86.6858 44.0553 83.3304 47.6665 83.4934 51.9586C83.6564 56.2506 87.2761 59.5981 91.5782 59.4355Z" fill="#F48B80"/>
<path d="M111.603 48.6458L108.04 50.77C108.04 50.77 104.897 50.3063 104.773 48.8931C104.671 47.7051 106.703 46.9323 106.703 46.9323C106.703 46.9323 109.089 46.632 110.094 46.0225C111.099 45.4131 111.608 48.6546 111.608 48.6546L111.603 48.6458Z" fill="#F7A48F"/>
<path d="M110.092 46.0206C111.097 45.4112 111.606 48.6527 111.606 48.6527L111.309 48.8293C111.061 48.8293 110.84 48.7984 110.649 48.7233C109.667 48.3524 108.817 47.4956 108.423 46.6168C109.038 46.471 109.684 46.2723 110.096 46.0206H110.092Z" fill="#F27458"/>
<path d="M116.835 46.9399C116.901 47.0105 112.78 49.3732 111.129 48.7461C109.473 48.1234 108.198 46.1184 108.822 44.957C109.517 43.6718 114.218 41.8082 116.157 43.0359C118.096 44.2636 116.835 46.9399 116.835 46.9399Z" fill="#F7A48F"/>
<path d="M110.756 45.977L110.336 44.2105C110.336 44.2105 109.672 44.4092 109.836 45.1909C110.035 46.1448 110.756 45.9726 110.756 45.9726V45.977Z" fill="white"/>
<path d="M71.2317 61.9557H70.0498V79.2276H71.2317V61.9557Z" fill="#13375B"/>
<path d="M64.6577 79.9934H76.4192C76.9593 79.9934 77.402 80.4306 77.402 80.9738C77.402 81.0665 77.3267 81.146 77.2293 81.146H63.8477C63.7547 81.146 63.675 81.0709 63.675 80.9738C63.675 80.435 64.1133 79.9934 64.6577 79.9934Z" fill="#13375B"/>
<path d="M69.9586 79.2269H71.3972C71.8222 79.2269 72.1675 79.5714 72.1675 79.9954C72.1675 80.4193 71.8222 80.7638 71.3972 80.7638H69.9586C69.5336 80.7638 69.1883 80.4193 69.1883 79.9954C69.1883 79.5714 69.5336 79.2269 69.9586 79.2269Z" fill="#13375B"/>
<path d="M98.826 47.5733C98.826 47.5733 98.3744 46.8269 96.139 45.5815C96.139 45.5815 95.4794 53.4601 93.8018 55.8979L95.3821 60.5835L104.771 52.3384L98.826 47.5688V47.5733Z" fill="#F9E0B2"/>
<path d="M108.692 50.2337L107.439 46.9127C107.439 46.9127 107.315 46.8906 107.054 46.8729H107.058C107.058 46.8729 104.898 45.8793 102.915 45.7512C100.927 45.6231 100.286 46.5682 98.8293 47.5795L104.774 52.3491L96.917 59.2472C101.525 58.6643 107.001 54.4954 108.192 53.303C109.573 51.9251 108.692 50.2337 108.692 50.2337Z" fill="#F9E0B2"/>
<path d="M83.4837 51.6643C83.4837 51.6643 85.2676 57.1272 87.1799 58.5492H82.4434C82.4434 58.5492 81.6776 56.6414 81.6776 56.4383C81.6776 56.2351 82.4656 53.0908 82.4656 53.0908L83.4837 51.6687V51.6643Z" fill="#34548A"/>
<path d="M114.843 42.6523C114.843 42.6523 113.267 44.9885 114.046 46.4547C114.826 47.9209 116.379 44.3393 116.379 44.3393L115.445 43.169L114.843 42.6523Z" fill="#13375B"/>
<path d="M80.3489 51.4077C80.3489 51.4077 78.7731 50.8292 78.6801 50.9484C78.6181 51.0279 78.4411 51.1736 79.7779 51.8493C81.1103 52.525 80.3489 51.4077 80.3489 51.4077Z" fill="#F48B80"/>
<path d="M77.7502 52.0444C77.7059 51.8678 78.029 51.7044 78.2725 51.5807C78.5425 51.4438 79.9148 51.3511 80.1405 51.3599C80.3663 51.3687 82.0174 52.2255 82.6062 52.6759C83.1949 53.1264 83.6641 53.1926 83.6641 53.1926C85.5366 53.4488 91.0388 54.8002 93.1282 55.3433C93.1282 55.3433 99.2989 53.2015 99.4361 53.1838C99.5733 53.1661 101.247 57.5426 101.247 57.5426L92.9733 58.554C92.9733 58.554 92.9423 58.5628 92.9246 58.5584C92.3447 58.4745 81.3047 54.0803 80.8399 53.9036C80.3751 53.727 79.689 52.9321 79.512 52.7908C79.3393 52.6494 78.9144 52.5655 78.5956 52.5964C78.2769 52.6274 77.3828 52.6539 77.2721 52.5346C77.1659 52.4198 77.7369 52.0444 77.7369 52.0444H77.7502Z" fill="#F8A491"/>
<path d="M101.304 58.5394C105.487 56.4991 110.445 53.6462 109.683 50.334C109.382 49.0268 106.248 48.201 98.1785 53.2355C98.9399 54.8033 100.122 57.0688 101.304 58.5394Z" fill="#F8CC7F"/>
<path d="M115.616 44.7124C115.616 44.7124 114.929 45.6575 113.982 46.5143C113.035 47.371 110.879 46.7218 109.808 47.9054C108.737 49.0889 102.893 46.8587 101.003 50.3741C99.1132 53.8894 103.084 55.5057 103.084 55.5057L116.563 45.5824L117.594 45.4897C117.594 45.4897 118.28 42.1466 114.845 42.6589C114.845 42.6589 115.877 44.1162 115.62 44.7168L115.616 44.7124Z" fill="#13375B"/>
<path d="M98.9035 62.9756H28.0911C27.9933 62.9756 27.9141 63.0547 27.9141 63.1522V64.6449C27.9141 64.7425 27.9933 64.8216 28.0911 64.8216H98.9035C99.0013 64.8216 99.0806 64.7425 99.0806 64.6449V63.1522C99.0806 63.0547 99.0013 62.9756 98.9035 62.9756Z" fill="#13375B"/>
<path d="M101.823 61.4276L117.802 49.6357C117.909 49.5569 118.058 49.5791 118.137 49.6856L118.953 50.7863C119.032 50.8928 119.009 51.041 118.903 51.1198L102.924 62.9117C102.817 62.9905 102.668 62.9683 102.589 62.8618L101.773 61.7612C101.694 61.6547 101.717 61.5064 101.823 61.4276Z" fill="#13375B"/>
<path d="M119.885 46.2498C119.053 45.128 117.473 44.894 116.349 45.7198L100.329 57.5333C99.439 58.1869 98.3633 58.5402 97.2611 58.5402H27.9758C26.5815 58.5402 25.4482 59.6707 25.4482 61.0618C25.4482 62.453 26.5815 63.5835 27.9758 63.5835H98.4518C99.8196 63.5835 101.152 63.1463 102.254 62.3381L119.359 49.7695C120.483 48.9393 120.718 47.3627 119.89 46.2409L119.885 46.2498Z" fill="#F37458"/>
<path d="M31.2431 63.9585H29.7646V81.1421H31.2431V63.9585Z" fill="#13375B"/>
<path d="M97.2257 63.9585H95.7472V81.1421H97.2257V63.9585Z" fill="#13375B"/>
<path d="M108.629 57.7593C109.178 58.934 109.488 60.2412 109.488 61.619C109.488 66.6756 105.367 70.7872 100.298 70.7872C98.789 70.7872 97.3636 70.4206 96.1064 69.7714V70.7298C97.3857 71.3171 98.8022 71.6483 100.298 71.6483C105.841 71.6483 110.351 67.1482 110.351 61.619C110.351 60.0999 110.01 58.6602 109.4 57.3706C109.134 57.5164 108.873 57.6488 108.629 57.7593Z" fill="#13375B"/>
<path d="M113.195 46.0437C112.624 45.9687 112.128 46.1718 112.084 46.4986C112.04 46.8254 112.465 47.1522 113.036 47.2317C113.607 47.3068 114.103 47.1036 114.147 46.7768C114.191 46.45 113.766 46.1232 113.195 46.0437Z" fill="#F7A48F"/>
<path d="M84.8091 46.2467C84.8091 46.2467 84.5081 46.9135 85.3669 47.0681C86.2257 47.2227 87.5802 46.2732 87.5802 46.2732C87.5802 46.2732 88.6559 45.5798 87.9299 44.8953C87.2039 44.2108 84.8091 46.2467 84.8091 46.2467Z" fill="#57597B"/>
<path d="M84.7733 45.0086C84.7733 45.0086 84.49 45.7152 84.6937 46.2319C84.8929 46.7486 85.6764 46.5675 86.1412 46.3821C86.606 46.201 87.8189 45.6666 87.9251 45.172C88.0313 44.6818 87.6639 44.3947 86.8317 44.0944C85.9995 43.7941 85.4329 41.7715 84.7733 42.0365C84.1138 42.3014 84.2908 42.8049 84.3528 43.0036C84.4148 43.2024 84.9283 44.1828 84.7733 45.0086Z" fill="#E7F0F9"/>
<path d="M87.3282 44.0728C87.3769 43.9315 87.1246 43.7813 86.9386 43.6665C86.7306 43.5384 85.6328 43.3706 85.4513 43.3662C85.2698 43.3573 83.8799 43.9315 83.3752 44.2494C82.8706 44.5718 82.4855 44.5895 82.4855 44.5895C82.335 44.5983 82.1048 44.616 81.9277 44.6248L82.3438 45.9232C83.6364 45.5743 84.5793 45.38 84.7032 45.3491C85.0883 45.2387 85.6992 44.6513 85.8497 44.5497C86.0002 44.4482 86.3455 44.4084 86.5978 44.4526C86.8501 44.5012 87.5717 44.5762 87.6646 44.4923C87.7576 44.4084 87.3238 44.0684 87.3238 44.0684L87.3282 44.0728Z" fill="#F8A491"/>
<path d="M74.4397 42.6763C74.183 42.2568 70.6329 38.0835 69.9821 37.3239C68.6674 35.7693 67.1137 34.1795 66.4054 34.365C65.0509 34.7227 64.4622 36.9838 65.2545 38.3396C65.5644 38.8695 66.3213 39.6556 67.1226 40.4108C67.1226 40.4108 72.2928 46.0415 72.8683 46.0548C73.4438 46.0636 82.6422 45.962 82.6422 45.962L82.9123 44.3899C82.9123 44.3899 74.723 43.1401 74.4353 42.6763H74.4397Z" fill="#C5E6F2"/>
<path d="M148.474 80.9061H18.6328V81.6745H148.474V80.9061Z" fill="#F8CC7F"/>
</svg>
