<svg width="158" height="90" viewBox="0 0 158 90" fill="none" xmlns="http://www.w3.org/2000/svg">
<g opacity="0.5">
<path d="M97.7275 89.3066L153.666 89.1983C153.666 89.1983 163.385 69.2941 149.654 41.2115C141.648 24.8358 122.583 14.8343 104.867 13.6518C83.249 12.2102 86.2158 -4.1277 45.9208 0.988504C34.8451 2.3924 19.1434 3.94702 10.2428 22.273C3.6152 35.9257 -9.7468 55.811 11.6484 89.3113H97.7275V89.3066Z" fill="#3F6B68"/>
</g>
<path d="M43.8217 11.4801C44.8803 11.4141 47.3579 11.2963 49.5108 11.4989C50.4004 11.5837 51.1699 10.7875 51.1521 9.78879C51.1432 9.37893 51.0142 8.90311 50.6717 8.36605C49.364 6.29319 47.091 8.27183 47.1133 9.32711C47.1133 9.32711 46.6551 7.73948 45.2584 8.01743C43.8617 8.29538 44.3555 10.5991 44.3555 10.5991C44.3555 10.5991 43.9062 10.4907 43.5949 10.731C43.2879 10.9666 43.4525 11.5036 43.8261 11.4801H43.8217Z" fill="white"/>
<path d="M106.49 27.8386C107.549 27.7727 110.027 27.6549 112.18 27.8575C113.069 27.9423 113.839 27.1461 113.821 26.1473C113.812 25.7375 113.683 25.2617 113.34 24.7246C112.033 22.6517 109.76 24.6304 109.782 25.6857C109.782 25.6857 109.324 24.098 107.927 24.376C106.53 24.6539 107.024 26.9576 107.024 26.9576C107.024 26.9576 106.575 26.8493 106.264 27.0896C105.957 27.3251 106.121 27.8622 106.495 27.8386H106.49Z" fill="white"/>
<path d="M123.142 33.5841C123.084 33.3627 123.102 33.1036 123.244 32.8916C123.498 32.5052 123.956 32.1802 124.779 32.1237C124.779 32.1237 123.889 27.7094 127.337 27.2477C130.877 26.7719 131.06 31.4217 131.06 31.4217C131.06 31.4217 133.066 28.9531 134.16 31.9588C134.16 31.9588 136.322 30.7433 137.358 32.2037C137.669 32.6419 137.616 33.226 137.349 33.5841H123.142Z" fill="white"/>
<g style="mix-blend-mode:multiply">
<path d="M10.759 47.906H7.80992V45.2301H5.41241V41.9324H7.80992V39.2565H10.759V41.9324H13.1565V45.2301H10.759V47.906ZM8.2058 47.4632H10.3631V44.7873H12.7606V42.3752H10.3631V39.6994H8.2058V42.3752H5.80829V44.7873H8.2058V47.4632Z" fill="#F8E8CD"/>
</g>
<g style="mix-blend-mode:multiply">
<path d="M32.831 14.2969H29.5439V11.3148H26.8751V7.64015H29.5439V4.65805H32.831V7.64015H35.4999V11.3148H32.831V14.2969ZM29.9843 13.8022H32.3907V10.8201H35.0595V8.13481H32.3907V5.15271H29.9843V8.13481H27.3154V10.8201H29.9843V13.8022Z" fill="#F8E8CD"/>
</g>
<g style="mix-blend-mode:multiply">
<path d="M41.3352 22.2894H39.3558V20.4945H37.75V18.285H39.3558V16.4901H41.3352V18.285H42.9409V20.4945H41.3352V22.2894ZM39.6227 21.9926H41.0727V20.1977H42.6785V18.5818H41.0727V16.7869H39.6227V18.5818H38.0169V20.1977H39.6227V21.9926Z" fill="#F8E8CD"/>
</g>
<path d="M116.659 77.5284V86.4135C116.659 87.0636 117.131 87.5865 117.709 87.5865H120.236V76.3554H117.709C117.126 76.3554 116.659 76.883 116.659 77.5284Z" fill="#3D9694"/>
<path d="M119.239 76.3487V87.5987C119.239 87.8907 119.452 88.1263 119.71 88.1263H120.822C121.085 88.1263 121.294 87.8907 121.294 87.5987V76.3487C121.294 76.0566 121.08 75.821 120.822 75.821H119.71C119.448 75.821 119.239 76.0566 119.239 76.3487Z" fill="#203748"/>
<path d="M119.267 76.3456H119.212V87.5956H119.267V76.3456Z" fill="black"/>
<path d="M116.691 77.4514H116.636V86.5485H116.691V77.4514Z" fill="black"/>
<path d="M118.659 77.8884L118.343 76.9885L118.392 76.9697L118.708 77.8648L118.659 77.8884Z" fill="black"/>
<path d="M118.452 78.4403L118.136 77.5452L118.185 77.5216L118.501 78.4214L118.452 78.4403Z" fill="black"/>
<path d="M153.577 77.5284V86.4135C153.577 87.0636 153.105 87.5865 152.527 87.5865H150.001V76.3554H152.527C153.11 76.3554 153.577 76.883 153.577 77.5284Z" fill="#3D9694"/>
<path d="M150.998 76.3487V87.5987C150.998 87.8907 150.784 88.1263 150.526 88.1263H149.414C149.152 88.1263 148.943 87.8907 148.943 87.5987V76.3487C148.943 76.0566 149.156 75.821 149.414 75.821H150.526C150.789 75.821 150.998 76.0566 150.998 76.3487Z" fill="#203748"/>
<path d="M143.391 74.4874C143.382 74.3602 143.364 73.6629 143.387 69.9271C143.387 69.2016 143.142 68.5232 142.684 68.005C142.226 67.4915 141.616 67.2088 140.967 67.2088H130.843C130.194 67.2088 129.584 67.4915 129.126 68.005C128.668 68.5185 128.419 69.2016 128.423 69.9271C128.441 73.6582 128.423 74.3602 128.419 74.4874C128.374 74.803 128.535 75.1187 128.815 75.227C128.881 75.2506 128.944 75.2647 129.01 75.2647C129.26 75.2647 129.491 75.0904 129.575 74.8171C129.615 74.6852 129.629 74.6428 129.629 72.9516C129.629 72.179 129.629 71.1614 129.62 69.9224C129.62 69.5549 129.744 69.211 129.976 68.9519C130.207 68.6928 130.514 68.5514 130.843 68.5514H140.967C141.296 68.5514 141.603 68.6928 141.834 68.9519C142.066 69.211 142.19 69.5549 142.19 69.9224C142.186 71.1614 142.181 72.1837 142.181 72.9516C142.181 74.6428 142.195 74.6852 142.235 74.8171C142.319 75.0951 142.55 75.2647 142.799 75.2647C142.866 75.2647 142.933 75.2506 142.995 75.227C143.275 75.1187 143.436 74.803 143.391 74.4874Z" fill="#203748"/>
<path d="M149.287 72.8968V88.024C149.287 88.7165 148.784 89.2771 148.166 89.2771H121.998C121.379 89.2771 120.877 88.7165 120.877 88.024V72.8968C120.877 72.2042 121.379 71.6436 121.998 71.6436H148.166C148.784 71.6436 149.287 72.2042 149.287 72.8968Z" fill="#3D9694"/>
<g style="mix-blend-mode:multiply" opacity="0.5">
<path d="M148.202 81.6249H121.963V87.6268H148.202V81.6249Z" fill="#3D9694"/>
</g>
<g style="mix-blend-mode:multiply" opacity="0.5">
<path d="M144.442 73.3876H128.998V80.4589H144.442V73.3876Z" fill="#3D9694"/>
</g>
<path d="M124.748 82.6195H123.138V86.6145H124.748V82.6195Z" fill="#3D9694"/>
<path d="M128.236 82.6195H126.626V86.6145H128.236V82.6195Z" fill="#3D9694"/>
<path d="M131.722 82.6195H130.112V86.6145H131.722V82.6195Z" fill="#3D9694"/>
<path d="M147.08 82.6195H133.678V83.4487H147.08V82.6195Z" fill="#3D9694"/>
<path d="M147.08 84.1992H133.678V85.0283H147.08V84.1992Z" fill="#3D9694"/>
<path d="M147.08 85.7808H133.678V86.61H147.08V85.7808Z" fill="#3D9694"/>
<path d="M125.318 78.1453C126.701 78.1453 127.822 76.8924 127.822 75.3469C127.822 73.8014 126.701 72.5485 125.318 72.5485C123.935 72.5485 122.813 73.8014 122.813 75.3469C122.813 76.8924 123.935 78.1453 125.318 78.1453Z" fill="#7EC3A4"/>
<g style="mix-blend-mode:multiply" opacity="0.8">
<path d="M125.321 77.9037C126.586 77.9037 127.611 76.7563 127.611 75.3409C127.611 73.9255 126.586 72.7781 125.321 72.7781C124.055 72.7781 123.03 73.9255 123.03 75.3409C123.03 76.7563 124.055 77.9037 125.321 77.9037Z" fill="#3D9694"/>
</g>
<path d="M122.815 80.9805C123.549 80.9805 124.145 80.3161 124.145 79.4965C124.145 78.6769 123.549 78.0125 122.815 78.0125C122.08 78.0125 121.485 78.6769 121.485 79.4965C121.485 80.3161 122.08 80.9805 122.815 80.9805Z" fill="#7EC3A4"/>
<g style="mix-blend-mode:multiply" opacity="0.8">
<path d="M122.812 80.852C123.483 80.852 124.026 80.2445 124.026 79.4952C124.026 78.7458 123.483 78.1384 122.812 78.1384C122.141 78.1384 121.598 78.7458 121.598 79.4952C121.598 80.2445 122.141 80.852 122.812 80.852Z" fill="#3D9694"/>
</g>
<path d="M122.232 78.0096L123.856 80.6478C123.878 80.6855 123.869 80.7374 123.838 80.7609L123.504 81.0153C123.469 81.0389 123.424 81.0294 123.402 80.9965L121.778 78.3583C121.756 78.3206 121.765 78.2688 121.796 78.2452L122.13 77.9908C122.165 77.9673 122.21 77.9767 122.232 78.0144V78.0096Z" fill="#203748"/>
<g style="mix-blend-mode:multiply" opacity="0.5">
<path d="M144.229 73.6254H129.226V80.2256H144.229V73.6254Z" fill="#3D9694"/>
</g>
<g style="mix-blend-mode:multiply" opacity="0.5">
<path d="M148.182 73.3857H145.606V80.457H148.182V73.3857Z" fill="#3D9694"/>
</g>
<g style="mix-blend-mode:multiply" opacity="0.5">
<path d="M148.008 73.631H145.78V80.2312H148.008V73.631Z" fill="#3D9694"/>
</g>
<path d="M130.758 80.761H129.001V81.2085H130.758V80.761Z" fill="#4CB5D8"/>
<path d="M133.336 80.761H131.579V81.2085H133.336V80.761Z" fill="#203748"/>
<g style="mix-blend-mode:multiply" opacity="0.5">
<path d="M135.908 80.7544H134.151V81.202H135.908V80.7544Z" fill="#3D9694"/>
</g>
<path d="M147.813 73.8747H145.954V74.4306H147.813V73.8747Z" fill="#3D9694"/>
<path d="M147.813 74.7698H145.954V75.3257H147.813V74.7698Z" fill="#3D9694"/>
<path d="M147.813 75.6708H145.954V76.2267H147.813V75.6708Z" fill="#3D9694"/>
<path d="M147.813 76.5641H145.954V77.12H147.813V76.5641Z" fill="#3D9694"/>
<path d="M147.813 77.4612H145.954V78.0171H147.813V77.4612Z" fill="#4CB5D8"/>
<path d="M147.813 78.3583H145.954V78.9142H147.813V78.3583Z" fill="#3D9694"/>
<path d="M147.813 79.2554H145.954V79.8113H147.813V79.2554Z" fill="#EF4D64"/>
<path d="M144.227 74.6491V74.7669H143.039L141.527 75.7091L140.553 75.0966L140.033 77.259L139.156 76.3074L138.849 78.1682L138.067 76.2697L137.017 76.868L136.105 75.4829L135.295 76.4299L133.187 74.7857L132.311 75.987L131.844 75.139L131.221 75.9682L130.287 75.2332H129.224V75.1155H130.322L131.203 75.808L131.857 74.9365L132.324 75.7844L133.169 74.6255L135.282 76.2744L136.118 75.2992L137.048 76.7172L138.115 76.1048L138.805 77.7772L139.085 76.0671L139.979 77.0376L140.486 74.9176L141.527 75.5724L143.013 74.6491H144.227Z" fill="#F3D3B0"/>
<path d="M144.227 77.4063V77.5241H142.91L141.812 78.8714L140.62 78.0564L140.059 79.1776L138.004 78.7065L137.675 79.4226L137.43 78.372L137.106 79.644L135.5 78.0564L134.321 79.5875L132.6 77.8067L131.692 78.0423L131.457 77.3262L130.772 77.802H129.224V77.6842H130.741L131.51 77.1472L131.759 77.9009L132.631 77.6748L134.312 79.4179L135.491 77.8868L137.052 79.4273L137.435 77.9198L137.711 79.0928L137.946 78.5699L140.006 79.0457L140.58 77.8915L141.794 78.7207L142.866 77.4063H144.227Z" fill="#F3D3B0"/>
<path d="M147.08 71.6163H122.202V71.6776H147.08V71.6163Z" fill="black"/>
<path d="M129.656 71.6475H129.603V69.6641C129.603 69.6641 129.794 68.5193 130.844 68.5193H136.542V68.5806H130.844C129.857 68.5806 129.665 69.5982 129.656 69.6736V71.6522V71.6475Z" fill="black"/>
<path d="M143.3 69.3341C143.122 68.3071 142.535 67.7936 142.077 67.5392C141.575 67.266 141.112 67.233 141.108 67.233L132.007 67.2471V67.1859L141.108 67.1717C141.108 67.1717 141.588 67.2047 142.099 67.4874C142.571 67.7465 143.171 68.2741 143.354 69.3247L143.3 69.3341Z" fill="black"/>
<path d="M142.617 70.4173L142.572 70.389L142.968 69.7012L143.013 69.7342L142.617 70.4173Z" fill="black"/>
<path d="M142.733 71.0461L142.688 71.0131L143.08 70.3253L143.129 70.3582L142.733 71.0461Z" fill="black"/>
<path d="M148.171 89.307H122.381V89.2457H148.171C149.177 89.2457 149.257 88.1904 149.261 88.148V73.8688H149.319V88.148C149.319 88.148 149.226 89.3023 148.171 89.3023V89.307Z" fill="black"/>
<path d="M148.23 87.6568H148.203L132.862 87.638V87.5814L148.177 87.6003V81.6549H121.964V81.5937H148.23V87.6568Z" fill="black"/>
<path d="M147.08 83.423H133.678V83.4843H147.08V83.423Z" fill="black"/>
<path d="M147.08 85.0047H133.678V85.0659H147.08V85.0047Z" fill="black"/>
<path d="M147.08 86.5824H133.678V86.6436H147.08V86.5824Z" fill="black"/>
<path d="M129.028 80.466H128.974V73.3618H144.476L144.471 76.2214H144.418L144.422 73.423H129.028V80.466Z" fill="black"/>
<path d="M148.205 80.466H148.152V73.423H145.608V73.3618H148.205V80.466Z" fill="black"/>
<path d="M125.318 78.1725V78.1113C126.684 78.1113 127.796 76.8723 127.796 75.3459C127.796 73.8195 126.684 72.5805 125.318 72.5805V72.5193C126.715 72.5193 127.849 73.7865 127.849 75.3459C127.849 76.9053 126.715 78.1725 125.318 78.1725Z" fill="black"/>
<path d="M125.883 72.4755L125.808 78.2324C125.808 78.3125 125.741 78.3784 125.666 78.3784L124.887 78.3643C124.807 78.3643 124.745 78.2936 124.749 78.2135L124.825 72.4566C124.825 72.3765 124.892 72.3106 124.967 72.3106L125.746 72.3247C125.826 72.3247 125.888 72.3954 125.883 72.4755Z" fill="#203748"/>
<path d="M125.67 78.4057L124.891 78.3916C124.798 78.3916 124.722 78.3115 124.727 78.2126L124.802 72.4556C124.802 72.3567 124.882 72.2813 124.971 72.2813L125.75 72.2955C125.843 72.2955 125.919 72.3756 125.914 72.4745H125.861C125.861 72.4085 125.812 72.3567 125.745 72.352L124.967 72.3379C124.905 72.3379 124.851 72.3897 124.851 72.4556L124.776 78.2126C124.776 78.2785 124.825 78.3303 124.891 78.3303L125.67 78.3445C125.701 78.3445 125.732 78.3351 125.754 78.3115C125.776 78.2879 125.79 78.2597 125.79 78.2314H125.843C125.843 78.2785 125.825 78.3256 125.79 78.3586C125.759 78.3916 125.719 78.4057 125.674 78.4057H125.67Z" fill="black"/>
<path d="M125.212 73.8891L125.167 73.8562L125.625 73.1024L125.67 73.1354L125.212 73.8891Z" fill="black"/>
<path d="M125.212 74.5015L125.167 74.4685L125.625 73.7148L125.67 73.7477L125.212 74.5015Z" fill="black"/>
<path d="M123.796 80.6071L122.208 78.0254L122.252 77.9877L123.84 80.5741L123.796 80.6071Z" fill="black"/>
<path d="M123.298 80.8912L122.435 79.4873L122.48 79.4543L123.342 80.8582L123.298 80.8912Z" fill="black"/>
<path d="M127.01 79.8265L126.974 79.7841L127.806 78.8419L127.846 78.8843L127.01 79.8265Z" fill="black"/>
<path d="M126.819 80.5072L126.783 80.4648L127.615 79.5226L127.655 79.565L126.819 80.5072Z" fill="black"/>
<path d="M151.025 76.3456H150.971V87.5956H151.025V76.3456Z" fill="black"/>
<path d="M153.602 77.4514H153.547V86.5485H153.602V77.4514Z" fill="black"/>
<path d="M151.571 77.8884L151.522 77.8648L151.838 76.9697L151.887 76.9885L151.571 77.8884Z" fill="black"/>
<path d="M151.785 78.4403L151.736 78.4214L152.048 77.5216L152.097 77.5452L151.785 78.4403Z" fill="black"/>
<path d="M40.697 82.6985L44.4156 82.2981C44.4156 82.2981 45.6655 82.1049 45.9324 83.3157L47.5915 82.9058C48.2054 82.7551 48.8414 83.1037 49.0861 83.7538C49.2062 84.0694 49.3085 84.4557 49.3485 84.8986C49.4686 86.3025 48.5923 87.1646 48.1297 87.3342C47.6671 87.5038 45.3853 87.3954 45.3853 87.3954L44.2822 87.5556L39.9809 87.8571L40.697 82.6985Z" fill="#F79C74"/>
<path d="M42.8514 85.8922C42.8514 85.8922 42.8514 85.9205 42.8425 85.9346C42.8247 85.9582 42.7936 85.9629 42.7669 85.944C42.758 85.9346 41.9529 85.2138 42.42 84.4176C42.4378 84.3894 42.4689 84.3847 42.4911 84.3988C42.5134 84.4176 42.5223 84.4553 42.5045 84.4789C42.0908 85.1808 42.7981 85.8215 42.8292 85.8451C42.8425 85.8545 42.847 85.8687 42.847 85.8875L42.8514 85.8922Z" fill="#22131E"/>
<path d="M42.3319 83.5067C42.3319 83.5067 42.3319 83.5397 42.3185 83.5538C42.2963 83.5773 42.2652 83.5773 42.2429 83.5538C42.2207 83.5302 41.7447 83.0215 41.9894 82.6399C42.0072 82.6116 42.0383 82.6069 42.0605 82.6257C42.0828 82.6446 42.0917 82.6823 42.0739 82.7058C41.8871 83.0073 42.3096 83.4643 42.3141 83.469C42.323 83.4784 42.3274 83.4926 42.3319 83.5067Z" fill="#22131E"/>
<path d="M40.1766 87.6697L41.3331 86.5579C41.3331 86.5579 42.107 83.4768 40.7548 82.0918C39.4026 80.702 38.8555 81.2344 38.2817 81.7479C37.997 82.0023 37.4766 83.1141 38.0993 84.3484C38.4374 85.0221 37.6501 85.6298 38.1394 86.4024C38.6286 87.175 39.4382 88.0654 39.7184 87.9241C39.9942 87.7827 40.1766 87.6744 40.1766 87.6744V87.6697Z" fill="#22131E"/>
<path d="M39.6474 87.6634C39.6474 87.6634 39.7052 89.0202 40.9017 89.2699C42.0983 89.5196 42.6632 88.9496 43.0101 88.8977C43.3571 88.8459 45.719 88.8553 45.3854 87.0416L41.48 86.9615L39.9988 87.7671L39.6518 87.6587L39.6474 87.6634Z" fill="#22131E"/>
<path d="M43.0336 86.1338C43.554 86.0772 44.0166 86.5012 44.0656 87.0854C44.1145 87.6649 43.7364 88.1831 43.216 88.2396C42.6956 88.2962 42.233 87.8722 42.184 87.288C42.1351 86.7038 42.5132 86.1903 43.0336 86.1338Z" fill="#F79C74"/>
<path d="M43.7079 87.2103C43.7256 87.427 43.5922 87.5919 43.4499 87.6531C43.2808 87.7285 43.1074 87.6814 43.0051 87.5354C42.8538 87.3139 42.9205 87.0972 42.9739 86.9795C42.8716 87.036 42.8005 87.1161 42.7604 87.215C42.6759 87.4317 42.7738 87.6814 42.7738 87.6861C42.7782 87.7003 42.7738 87.7191 42.7604 87.7238C42.7471 87.7285 42.7337 87.7238 42.7248 87.7097C42.7248 87.7003 42.6181 87.4364 42.7115 87.1915C42.7649 87.0501 42.8716 86.9465 43.0318 86.8852L43.1207 86.8523L43.0629 86.9324C43.0629 86.9324 42.8583 87.2197 43.0495 87.4977C43.1563 87.6531 43.3209 87.6484 43.4321 87.5966C43.5477 87.5448 43.6767 87.4129 43.6589 87.2103C43.6589 87.2103 43.6678 87.1726 43.6812 87.1726C43.6945 87.1726 43.7079 87.182 43.7123 87.2009L43.7079 87.2103Z" fill="#EE6F62"/>
<path d="M45.1154 86.277C45.1154 86.277 47.2105 85.9661 47.1571 83.0123L45.9339 83.3138C45.9339 83.3138 46.4409 85.1794 45.111 86.277H45.1154Z" fill="#EE6F62"/>
<path d="M43.9672 83.9462C43.9672 83.9462 43.9628 83.9697 43.9539 83.9744C43.9405 83.9791 43.9272 83.9744 43.9183 83.9603L43.6959 83.3902L42.4771 83.7106C42.4771 83.7106 42.4504 83.7059 42.446 83.687C42.446 83.6729 42.4504 83.6541 42.4638 83.6541L43.727 83.3243L43.9672 83.9367C43.9672 83.9367 43.9672 83.9414 43.9672 83.9462Z" fill="#EE6F62"/>
<path d="M44.6584 83.0844L44.6495 84.248C44.6495 84.248 44.2314 84.0879 44.2314 83.6639C44.2314 83.2399 44.654 83.0844 44.654 83.0844H44.6584Z" fill="#FBFCFC"/>
<path d="M75.2425 71.1318C74.7087 73.5156 73.441 79.1312 71.8531 85.7691H64.6383L67.7341 68.8376C67.7519 68.7433 67.7742 68.6444 67.8053 68.5502L67.8676 68.3523C68.2145 67.2735 69.2509 66.6187 69.9982 67.0097L72.1288 68.1262L74.682 69.4641C75.1802 69.728 75.4071 70.3922 75.2469 71.1224L75.2425 71.1318Z" fill="#207E7A"/>
<path d="M78.1105 85.7693H70.4198L71.8743 74.2508L72.1278 68.1311L72.279 64.4753L81.3175 70.2935C81.3175 70.2935 80.6147 80.1773 78.1105 85.7646V85.7693Z" fill="#228C89"/>
<path d="M118.459 83.6994L118.53 89.461L113.637 89.3008L113.023 83.803L118.459 83.6994Z" fill="#F79C74"/>
<path d="M120.072 77.851V89.492H119.031V84.5407L118.995 84.503L118.546 84.0414L118.457 83.9518L118.212 83.7022L117.011 82.4726L118.359 79.9474L118.995 78.7556L119.031 78.6896V77.8699C119.031 77.8699 119.031 77.8557 119.031 77.8463C119.04 77.5778 119.209 77.3328 119.449 77.281C119.649 77.2386 119.836 77.3234 119.947 77.4789C120.023 77.5778 120.067 77.7097 120.067 77.851H120.072Z" fill="#ED4650"/>
<path d="M119.041 77.8649V89.4918H117.057C117.035 89.4683 117.008 89.44 116.981 89.407C116.937 89.3552 116.888 89.294 116.839 89.2186C116.821 89.1903 116.803 89.1574 116.781 89.1291C116.763 89.1008 116.746 89.0678 116.728 89.0396C116.71 89.0113 116.697 88.983 116.683 88.9501C116.505 88.5732 116.403 88.055 116.652 87.4284C116.652 87.4284 117.23 86.5192 117.128 85.3932C117.093 84.9645 116.955 84.5028 116.648 84.0459C116.577 83.9422 116.501 83.8386 116.412 83.7396C116.403 83.7302 116.394 83.7208 116.385 83.7114L118.107 79.3819C118.107 79.3819 118.196 79.0851 118.356 78.7459C118.507 78.4256 118.725 78.0675 118.992 77.8979C119.005 77.8885 119.014 77.8838 119.027 77.8744H119.032L119.041 77.8649Z" fill="#FBC784"/>
<path d="M117.184 85.6575C117.184 85.4926 117.17 85.3936 117.17 85.3889L117.095 85.4031C117.095 85.4031 117.224 86.4348 116.623 87.41L116.685 87.4571C117.113 86.7598 117.179 86.0391 117.179 85.6575H117.184Z" fill="black"/>
<path d="M118.687 88.5409L118.625 88.4937L118.291 89.0457L118.353 89.0976L118.687 88.5409Z" fill="black"/>
<path d="M118.594 88.143L118.531 88.0959L118.197 88.6479L118.259 88.695L118.594 88.143Z" fill="black"/>
<path d="M119.983 77.4447L119.951 77.4777L119.925 77.5013C119.836 77.3788 119.698 77.3128 119.56 77.3128C119.293 77.3128 119.08 77.5531 119.08 77.8499V89.4909H119V77.8499C119 77.8499 119 77.831 119 77.8216C119.013 77.4918 119.258 77.2233 119.556 77.2233C119.72 77.2233 119.876 77.3034 119.983 77.4447Z" fill="black"/>
<path d="M119.053 77.8885L119.022 77.8084C119.022 77.8084 118.568 78.0534 118.23 78.9437C117.896 79.8153 116.375 83.6454 116.362 83.6878L116.433 83.7208C116.446 83.6831 117.972 79.8483 118.301 78.9767C118.626 78.124 119.053 77.8885 119.057 77.8885H119.053Z" fill="black"/>
<path d="M77.3301 78.5209C78.0952 78.5209 114.449 81.1638 114.449 81.1638L114.218 89.3422L75.6799 89.0312L77.3345 78.5209H77.3301Z" fill="#4CB5D8"/>
<path d="M47.0679 89.0368C46.8499 87.3219 46.8722 85.5789 47.1702 83.8782C47.5083 81.956 48.1488 79.7089 49.3586 78.8091C51.6494 77.1037 66.9063 75.9683 74.7927 77.1037L78.3512 77.3863C78.3512 77.3863 77.079 87.044 76.5719 89.0368H47.0679Z" fill="#E63E4F"/>
<path d="M47.0436 85.3527L46.7901 85.3386C46.8034 85.1031 47.097 79.5346 49.8192 78.3945C52.0878 77.4429 61.1663 75.9306 69.7155 76.5525L69.6977 76.8352C61.1841 76.2133 52.1589 77.7114 49.9082 78.6583C47.3461 79.7325 47.0481 85.2962 47.0436 85.3527Z" fill="black"/>
<path d="M83.118 88.4531C83.158 88.2364 83.029 88.0244 82.8377 87.9679L81.6501 87.6098C81.6145 87.6004 81.5878 87.5627 81.5834 87.5203C81.5834 87.4591 81.6279 87.4073 81.6857 87.412L83.4871 87.6711C83.6918 87.6994 83.8519 87.5345 83.8385 87.3036C83.8252 87.0728 83.6428 86.8561 83.4382 86.8278L81.6012 86.564C81.5567 86.5593 81.5255 86.5169 81.5211 86.4698V86.4368C81.5166 86.3803 81.5522 86.3331 81.6012 86.3284L83.6517 86.173C83.8474 86.1588 84.012 85.9798 84.012 85.7584C84.012 85.5181 83.8296 85.3297 83.6161 85.3438L81.5522 85.4993C81.5033 85.4993 81.4588 85.4616 81.4544 85.4051V85.2967C81.4455 85.2449 81.4766 85.2025 81.5211 85.1931L83.4071 84.7691C83.6028 84.7267 83.7407 84.5241 83.714 84.3074C83.6873 84.0671 83.4827 83.907 83.2736 83.9541C83.2736 83.9541 80.369 84.4252 79.9109 84.4581L80.4536 83.4217C80.587 83.2474 80.5737 82.9883 80.418 82.8375C80.2623 82.6868 80.031 82.7056 79.8931 82.8752L78.1228 84.6701C78.0338 84.7832 78.0516 85.08 78.1183 85.3156C78.1005 87.7653 78.1183 88.1422 78.1628 88.8017L80.4936 88.5379C81.1652 88.4625 81.8458 88.5238 82.4997 88.7169L82.6642 88.7641C82.8689 88.8253 83.0824 88.6793 83.1268 88.4437L83.118 88.4531Z" fill="#F79C74"/>
<path d="M50.7536 82.0742C50.807 82.5783 74.9244 83.0211 78.9855 83.2096L78.4206 89.0748L48.2138 89.0324L50.7581 82.0742H50.7536Z" fill="#E63E4F"/>
<path d="M78.532 89.221L59.2852 89.1786V88.8959L78.3007 88.9336L78.8434 83.3463L51.9192 82.258L51.9014 82.2486L50.8339 81.7822L50.9273 81.5184L51.9726 81.9754L79.1236 83.073L78.532 89.221Z" fill="black"/>
<path d="M114.367 88.4497L114.113 88.4403L114.318 81.303L79.8007 78.825L79.814 78.5423L114.58 81.0345L114.367 88.4497Z" fill="black"/>
<path d="M56.6056 54.5603C56.5433 57.6696 56.5122 62.423 56.8369 63.9447C57.3351 66.2767 59.2922 76.5798 59.2922 76.5798L62.5838 77.0367L61.5652 63.1344L61.9344 55.8134C61.2093 55.7616 57.7398 55.4695 56.6011 54.5556L56.6056 54.5603Z" fill="#F8AC8E"/>
<path d="M62.5233 75.9594C62.5233 75.9594 62.5322 75.9923 62.5366 76.0065C63.2305 76.242 64.0356 76.5106 64.2358 76.5765C64.6005 76.6943 65.7036 77.5517 65.9794 78.0322C66.4821 78.8991 66.0506 78.7954 66.0506 78.7954C66.4954 79.7518 65.8193 79.4879 65.8193 79.4879C66.2863 80.303 65.6058 80.1993 65.6058 80.1993C65.8148 80.6657 65.6992 80.8165 65.5702 80.8589C65.4723 80.8918 65.37 80.8636 65.29 80.7976C65.1432 80.6704 64.814 80.3925 64.476 80.0957C64.476 80.0957 63.3373 79.4503 61.22 78.5787L60.4104 78.1406L62.5233 75.9594Z" fill="#F8AC8E"/>
<path d="M64.9769 79.4121C64.9769 79.4121 64.9369 79.4121 64.9235 79.4262C64.9057 79.4498 64.9102 79.478 64.9324 79.4969C65.2082 79.7419 65.5641 80.2224 65.5685 80.2271C65.5863 80.2506 65.613 80.2506 65.6308 80.2318C65.6486 80.213 65.653 80.18 65.6352 80.1611C65.6219 80.1423 65.2705 79.6665 64.9858 79.4168C64.9858 79.4168 64.9769 79.4121 64.9725 79.4074L64.9769 79.4121Z" fill="#EE6F62"/>
<path d="M65.1819 78.8145C65.1819 78.8145 65.1374 78.8145 65.1285 78.8381C65.1151 78.8616 65.124 78.8946 65.1463 78.9087C65.5155 79.1584 65.7868 79.5259 65.7912 79.5306C65.809 79.5541 65.8357 79.5541 65.8535 79.54C65.8713 79.5212 65.8758 79.4882 65.858 79.4693C65.8446 79.4552 65.5733 79.083 65.1908 78.8239H65.1819V78.8145Z" fill="#EE6F62"/>
<path d="M65.5078 78.1651C65.5078 78.1651 65.4633 78.1651 65.4544 78.1839C65.4411 78.2075 65.4455 78.2404 65.4678 78.2546C65.7791 78.4807 66.0149 78.8293 66.0193 78.8293C66.0327 78.8529 66.0638 78.8576 66.0816 78.8387C66.1038 78.8199 66.1038 78.7916 66.0905 78.7681C66.0816 78.754 65.8414 78.4006 65.5167 78.1651H65.5078Z" fill="#EE6F62"/>
<path d="M60.4096 78.1355C60.4096 78.1355 59.3287 77.7351 59.1063 75.5915C58.8839 73.448 62.0242 75.7329 62.0242 75.7329L62.816 77.688L61.4638 78.3145L60.4096 78.1308V78.1355Z" fill="#F8AC8E"/>
<path d="M42.7858 83.316H42.7769C42.7769 83.316 42.7502 83.2924 42.7502 83.2688C42.8393 82.8489 42.6254 82.7356 42.6165 82.7309C42.5987 82.7215 42.5943 82.7026 42.5987 82.6838C42.6076 82.6649 42.6254 82.6602 42.6433 82.6649C42.6522 82.6696 42.915 82.8064 42.817 83.2877C42.817 83.3065 42.7992 83.316 42.7858 83.316Z" fill="black"/>
<path d="M43.1164 85.3013H43.1075C43.1075 85.3013 43.0807 85.2777 43.0807 85.2542C43.1698 84.8342 42.9471 84.7163 42.9471 84.7163C42.9293 84.7069 42.9248 84.688 42.9293 84.6691C42.9382 84.6503 42.956 84.6408 42.9738 84.6502C42.9827 84.655 43.2456 84.7918 43.1476 85.273C43.1476 85.2919 43.1297 85.3013 43.1164 85.3013Z" fill="black"/>
<path d="M55.4691 51.2918C55.7226 47.9187 63.6936 40.885 70.895 45.1627C76.0325 48.2107 82.1931 70.103 82.1931 70.103C82.1931 70.103 74.707 71.8273 67.6746 69.4058L63.9827 64.478L60.7756 59.3477C60.7756 59.3477 57.0526 60.2381 55.5403 60.0732C55.5403 60.0732 54.9976 57.6093 55.4691 51.3012V51.2918Z" fill="#7EC3A4"/>
<path d="M76.2033 70.8171C70.5765 70.8171 67.6586 69.5404 67.6274 69.5263L67.6008 69.5121L67.583 69.4886C59.6698 59.6283 57.4947 52.901 57.4725 52.835L57.7082 52.7408C57.7305 52.8067 59.8922 59.4776 67.7475 69.2766C68.0767 69.4132 71.4973 70.7653 77.8269 70.5015L77.8358 70.7794C77.2709 70.803 76.7237 70.8124 76.2033 70.8124V70.8171Z" fill="black"/>
<path d="M56.0664 60.2429C55.6928 60.2429 55.5282 60.2053 55.5148 60.2005L55.4259 60.177V60.0733C55.3992 59.7624 54.9499 52.4037 55.4259 50.6748C55.9063 48.927 57.4497 47.5843 57.5165 47.5278L57.6677 47.7492C57.6677 47.7492 56.1198 49.0966 55.6616 50.7596C55.2302 52.3284 55.6038 58.9992 55.6616 59.9461C55.9018 59.9744 56.6357 60.0168 58.1392 59.7294L58.1792 60.0027C57.1562 60.1958 56.4801 60.2429 56.0664 60.2429Z" fill="black"/>
<path d="M73.2017 56.0842C72.8414 59.1653 72.2231 63.8716 71.6938 65.3226C70.8842 67.5415 67.5437 77.3923 67.5437 77.3923L64.2254 77.284L67.1256 63.7161L67.7572 56.4187C68.4823 56.4894 71.9473 56.7909 73.2017 56.0842Z" fill="#F79C74"/>
<path d="M64.1143 76.3165C64.1143 76.3165 63.6205 76.1469 63.1757 75.8737C62.7354 75.6004 62.7131 76.0338 62.7932 76.2034C62.8733 76.373 63.3581 76.9384 63.3581 76.9384L64.1143 76.3118V76.3165Z" fill="#EE6F62"/>
<path d="M64.46 76.1326C64.46 76.1326 64.4467 76.1656 64.4378 76.1797C63.7038 76.2975 62.8543 76.4294 62.6452 76.4624C62.2627 76.5189 61.0306 77.1926 60.6836 77.626C60.0564 78.4127 60.5057 78.3845 60.5057 78.3845C59.923 79.2702 60.6436 79.1241 60.6436 79.1241C60.0564 79.8685 60.7592 79.8779 60.7592 79.8779C60.4834 80.3113 60.5769 80.4809 60.7058 80.5516C60.7993 80.5987 60.9105 80.594 60.9994 80.5374C61.1684 80.4338 61.5332 80.2124 61.9157 79.9674C61.9157 79.9674 63.1567 79.5151 65.4119 79.0016L66.2882 78.7001L64.46 76.1326Z" fill="#F79C74"/>
<path d="M61.5032 79.1984C61.5032 79.1984 61.5433 79.2031 61.5522 79.2219C61.5655 79.2455 61.5566 79.2785 61.5344 79.2926C61.2186 79.4905 60.796 79.9144 60.7915 79.9192C60.7737 79.938 60.7426 79.938 60.7248 79.9192C60.707 79.8956 60.7115 79.8626 60.7248 79.8438C60.7426 79.8249 61.1607 79.4104 61.4854 79.2031C61.4854 79.2031 61.4943 79.2031 61.4988 79.1984H61.5032Z" fill="#EE6F62"/>
<path d="M61.3814 78.5528C61.3814 78.5528 61.4259 78.5623 61.4348 78.5858C61.4437 78.6141 61.4348 78.6424 61.4081 78.6518C61.0033 78.8402 60.6742 79.1653 60.6742 79.1653C60.6564 79.1841 60.6253 79.1841 60.6075 79.1653C60.5897 79.1417 60.5897 79.1087 60.6075 79.0899C60.6208 79.0758 60.95 78.7507 61.3725 78.5575H61.3814V78.5528Z" fill="#EE6F62"/>
<path d="M61.1416 77.841C61.1416 77.841 61.1861 77.8504 61.195 77.8693C61.2039 77.8975 61.195 77.9258 61.1728 77.9399C60.8258 78.1142 60.5411 78.4205 60.5367 78.4252C60.5189 78.444 60.4878 78.444 60.47 78.4252C60.4522 78.4063 60.4522 78.3734 60.47 78.3498C60.4833 78.3357 60.7724 78.0247 61.1327 77.841H61.1416Z" fill="#EE6F62"/>
<path d="M66.227 78.7376C66.227 78.7376 67.3479 78.5256 67.8638 76.4433C68.3754 74.361 64.9593 76.0852 64.9593 76.0852L63.9095 77.8849L65.1594 78.7329H66.227V78.7376Z" fill="#F79C74"/>
<path d="M69.9651 56.7147C68.1948 56.7147 66.6869 56.3991 66.5757 56.3755L66.4689 56.352L67.0294 47.2314L67.2785 47.2502L66.7313 56.1259C67.4475 56.2625 71.513 56.9503 73.8572 55.6453C73.7993 54.9999 73.4524 51.2028 73.2077 48.8897L73.4524 48.8567C73.7193 51.3771 74.1062 55.6689 74.1107 55.7113L74.1196 55.8055L74.044 55.8479C72.8919 56.5216 71.3484 56.7147 69.9651 56.7147Z" fill="black"/>
<path d="M55.4029 42.2526L57.747 45.5221C57.747 45.5221 58.4587 46.6103 59.3794 46.0026L60.229 47.5431C60.5448 48.1179 61.1809 48.3676 61.7458 48.1226C62.0216 48.0048 62.3241 47.8258 62.6176 47.562C63.5606 46.7187 63.5028 45.475 63.2982 45.0133C63.0936 44.5469 61.5101 42.8745 61.5101 42.8745L60.874 41.9228L58.1963 38.4319L55.3984 42.2479L55.4029 42.2526Z" fill="#F79C74"/>
<path d="M60.6426 43.3972C60.6426 43.3972 61.8481 45.2063 60.0021 47.1331L59.3749 45.9977C59.3749 45.9977 60.8562 45.145 60.6426 43.3972Z" fill="#EE6F62"/>
<path d="M58.6722 41.7037C58.6722 41.7037 58.69 41.6801 58.69 41.666C58.69 41.633 58.6722 41.6095 58.6456 41.6048C58.6367 41.6048 57.6536 41.4681 57.4802 42.3538C57.4757 42.3821 57.4891 42.4151 57.5202 42.4198C57.5469 42.4245 57.5736 42.4056 57.578 42.3774C57.7337 41.5953 58.5966 41.7084 58.6322 41.7178C58.6456 41.7178 58.6589 41.7178 58.6722 41.7037Z" fill="black"/>
<path d="M59.9222 40.2657L59.215 41.2173L59.1883 41.5329C59.1883 41.5329 58.1252 39.8841 58.0629 39.4271C58.0007 38.9748 59.9222 40.2657 59.9222 40.2657Z" fill="black"/>
<path d="M57.0949 43.1161C57.0949 43.1161 57.1127 43.0925 57.1127 43.0737C57.1127 43.0407 57.0904 43.0172 57.0637 43.0172C57.037 43.0172 56.4054 42.9936 56.3342 43.4317C56.3298 43.46 56.3476 43.493 56.3743 43.4977C56.401 43.5024 56.4276 43.4836 56.4321 43.4553C56.4899 43.1114 57.0548 43.1349 57.0593 43.1349C57.0726 43.1349 57.0815 43.1349 57.0904 43.1208L57.0949 43.1161Z" fill="black"/>
<path d="M58.2369 42.8239C58.2908 42.8952 58.3851 42.9095 58.4525 42.8524C58.5198 42.7953 58.5288 42.6859 58.4749 42.6146C58.421 42.5432 58.3267 42.5289 58.2593 42.586C58.192 42.6431 58.183 42.7525 58.2369 42.8239Z" fill="black"/>
<path d="M56.8942 43.8068C56.9481 43.8781 57.0424 43.8924 57.1097 43.8353C57.1771 43.7782 57.1861 43.6688 57.1322 43.5975C57.0783 43.5261 56.984 43.5119 56.9166 43.5689C56.8492 43.626 56.8403 43.7354 56.8942 43.8068Z" fill="black"/>
<path d="M59.1731 41.9028C59.4845 42.3363 60.0538 42.4069 60.4452 42.0583C60.8367 41.7097 60.8989 41.0737 60.5876 40.6403C60.2762 40.2069 59.7069 40.1362 59.3154 40.4848C58.924 40.8334 58.8617 41.4694 59.1731 41.9028Z" fill="#F79C74"/>
<path d="M60.3166 41.6023C60.4633 41.4704 60.4722 41.2584 60.4189 41.1076C60.3521 40.9286 60.2098 40.825 60.0497 40.8485C59.8139 40.8815 59.725 41.0747 59.6894 41.1924C59.6538 41.0747 59.6582 40.9663 59.6894 40.8721C59.765 40.6601 59.983 40.5706 59.9874 40.5706C60.0007 40.5659 60.0052 40.547 60.0007 40.5329C59.9963 40.5188 59.9829 40.5093 59.9696 40.514C59.9607 40.514 59.7294 40.613 59.6449 40.8485C59.596 40.9804 59.6049 41.1359 59.6716 41.2961L59.7072 41.3856L59.7161 41.2867C59.7161 41.2867 59.7561 40.938 60.0497 40.9003C60.2143 40.8768 60.321 41.0087 60.3655 41.1265C60.41 41.249 60.4144 41.4327 60.281 41.5552C60.281 41.5552 60.2676 41.5835 60.281 41.5976C60.2899 41.6117 60.3032 41.6117 60.3166 41.6023Z" fill="#EE6F62"/>
<path d="M58.455 44.071C58.455 44.071 58.4683 44.0521 58.4639 44.038C58.4594 44.0239 58.4461 44.0144 58.4328 44.0191L57.9346 44.2264L57.3207 43.0816C57.3207 43.0816 57.2985 43.0628 57.2851 43.0722C57.2718 43.0816 57.2674 43.0958 57.2762 43.1099L57.9123 44.2924L58.4505 44.071H58.4594H58.455Z" fill="#EE6F62"/>
<path d="M59.9229 40.2655C59.9229 40.2655 59.06 38.5177 58.2327 38.3198C57.4009 38.122 54.2694 39.2809 54.1805 39.8274C54.0915 40.3739 54.6342 40.4587 54.6342 40.4587C54.6342 40.4587 53.4154 40.9769 53.8824 42.1358C54.3495 43.2947 56.7292 41.839 57.65 40.2749C57.65 40.2749 58.6641 39.8085 59.9185 40.2608L59.9229 40.2655Z" fill="black"/>
<path d="M58.9223 44.4917C58.9223 44.4917 58.9312 44.4728 58.9268 44.4634C58.9268 44.4445 58.909 44.4351 58.8957 44.4398C58.8734 44.4445 58.3352 44.5812 58.1929 44.8261C58.184 44.8403 58.1884 44.8591 58.2018 44.8685C58.2151 44.878 58.2329 44.8732 58.2418 44.8591C58.3708 44.633 58.9046 44.5011 58.909 44.4964C58.9134 44.4964 58.9179 44.4917 58.9223 44.4869V44.4917Z" fill="#EE6F62"/>
<path d="M34.594 41.098L32.5434 30.0977L31.4047 22.5788L30.9332 21.9476L30.2571 22.6307L28.9449 21.7214C28.9449 21.7214 26.8766 26.5503 26.9477 28.9953C27.0234 31.4403 31.0489 42.9023 31.0489 42.9023L34.5984 41.1027L34.594 41.098Z" fill="#F79C74"/>
<path d="M35.4332 43.3883L35.5444 43.4542C35.6289 43.7322 35.8335 44.2787 36.0337 44.9335C35.5533 45.1596 35.1841 45.3481 35.2019 45.4187L35.0907 45.4517C35.064 45.4611 35.0418 45.48 35.0284 45.5082C34.5169 45.6731 33.863 45.8663 33.3248 46.0641C32.9423 46.2055 32.6576 46.4693 32.3462 46.2102C32.1639 46.0641 31.7991 45.023 31.6924 44.6461L30.785 42.1869C31.4611 41.9655 34.3123 40.6182 34.4502 40.703L35.4332 43.3883Z" fill="#F79C74"/>
<path d="M34.1323 41.8526C33.8254 41.8903 33.6074 42.1022 33.6119 42.1588L33.7765 44.0479C33.7943 44.2552 33.9989 44.4154 34.2524 44.3965C34.546 44.3777 34.7728 44.1516 34.755 43.9207L34.6038 42.1541C34.586 41.9562 34.3102 41.829 34.1368 41.8526H34.1323Z" fill="#F79C74"/>
<path d="M31.5295 46.9547L30.7689 47.1902L30.4753 45.9889C30.3018 45.2775 30.6755 44.5379 31.316 44.3447L36.2845 42.8231C36.9206 42.6299 37.5833 43.0492 37.7568 43.7606L38.037 44.8959L37.2764 45.1315L36.9962 43.9961C36.9384 43.7511 36.7115 43.6098 36.4936 43.6758L31.5251 45.1974C31.3071 45.2634 31.1781 45.5178 31.2404 45.758L31.534 46.9594L31.5295 46.9547Z" fill="#49263E"/>
<path d="M32.0041 47.3806L30.5451 47.8282C30.3272 47.8942 30.1048 47.7528 30.0425 47.5078L29.9936 47.3147C29.9357 47.0697 30.0603 46.82 30.2783 46.7541L31.7372 46.3065C31.9552 46.2406 32.1776 46.3819 32.2399 46.6269L32.2888 46.82C32.3466 47.065 32.2221 47.3147 32.0041 47.3806Z" fill="#4CB5D8"/>
<path d="M38.4789 45.3934L37.0199 45.8409C36.8019 45.9069 36.5795 45.7655 36.5173 45.5206L36.4683 45.3274C36.4105 45.0824 36.5351 44.8328 36.753 44.7668L38.212 44.3193C38.4299 44.2533 38.6523 44.3946 38.7146 44.6396L38.7635 44.8328C38.8214 45.0777 38.6968 45.3274 38.4789 45.3934Z" fill="#4CB5D8"/>
<path d="M47.1469 42.1774L51.8396 61.2902L26.3789 69.0917L21.6862 49.9789L47.1469 42.1774Z" fill="white"/>
<path d="M23.7718 49.3366C24.0876 50.6227 23.4115 51.956 22.255 52.3093L21.6812 49.9773L23.7674 49.3366H23.7718Z" fill="#49263E"/>
<path d="M45.0606 42.818C45.3764 44.1041 46.5685 44.8626 47.7205 44.5093L47.1467 42.1773L45.0606 42.818Z" fill="#E63E4F"/>
<path d="M49.7525 61.9337C49.4366 60.6476 50.1127 59.3143 51.2692 58.961L51.843 61.293L49.7569 61.9337H49.7525Z" fill="#E63E4F"/>
<path d="M28.4717 68.4561C28.1559 67.1699 26.9638 66.4115 25.8118 66.7648L26.3856 69.0968L28.4717 68.4561Z" fill="#49263E"/>
<g style="mix-blend-mode:multiply" opacity="0.5">
<path d="M27.5436 48.1848L27.0276 48.345L31.7203 67.4577L32.2363 67.2975L27.5436 48.1848Z" fill="#E63E4F"/>
</g>
<g style="mix-blend-mode:multiply" opacity="0.5">
<path d="M41.2334 43.9922L40.7174 44.1523L45.4101 63.2651L45.9261 63.1049L41.2334 43.9922Z" fill="#E63E4F"/>
</g>
<path d="M34.803 45.8577C34.5227 45.9614 34.3226 45.8106 34.3048 45.7588L33.7799 44.1712C33.7176 43.978 33.8422 43.7424 34.0735 43.6435C34.3315 43.5304 34.6028 43.6152 34.6695 43.8272L35.1899 45.4102C35.1899 45.4102 35.0787 45.7588 34.7985 45.8624L34.803 45.8577Z" fill="#F79C74"/>
<path d="M34.0033 46.1654C33.7231 46.2737 33.4562 46.2078 33.4384 46.1559L32.8335 44.46C32.7668 44.2715 32.8869 44.0313 33.1182 43.9276C33.3717 43.8145 33.6475 43.8946 33.7186 44.0972L34.3414 45.8356C34.3414 45.8356 34.2836 46.057 34.0033 46.1654Z" fill="#F79C74"/>
<path d="M33.0698 46.3509C32.8118 46.4545 32.5628 46.3933 32.545 46.3509L31.9578 44.7774C31.8911 44.6031 32.0023 44.3816 32.2158 44.278C32.4516 44.1696 32.7095 44.2403 32.7807 44.4335L33.3812 46.0446C33.3812 46.0446 33.3278 46.2472 33.0698 46.3509Z" fill="#F79C74"/>
<path d="M34.2743 45.9254C34.2921 45.9536 34.3321 45.9631 34.3766 45.9489C34.4211 45.9301 34.4522 45.8877 34.4388 45.85L33.865 44.1399C33.8117 43.9797 33.9184 43.7913 34.1052 43.7065C34.2075 43.6641 34.3099 43.6546 34.4033 43.6829C34.4967 43.7112 34.5634 43.7724 34.5901 43.8525L35.1061 45.4166C35.1194 45.4543 35.1683 45.4684 35.2128 45.4543C35.2573 45.4354 35.2884 45.393 35.2751 45.3553L34.7591 43.7913C34.7191 43.6735 34.6212 43.584 34.4878 43.5416C34.3543 43.4992 34.1987 43.5133 34.0519 43.5746C33.7761 43.6923 33.6249 43.9703 33.7005 44.2011L34.2743 45.9112C34.2743 45.9112 34.2743 45.9207 34.2832 45.9254H34.2743Z" fill="#EE6F62"/>
<path d="M35.7398 45.3785C35.464 45.4916 35.1927 45.4162 35.1749 45.3644L34.5833 43.6637C34.5166 43.4753 34.6322 43.2444 34.8591 43.1361C35.117 43.0136 35.4017 43.0937 35.4729 43.3057L36.0245 44.8933C36.0867 45.0676 35.8999 45.3126 35.7398 45.3785Z" fill="#F79C74"/>
<path d="M35.1065 45.4074C35.1242 45.4356 35.1687 45.4451 35.2088 45.4309C35.2532 45.4121 35.2799 45.3697 35.271 45.332L34.675 43.6313C34.6216 43.4711 34.7195 43.2827 34.9063 43.1979C35.0041 43.1555 35.1109 43.1461 35.2043 43.1696C35.2977 43.1979 35.3644 43.2544 35.3911 43.3392L35.9293 44.8986C35.9427 44.9363 35.9916 44.9504 36.0361 44.9316C36.0806 44.9127 36.1117 44.8703 36.0984 44.8326L35.5602 43.2733C35.5201 43.1555 35.4178 43.066 35.2844 43.0283C35.1465 42.9906 34.9908 43 34.8485 43.066C34.5771 43.1885 34.4259 43.4617 34.506 43.6973L35.102 45.398C35.102 45.398 35.102 45.4074 35.1109 45.4121L35.1065 45.4074Z" fill="#EE6F62"/>
<path d="M33.39 46.1282C33.4078 46.1564 33.4523 46.1658 33.4923 46.1517C33.5368 46.1329 33.5635 46.0858 33.5502 46.0528L32.9319 44.4086C32.8741 44.2484 32.963 44.0788 33.1498 43.994C33.2477 43.9469 33.3545 43.9375 33.4479 43.9658C33.5413 43.994 33.608 44.0506 33.6391 44.1354L34.2619 45.8738C34.2752 45.9115 34.3241 45.9256 34.3686 45.9067C34.4131 45.8879 34.4398 45.8455 34.4264 45.8078L33.8037 44.0694C33.7637 43.9517 33.6614 43.8621 33.5235 43.8244C33.3856 43.7868 33.2299 43.8009 33.0876 43.8669C32.8162 43.9893 32.6783 44.2485 32.7629 44.4793L33.3811 46.1234C33.3811 46.1234 33.3811 46.1329 33.3856 46.1329L33.39 46.1282Z" fill="#EE6F62"/>
<path d="M32.5183 46.3541C32.5361 46.3824 32.5806 46.3918 32.6206 46.3777C32.6651 46.3588 32.6918 46.3117 32.6784 46.2787L32.0913 44.7052C32.0379 44.5592 32.1269 44.3849 32.2959 44.3048C32.3849 44.2624 32.4827 44.253 32.5717 44.2765C32.6562 44.3001 32.7185 44.3519 32.7496 44.4273L33.3501 46.0385C33.3634 46.0762 33.4124 46.0903 33.4568 46.0714C33.5013 46.0526 33.528 46.0055 33.5147 45.9725L32.9142 44.3613C32.8741 44.253 32.7763 44.1682 32.6473 44.1352C32.5183 44.1022 32.3715 44.1164 32.2336 44.1776C31.9801 44.2954 31.8422 44.5592 31.9223 44.7759L32.5094 46.3494C32.5094 46.3494 32.5094 46.3588 32.5139 46.3635L32.5183 46.3541Z" fill="#EE6F62"/>
<path d="M33.4539 41.6753L33.7252 43.2347L33.8497 43.9885L33.9921 44.1816L34.388 44.2193L34.7171 43.9649L34.7705 43.555L34.7571 41.9156L33.8097 41.2042L33.4539 41.6753Z" fill="#F79C74"/>
<path d="M33.3799 41.9567C33.3888 41.9237 33.4243 41.8954 33.4688 41.8907C33.5178 41.8907 33.5622 41.919 33.5622 41.9614L33.8692 43.8317C33.8692 44.0107 34.0382 44.1473 34.2472 44.1473C34.3584 44.1473 34.4652 44.1096 34.5453 44.039C34.6253 43.9683 34.6698 43.8835 34.6654 43.794L34.6342 42.0556C34.6342 42.0132 34.6743 41.9755 34.7232 41.9755C34.7721 41.9755 34.8166 42.0038 34.8166 42.0462L34.8477 43.7846C34.8477 43.9165 34.7855 44.0484 34.6698 44.1426C34.5542 44.2415 34.3985 44.2981 34.2339 44.2981C33.927 44.2981 33.6868 44.1002 33.6779 43.8458L33.371 41.9755C33.371 41.9755 33.371 41.9661 33.371 41.9614L33.3799 41.9567Z" fill="#EE6F62"/>
<path d="M7.86248 83.9255L4.2373 81.1036L6.61702 77.2782L10.5135 79.6479L7.86248 83.9255Z" fill="#F79C74"/>
<path d="M3.91399 81.4574L7.04543 83.9684L9.30949 83.4408L10.6395 86.8469L11.1377 87.2473C11.3111 87.3839 11.3823 87.643 11.2933 87.855C11.1732 88.1424 10.8574 88.2272 10.6395 88.0529L3.35798 82.2159C3.3046 82.1735 3.29126 82.0887 3.33129 82.0322L3.67379 81.5045C3.73162 81.415 3.83837 81.3962 3.91844 81.4621L3.91399 81.4574Z" fill="#4CB5D8"/>
<path d="M3.93946 81.4863L4.86021 80.0495C4.86021 80.0495 5.89661 79.6773 6.43928 80.7279C6.43928 80.7279 7.03532 82.6641 8.85458 82.3579L10.6649 85.8064C10.6649 85.8064 11.2209 86.6638 11.1364 87.2574L3.93501 81.4863H3.93946Z" fill="#EE5D74"/>
<path d="M3.91649 81.4597L3.96987 81.5021L4.88617 80.0747L4.83279 80.0323L3.91649 81.4597Z" fill="black"/>
<path d="M7.26833 82.0037C7.37063 82.0838 7.43736 82.1262 7.4418 82.1262L7.47294 82.0603C7.47294 82.0603 6.77459 81.6504 6.47213 80.7129L6.40985 80.7365C6.62781 81.4101 7.03703 81.8153 7.26833 81.999V82.0037Z" fill="black"/>
<path d="M4.7597 81.7349L4.82206 81.7113L4.64388 81.1829L4.58151 81.2065L4.7597 81.7349Z" fill="black"/>
<path d="M5.04876 81.8578L5.11113 81.8342L4.93294 81.3058L4.87503 81.3294L5.04876 81.8578Z" fill="black"/>
<path d="M10.9292 88.1859C11.0671 88.1717 11.1916 88.0916 11.2762 87.9692C11.4274 87.7336 11.3785 87.4038 11.1694 87.2342L3.97243 81.4632C3.86123 81.3737 3.7011 81.4019 3.62103 81.5291L3.36749 81.9249L3.42087 81.9673L3.67441 81.5715C3.73668 81.4773 3.85233 81.4585 3.93685 81.5244L11.1338 87.2955C11.3162 87.4415 11.3562 87.7242 11.2272 87.9268C11.1561 88.0351 11.0493 88.1058 10.9292 88.1152V88.1859Z" fill="black"/>
<path d="M11.1144 87.2569L11.1812 87.2711C11.1812 87.2711 11.2523 86.8 10.8743 86.1074C10.5051 85.4243 8.89931 82.3716 8.88597 82.3433L8.82814 82.381C8.84593 82.414 10.4472 85.462 10.8209 86.1451C11.1856 86.8141 11.1189 87.2569 11.1189 87.2569H11.1144Z" fill="black"/>
<path d="M28.2683 87.5754L23.847 87.6414L23.7847 82.9869L28.1838 82.3744L28.2683 87.5754Z" fill="#F79C74"/>
<path d="M23.7682 88.141H27.6202L29.1815 86.2377L32.0416 88.141H32.6554C32.869 88.141 33.0602 88.3012 33.1003 88.532C33.1536 88.8429 32.9401 89.1209 32.6688 89.1209H23.7059C23.6392 89.1209 23.5858 89.0597 23.5858 88.989V88.3389C23.5858 88.2305 23.6659 88.1457 23.7593 88.1457L23.7682 88.141Z" fill="#4CB5D8"/>
<path d="M23.8023 88.1526V86.386C23.8023 86.386 24.4517 85.4108 25.4392 85.9102C25.4392 85.9102 26.9337 87.0926 28.2504 85.6605L31.5242 87.2811C31.5242 87.2811 32.4227 87.6156 32.6629 88.1526H23.8023Z" fill="#EE5D74"/>
<path d="M23.832 86.3782H23.7653V88.1354H23.832V86.3782Z" fill="black"/>
<path d="M26.7771 86.3968C26.9017 86.3968 26.9773 86.3826 26.9817 86.3826L26.9728 86.312C26.9728 86.312 26.1944 86.4345 25.4605 85.8691L25.4249 85.9304C25.9498 86.3355 26.4969 86.3968 26.7816 86.3968H26.7771Z" fill="black"/>
<path d="M24.5984 87.8157L24.6341 87.7591L24.2153 87.443L24.1797 87.5043L24.5984 87.8157Z" fill="black"/>
<path d="M24.8978 87.7307L24.9334 87.6694L24.5191 87.3533L24.479 87.4146L24.8978 87.7307Z" fill="black"/>
<path d="M32.9795 89.0361C33.0863 88.9372 33.1441 88.7911 33.1441 88.6357C33.1441 88.3436 32.9306 88.108 32.6726 88.108H23.8121C23.6742 88.108 23.5585 88.2352 23.5585 88.3907V88.8806H23.6253V88.3907C23.6253 88.2776 23.7098 88.1834 23.8121 88.1834H32.6726C32.895 88.1834 33.0774 88.386 33.0774 88.6357C33.0774 88.7676 33.024 88.8948 32.9351 88.9796L32.9795 89.0361Z" fill="black"/>
<path d="M32.6452 88.1596L32.703 88.1266C32.703 88.1266 32.5162 87.6979 31.8445 87.3776C31.1862 87.0619 28.2905 85.6297 28.2638 85.6156L28.2371 85.6816C28.2683 85.6957 31.1595 87.1326 31.8223 87.4435C32.4672 87.7497 32.6452 88.1502 32.6452 88.1549V88.1596Z" fill="black"/>
<path d="M20.4958 41.4185C20.6603 46.888 21.3854 68.2903 22.9111 82.2916C23.0134 83.215 23.7117 83.9122 24.5435 83.9075C25.4642 83.9075 26.7453 83.7803 28.1687 83.2998C28.8537 83.0642 29.3296 82.367 29.343 81.5661L29.9612 38.9593C29.9612 38.8557 29.9568 38.752 29.9435 38.6484L29.9123 38.4364C29.7522 37.2775 28.6757 36.5802 27.6927 36.9995L21.5499 39.633C20.8961 39.9156 20.4691 40.627 20.4958 41.4091V41.4185Z" fill="#207E7A"/>
<path d="M16.9907 38.9038L15.9587 58.6431C15.9587 58.6431 8.51713 71.5467 5.66147 77.1481C5.31897 77.8171 5.4702 78.6604 6.01287 79.1362C6.77793 79.8099 8.0145 80.7285 9.65139 81.3598C10.2074 81.5718 10.8212 81.3786 11.1904 80.8651L24.5079 63.0809C24.9083 62.5438 25.1796 61.8984 25.2952 61.2106L28.5557 41.4477L16.9907 38.899V38.9038Z" fill="#228C89"/>
<path d="M27.2977 8.89832C27.2977 8.89832 28.3029 7.26358 26.7328 5.38858C25.1626 3.51358 24.4376 5.98689 23.6903 6.07169C22.943 6.1612 21.7154 5.60529 20.9948 6.98563C20.2742 8.36126 20.3631 9.50134 19.5803 9.57671C18.7974 9.65209 16.004 11.2633 16.182 14.1606C16.3599 17.0579 18.7974 17.4018 18.7974 17.4018C18.7974 17.4018 28.2006 19.7856 29.2904 17.1615C30.3802 14.5375 29.6596 13.1618 28.6099 11.9841C27.9649 11.2633 26.5549 10.4859 27.2977 8.89361V8.89832Z" fill="#FBC784"/>
<path d="M32.0991 24.7157L31.721 25.0172L31.2317 25.4931L30.391 25.8417L30.1908 26.162L29.8617 31.7493L30.2976 42.7497C30.2976 42.7497 20.3384 42.5047 15.8236 41.9064L15.9704 39.3341L16.0638 37.6759L16.6331 27.7308L16.2595 28.6448C15.9881 28.5505 15.7257 28.4469 15.4677 28.3385C15.7835 27.6696 16.1171 26.9676 16.4374 26.3411C15.5167 26.0113 13.4794 25.0172 12.0472 23.7405C11.8336 24.2352 11.5401 24.8948 11.2198 25.6203C10.7972 25.2481 10.5659 25.0078 10.5659 25.0078L11.1042 24.1598L12.661 21.809L14.2934 19.5383L15.7657 17.8188L17.456 16.9095L18.2656 16.7399C18.3056 16.7211 18.3501 16.7117 18.3901 16.7022C18.4301 16.6975 18.4746 16.6881 18.5146 16.6834L19.5422 16.4714L19.6711 16.5656C20.801 16.4714 21.9085 16.4384 22.2644 16.429C22.3578 16.4196 22.5179 16.4149 22.7181 16.4149C23.7011 16.4149 25.6538 16.5185 25.6538 16.5185L26.0719 16.4714C26.5434 16.5326 29.4436 16.8294 29.9996 17.4607C30.1508 17.6303 30.9248 19.3074 31.7299 22.7842L32.0991 24.7157Z" fill="#7EC3A4"/>
<path d="M26.1773 9.56885C26.1773 9.56885 26.3596 13.4979 25.7013 14.294C25.7013 14.294 25.3766 14.7228 24.6916 14.6615L24.4826 17.0877L21.4223 16.7579L22.1073 8.80566L26.1728 9.57356L26.1773 9.56885Z" fill="#F79C74"/>
<path d="M24.916 12.4996C24.916 12.4996 24.8937 12.4855 24.8893 12.4714C24.8893 12.4525 24.8982 12.4384 24.916 12.4384C25.0984 12.4149 25.2318 12.1793 25.2718 12.1039C25.0316 11.9249 24.8893 11.7082 24.8582 11.4632C24.8048 11.0675 25.0583 10.7377 25.0672 10.7236C25.0761 10.7094 25.0939 10.7094 25.1073 10.7236C25.1206 10.733 25.1206 10.7566 25.1073 10.766C25.1073 10.766 24.8626 11.0863 24.9115 11.4538C24.9427 11.6846 25.0806 11.8919 25.3208 12.0662L25.343 12.0804L25.3297 12.1039C25.3297 12.1039 25.1651 12.4667 24.916 12.4996C24.916 12.4996 24.916 12.4996 24.9115 12.4996H24.916Z" fill="#EE6F62"/>
<path d="M24.6118 15.6379L24.6963 14.6628C24.6963 14.6628 23.2285 14.4084 22.3789 13.6734C22.3789 13.6734 23.4953 15.1244 24.6118 15.6379Z" fill="#EE6F62"/>
<path d="M23.3447 10.6741C23.3447 10.6741 23.318 10.6647 23.3091 10.6506C23.2869 10.6223 23.2913 10.5846 23.3136 10.5611C23.3225 10.5517 24.1053 9.81201 24.7103 10.4716C24.7325 10.4951 24.7325 10.5375 24.7103 10.5611C24.688 10.5846 24.6524 10.5846 24.6302 10.5611C24.1009 9.98161 23.4159 10.627 23.3847 10.6553C23.3714 10.6647 23.358 10.6694 23.3447 10.6694V10.6741Z" fill="black"/>
<path d="M25.2964 10.7475C25.2964 10.7475 25.2653 10.7381 25.2564 10.7192C25.2386 10.691 25.243 10.6533 25.2697 10.6297C25.292 10.6109 25.8302 10.1916 26.1193 10.5261C26.1416 10.5497 26.1416 10.5921 26.1193 10.6156C26.0971 10.6392 26.0615 10.6392 26.0392 10.6156C25.8168 10.3565 25.3409 10.7287 25.3365 10.7334C25.3231 10.7428 25.3098 10.7475 25.2964 10.7428V10.7475Z" fill="black"/>
<path d="M25.894 11.2989C25.885 11.3935 25.8091 11.4644 25.7243 11.455C25.6394 11.4455 25.5769 11.3604 25.5814 11.2658C25.5903 11.1712 25.6662 11.1003 25.7511 11.1097C25.8359 11.1192 25.8984 11.2043 25.894 11.2989Z" fill="#49263E"/>
<path d="M24.52 11.1526C24.5111 11.2472 24.4352 11.3182 24.3503 11.3087C24.2655 11.2993 24.203 11.2141 24.2074 11.1195C24.2119 11.0249 24.2923 10.954 24.3771 10.9635C24.462 10.9729 24.5245 11.0581 24.52 11.1526Z" fill="#49263E"/>
<path d="M22.4764 11.6797C22.4319 12.2167 22.0005 12.6125 21.5201 12.5607C21.0397 12.5088 20.6883 12.033 20.7328 11.4912C20.7773 10.9542 21.2087 10.5585 21.6891 10.6103C22.1695 10.6621 22.5209 11.1379 22.4764 11.6797Z" fill="#F79C74"/>
<path d="M21.4884 12.1858C21.3061 12.1669 21.1949 11.9973 21.1682 11.8419C21.1371 11.6534 21.2082 11.4838 21.3461 11.4085C21.5463 11.3001 21.7109 11.3943 21.7954 11.4697C21.7687 11.3614 21.7153 11.2813 21.6441 11.2247C21.484 11.1022 21.266 11.1541 21.2616 11.1541C21.2483 11.1541 21.2305 11.1494 21.226 11.1305C21.226 11.1117 21.2305 11.0975 21.2483 11.0928C21.2571 11.0928 21.4929 11.0316 21.6753 11.1729C21.782 11.253 21.8443 11.3802 21.8665 11.5545L21.8799 11.6676L21.8176 11.5828C21.8176 11.5828 21.6219 11.3284 21.3684 11.4697C21.226 11.5498 21.1993 11.7147 21.2216 11.8372C21.2438 11.9644 21.3283 12.1151 21.4929 12.1293C21.5062 12.1293 21.5196 12.1434 21.5196 12.1622C21.5196 12.1811 21.5062 12.1905 21.4884 12.1905H21.484L21.4884 12.1858Z" fill="#EE6F62"/>
<path d="M26.1745 9.56351C26.1745 9.56351 26.0366 8.03713 24.2574 7.67909C22.4781 7.32105 22.1045 8.80032 22.1045 8.80032L24.1106 9.48342L26.041 9.53996L26.1745 9.56351Z" fill="#F79C74"/>
<path d="M26.2813 8.29088C26.2813 8.29088 25.0581 9.39327 23.6347 8.95985C23.6347 8.95985 22.9809 10.882 21.94 10.6794C20.8992 10.4768 21.7043 7.80093 21.7043 7.80093C21.7043 7.80093 23.7415 7.11783 23.866 7.13196C23.9906 7.14609 26.0812 7.23089 26.0812 7.23089L26.2813 8.29088Z" fill="#FBC784"/>
<path d="M24.5207 11.7086C24.475 11.7038 24.4796 11.6263 24.5253 11.6311C24.571 11.636 24.5665 11.7135 24.5207 11.7086Z" fill="#EA5942"/>
<path d="M24.3033 11.8198C24.2576 11.8149 24.2621 11.7375 24.3079 11.7423C24.3536 11.7472 24.349 11.8246 24.3033 11.8198Z" fill="#EA5942"/>
<path d="M23.9425 11.5077C23.8968 11.5029 23.9013 11.4254 23.9471 11.4303C23.9928 11.4351 23.9882 11.5126 23.9425 11.5077Z" fill="#EA5942"/>
<path d="M23.5914 11.7476C23.5457 11.7428 23.5503 11.6653 23.596 11.6701C23.6417 11.675 23.6372 11.7525 23.5914 11.7476Z" fill="#EA5942"/>
<path d="M23.2853 11.3342C23.2395 11.3293 23.2441 11.2519 23.2898 11.2567C23.3356 11.2616 23.331 11.339 23.2853 11.3342Z" fill="#EA5942"/>
<path d="M23.1107 11.8763C23.065 11.8715 23.0696 11.794 23.1153 11.7989C23.161 11.8037 23.1564 11.8812 23.1107 11.8763Z" fill="#EA5942"/>
<path d="M25.2384 11.5526C25.1927 11.5478 25.1973 11.4703 25.243 11.4751C25.2887 11.48 25.2841 11.5574 25.2384 11.5526Z" fill="#EA5942"/>
<path d="M25.4637 11.8958C25.418 11.891 25.4225 11.8135 25.4682 11.8184C25.514 11.8232 25.5094 11.9007 25.4637 11.8958Z" fill="#EA5942"/>
<path d="M25.7903 11.7866C25.7446 11.7818 25.7492 11.7043 25.7949 11.7092C25.8406 11.714 25.836 11.7915 25.7903 11.7866Z" fill="#EA5942"/>
<path d="M25.7621 12.3386C25.7163 12.3337 25.7209 12.2562 25.7666 12.2611C25.8123 12.2659 25.8078 12.3434 25.7621 12.3386Z" fill="#EA5942"/>
<path d="M26.0263 12.0441C25.9806 12.0392 25.9852 11.9617 26.0309 11.9666C26.0766 11.9714 26.072 12.0489 26.0263 12.0441Z" fill="#EA5942"/>
<path d="M26.0117 11.5585C25.966 11.5536 25.9705 11.4761 26.0163 11.481C26.062 11.4858 26.0574 11.5633 26.0117 11.5585Z" fill="#EA5942"/>
<path d="M24.0332 12.0382C23.9875 12.0334 23.992 11.9559 24.0377 11.9607C24.0835 11.9656 24.0789 12.043 24.0332 12.0382Z" fill="#EA5942"/>
<path d="M16.7851 18.745C16.7851 18.745 16.8163 18.7356 16.8252 18.7215C17.3234 17.9818 18.1329 17.6803 18.1418 17.6756C18.1685 17.6662 18.1818 17.6332 18.1729 17.605C18.164 17.5767 18.1329 17.5578 18.1062 17.5673C18.0706 17.5814 17.2566 17.8829 16.7362 18.6508C16.7184 18.6744 16.7229 18.7121 16.7451 18.7309C16.754 18.7403 16.7674 18.7403 16.7762 18.7403L16.7851 18.745Z" fill="#22131E"/>
<path d="M16.8827 19.2774C16.8827 19.2774 16.9138 19.268 16.9227 19.2539C17.4209 18.5143 18.2304 18.2127 18.2393 18.208C18.266 18.1986 18.2794 18.1656 18.2705 18.1374C18.2616 18.1091 18.2304 18.0903 18.2037 18.0997C18.1682 18.1138 17.3542 18.4153 16.8337 19.1832C16.8159 19.2068 16.8204 19.2445 16.8426 19.2633C16.8515 19.2727 16.8649 19.2727 16.8738 19.2727L16.8827 19.2774Z" fill="#22131E"/>
<path d="M28.6975 26.1081H23.5689C23.5155 26.1081 23.4755 26.061 23.4755 26.0044C23.4755 25.9479 23.5155 25.9008 23.5689 25.9008H28.6975C28.7509 25.9008 28.7909 25.9479 28.7909 26.0044C28.7909 26.061 28.7509 26.1081 28.6975 26.1081Z" fill="black"/>
<path d="M27.9589 27.1085H24.5606C24.5072 27.1085 24.4672 27.0614 24.4672 27.0049C24.4672 26.9484 24.5072 26.9012 24.5606 26.9012H27.9589C28.0123 26.9012 28.0523 26.9484 28.0523 27.0049C28.0523 27.0614 28.0123 27.1085 27.9589 27.1085Z" fill="black"/>
<path d="M25.1529 12.9527L24.1298 12.6041C24.1298 12.6041 24.1387 13.1129 24.5123 13.2401C24.886 13.3673 25.1484 12.9527 25.1484 12.9527H25.1529Z" fill="#FBFCFC"/>
<path d="M27.3772 16.6128C27.3772 16.6128 25.8427 18.0638 23.2272 18.0968C20.6117 18.1297 19.1928 16.6128 19.1928 16.6128C19.1928 16.6128 24.1079 16.0051 27.3772 16.6128Z" fill="#F79C74"/>
<path d="M30.3906 25.9421C30.3462 25.9421 30.3061 25.9044 30.2972 25.8526C30.2883 25.7961 30.3239 25.7442 30.3728 25.7348C31.2358 25.5888 31.8585 24.8115 31.9919 24.6324C31.9564 24.4723 31.9074 24.2414 31.8452 23.954C31.4493 22.0838 30.5196 17.6978 29.5322 17.3115C28.3579 16.8498 26.3829 16.5765 26.3651 16.5718C26.3162 16.5671 26.2762 16.5153 26.2851 16.454C26.2895 16.3975 26.3384 16.3598 26.3874 16.3645C26.4052 16.3645 28.4024 16.6425 29.5944 17.1136C30.6753 17.5376 31.5872 21.8388 32.0231 23.9022C32.0898 24.2179 32.1432 24.4628 32.1788 24.6277L32.1921 24.6748L32.1654 24.7172C32.1343 24.7596 31.4448 25.7584 30.3995 25.9374C30.3951 25.9374 30.3906 25.9374 30.3862 25.9374L30.3906 25.9421Z" fill="black"/>
<path d="M30.1826 26.0185L30.1692 26.0421L29.7689 32.0816L29.9557 32.0487L30.3471 26.108C32.1175 23.0694 29.9779 20.6008 29.9557 20.5772C29.9201 20.5348 29.8623 20.5348 29.8223 20.5772C29.7867 20.6196 29.7867 20.6856 29.8223 20.7233C29.9068 20.8175 31.8906 23.1118 30.1781 26.0185H30.1826Z" fill="black"/>
<path d="M29.4976 78.6434L29.2618 78.6387L29.76 44.3987L29.9958 44.4034L29.4976 78.6434Z" fill="black"/>
<path d="M13.2436 78.3261L13.0613 78.1565L24.088 63.4297C24.9598 62.2661 25.1689 61.1967 25.1734 61.1873L27.5664 46.6961L27.7977 46.7432L25.4047 61.2391C25.3958 61.2909 25.1778 62.3839 24.2704 63.5993L13.2436 78.3261Z" fill="black"/>
<path d="M10.5725 25.1377C10.5502 25.1377 10.528 25.1283 10.5058 25.1141C10.4524 25.0717 10.439 24.9917 10.4746 24.9304C10.6437 24.6525 14.6425 18.0617 16.8265 17.1006C17.725 16.7049 19.1172 16.2526 20.6518 16.3374C20.6874 16.3374 20.7096 16.3374 20.723 16.3374C20.7853 16.3374 20.8386 16.394 20.8431 16.4646C20.8431 16.5353 20.7986 16.5965 20.7363 16.6013C20.723 16.6013 20.6874 16.6013 20.6385 16.6013C19.1484 16.5165 17.7917 16.9593 16.911 17.3456C14.7937 18.2784 10.7104 25.0105 10.6659 25.0765C10.6437 25.1141 10.6036 25.133 10.568 25.133L10.5725 25.1377Z" fill="black"/>
<path d="M46.5298 63.061L46.4675 62.8066L51.694 61.2048L47.0636 42.3465L42.1752 43.8446L42.1129 43.5902L47.2326 42.0214L51.9876 61.3885L46.5298 63.061Z" fill="black"/>
<path d="M35.6526 62.3907L32.9527 61.1329L33.0416 60.8879L35.746 62.1458L35.6526 62.3907Z" fill="black"/>
<path d="M35.6493 63.642L32.9448 62.3888L33.0382 62.1439L35.7382 63.397L35.6493 63.642Z" fill="black"/>
<path d="M10.7301 31.9885C10.9259 31.9885 11.0904 32.1581 11.0993 32.3795C11.2061 34.5937 12.0245 36.3226 13.5413 37.5287C14.382 38.1976 15.2316 38.5274 15.6808 38.664C15.8632 38.7206 15.9744 38.9231 15.9433 39.1304C15.9077 39.3754 15.6942 39.5214 15.4851 39.4602C14.9825 39.3047 14.0662 38.9467 13.141 38.2212C11.9445 37.2743 10.5211 35.5123 10.3699 32.4219C10.3565 32.1863 10.5211 31.9885 10.7301 31.9885Z" fill="#F9B059"/>
<path d="M10.7708 34.8704L10.882 34.828C11.7094 37.6264 14.1647 38.8041 14.187 38.8136L14.1425 38.936C14.1158 38.9266 11.616 37.7253 10.7708 34.8657V34.8704Z" fill="black"/>
<path d="M18.6249 28.5034L18.7317 28.5646L18.2602 29.6058L18.1534 29.5445L18.6249 28.5034Z" fill="black"/>
<path d="M18.1666 28.2811L18.2734 28.3423L17.8019 29.3835L17.6951 29.3222L18.1666 28.2811Z" fill="black"/>
<path d="M16.4406 26.3404C16.1203 26.9669 15.7867 27.6689 15.4709 28.3379C13.5538 27.5181 12.037 26.3357 11.223 25.6196C11.5433 24.8941 11.8368 24.2345 12.0503 23.7399C13.4826 25.0166 15.5198 26.0106 16.4406 26.3404Z" fill="#7EC3A4"/>
<path d="M16.491 38.613L15.9706 39.3338L14.6362 41.1899C13.0749 39.7201 9.41415 34.3259 9.24067 30.9764C9.20064 30.2603 10.3127 27.6833 11.2245 25.6199C12.0385 26.336 13.5553 27.5185 15.4724 28.3382C14.9831 29.384 14.5428 30.3404 14.307 30.7974C13.9734 31.4428 15.25 35.6309 16.0685 37.6755C16.2375 38.0948 16.3843 38.4198 16.491 38.613Z" fill="#F79C74"/>
<path d="M13.6346 27.3918C13.6346 27.3918 15.574 28.5884 16.2634 28.7533L16.904 26.737L15.3382 26.3883L13.6346 27.3871V27.3918Z" fill="#7EC3A4"/>
<path d="M16.2654 28.748C16.2654 28.748 16.2432 28.748 16.2343 28.7433C16.1853 28.7245 16.1631 28.6632 16.1809 28.6114L17.7422 24.004C17.76 23.9522 17.8133 23.9239 17.8623 23.9427C17.9112 23.9616 17.9334 24.0228 17.9156 24.0747L16.3544 28.6821C16.341 28.7245 16.3054 28.748 16.2654 28.748Z" fill="black"/>
<path d="M18.0362 42.7266C18.9837 42.981 18.6323 42.2131 18.6323 42.2131C19.1527 42.2932 19.2506 42.1 19.2461 41.9257C19.2417 41.7985 19.1749 41.6854 19.0815 41.6148C18.7835 41.3934 17.8672 40.715 17.2712 40.3287C17.0399 39.9 17.7382 39.5513 18.1652 39.4854C18.3876 39.4524 18.659 39.2498 18.1118 39.019C17.667 38.8306 16.5995 38.8588 16.5995 38.8588L15.1583 35.8484L12.5073 38.5102C12.5073 38.5102 14.4466 41.5253 14.6957 41.9116C14.9448 42.2979 16.1591 43.2919 16.7152 43.4427C17.7204 43.7206 17.4669 43.2495 17.4669 43.2495C18.5344 43.4285 18.0407 42.7219 18.0407 42.7219L18.0362 42.7266Z" fill="#F79C74"/>
<path d="M17.655 41.7605C17.655 41.7605 17.6372 41.7133 17.655 41.6945C17.6684 41.6662 17.7039 41.6615 17.7262 41.6757C18.0598 41.9159 18.6469 42.1609 18.6514 42.1609C18.6781 42.1703 18.6914 42.2033 18.6825 42.2363C18.6736 42.2645 18.6425 42.2787 18.6158 42.2692C18.5936 42.2598 18.0153 42.0149 17.6728 41.7699C17.6684 41.7699 17.6639 41.7605 17.6595 41.7557L17.655 41.7605Z" fill="#EE6F62"/>
<path d="M17.1567 42.2227C17.1567 42.2227 17.1389 42.1709 17.1567 42.1473C17.1745 42.1237 17.2057 42.119 17.2279 42.1379C17.5971 42.4818 18.0508 42.6702 18.0553 42.6702C18.0819 42.6796 18.0953 42.7126 18.0864 42.7456C18.0775 42.7739 18.0464 42.7927 18.0197 42.7786C18.0019 42.7692 17.5482 42.5854 17.1656 42.2227V42.2133L17.1567 42.2227Z" fill="#EE6F62"/>
<path d="M16.6594 42.8459C16.6594 42.8459 16.6416 42.7941 16.6594 42.7753C16.6772 42.7517 16.7084 42.747 16.7306 42.7658C17.0598 43.0532 17.4734 43.204 17.4779 43.204C17.5046 43.2134 17.5179 43.2464 17.509 43.2746C17.5001 43.3029 17.4734 43.3217 17.4467 43.3123C17.4289 43.3076 17.0064 43.1521 16.6683 42.8506C16.6683 42.8506 16.6639 42.8459 16.6594 42.8412V42.8459Z" fill="#EE6F62"/>
<path d="M36.4837 58.9616C38.255 58.9616 39.6908 57.3565 39.6908 55.3765C39.6908 53.3965 38.255 51.7914 36.4837 51.7914C34.7125 51.7914 33.2767 53.3965 33.2767 55.3765C33.2767 57.3565 34.7125 58.9616 36.4837 58.9616Z" fill="#ED4650"/>
<path d="M35.5446 53.1949L36.1628 52.9829L36.6966 54.9333L38.4492 54.3586L38.6315 55.0511L36.8879 55.6211L37.4216 57.5621L36.8034 57.7741L36.2696 55.8237L34.5171 56.3985L34.3347 55.7059L36.0783 55.1359L35.5446 53.1949Z" fill="white"/>
</svg>
